<?xml version="1.0" encoding="UTF-8" standalone="no"?>
<svg
   height="186.631885"
   viewBox="0 0 88.723236 30.587624"
   width="535.814123"
   version="1.1"
   id="svg167"
   sodipodi:docname="BankOfBarodaLogo.svg"
   xml:space="preserve"
   inkscape:version="1.2.2 (b0a8486541, 2022-12-01)"
   xmlns:inkscape="http://www.inkscape.org/namespaces/inkscape"
   xmlns:sodipodi="http://sodipodi.sourceforge.net/DTD/sodipodi-0.dtd"
   xmlns="http://www.w3.org/2000/svg"
   xmlns:svg="http://www.w3.org/2000/svg"><defs
     id="defs171" /><sodipodi:namedview
     id="namedview169"
     pagecolor="#ffffff"
     bordercolor="#999999"
     borderopacity="1"
     inkscape:showpageshadow="0"
     inkscape:pageopacity="0"
     inkscape:pagecheckerboard="0"
     inkscape:deskcolor="#d1d1d1"
     showgrid="false"
     inkscape:zoom="1.2645214"
     inkscape:cx="191.37676"
     inkscape:cy="93.711347"
     inkscape:current-layer="svg167" /><clipPath
     id="a"><path
       d="m22.324 841.676v-819.352"
       id="path2" /></clipPath><g
     clip-path="url(#a)"
     transform="matrix(1.25,0,0,-1.25,-363.12194,733.82119)"
     id="g11"><g
       fill="none"
       stroke="#000000"
       stroke-width="0.498"
       transform="translate(22.174,45)"
       id="g9"><path
         d="M 0,0 H -22.526"
         id="path5" /><path
         d="M 0,0 H -22.301"
         transform="translate(-0.225,774)"
         id="path7" /></g></g><g
     id="g742"
     transform="matrix(1.1619796,0,0,1.1619796,-7.1856781,-2.4772859)"><g
       id="g551"
       transform="matrix(0.60570503,0,0,0.60570503,8.1854591,6.0191764)"><path
         d="M 19.80738,29.57715 6.0650418,29.58764 6.0598018,29.219202 16.178076,28.816674 c 1.920859,-0.07343 3.785338,-0.173074 5.589503,-0.7867 3.700113,-1.237741 6.648927,-3.756492 7.515608,-6.877069 0.932239,-3.343475 -1.207585,-6.595169 -5.238111,-6.875758 3.414278,-1.001732 6.326379,-3.163845 7.099967,-5.9513859 1.008288,-3.6161977 -0.814234,-5.4426529 -3.887609,-6.1126591 5.112239,-0.081292 9.112609,1.636336 7.751618,6.5309213 -0.773589,2.7849177 -3.755182,4.9050747 -7.145859,5.8294467 3.983325,0.297635 6.166417,4.092152 5.109617,7.397603 -1.097447,3.444435 -3.875809,5.582948 -7.575921,6.816756 -1.805477,0.614937 -3.667334,0.715897 -5.589504,0.789322"
         id="path13"
         style="fill:#f15a29;stroke-width:1.31117" /><path
         d="m 12.59597,27.8451 -6.4915863,0.308124 c -0.00262,-0.166518 -0.00918,-0.216342 -0.027534,-0.376305 L 22.467744,23.047541 22.478233,22.783997 5.8618178,26.781744 C 5.8106823,26.625715 5.7962595,26.582446 5.7267677,26.434285 L 23.178396,16.743452 23.066947,16.474662 5.2193461,25.600383 C 5.1092081,25.446976 5.1262533,25.44042 5.0030036,25.30537 L 25.748283,5.7453853 25.567342,5.5251093 4.2149925,24.640609 C 4.116655,24.568494 4.0628971,24.510803 3.9553814,24.446556 L 19.107224,2.3442189 18.838435,2.2694823 3.0467429,24.040094 c -0.087848,-0.02885 -0.1756963,-0.05769 -0.2635445,-0.0826 L 11.452633,2.5789177 11.223178,2.5540055 1.4471195,23.768683 c -0.1206273,0 -0.2412546,0.0026 -0.3645043,0.01049 l -0.082604,0.0066 6.2988448,-22.7552982 11.76641,0.036713 c 5.565902,-0.31861352 9.962245,1.1852947 8.517339,6.3827595 -0.77621,2.7849177 -3.685689,4.9496537 -7.081611,5.8753377 l -0.01967,0.07342 c 4.030526,0.28059 6.298843,3.524416 5.370538,6.869203 -0.867993,3.117954 -3.967591,5.552791 -7.667703,6.789221 -1.806787,0.614937 -3.671266,0.717208 -5.588192,0.788011"
         id="path15"
         style="fill:#f15a29;stroke-width:1.31117" /></g><path
       id="path631"
       style="fill:#f15a29;stroke-width:0.868073"
       d="m 38.517895,13.255897 c 0.379348,0 0.540809,-0.349833 0.756959,-1.184052 0.170143,-0.665812 0.296881,-1.12589 -0.164933,-1.12589 -0.485253,0 -0.595499,0.460078 -0.765641,1.12589 -0.215282,0.834219 -0.23438,1.184052 0.173615,1.184052 z m -3.319511,-3.9992124 -0.931443,-1.152801 0.778662,-0.5694559 0.993075,1.7222569 h 0.299485 l -0.793418,-2.0946602 0.938387,-0.416675 0.548622,2.5113352 h 6.212798 l -0.158857,0.5095589 h -2.15803 l -0.266498,1.0772785 c 0.289068,-0.323791 0.646714,-0.447057 1.076411,-0.447057 1.160613,0 0.907136,1.098112 0.730049,1.782153 -0.170142,0.671889 -0.464419,1.641527 -1.592914,1.641527 -0.223095,0 -0.424488,-0.0434 -0.539073,-0.147573 l 0.07986,-0.300353 c 0.02951,0.0035 0.07205,0.02778 0.105037,0.02778 0.485253,0 0.618068,-0.581609 0.789079,-1.246553 0.215282,-0.835086 0.232643,-1.184052 -0.173615,-1.184052 -0.338549,0 -0.537337,0.251742 -0.728313,0.892379 l -0.632824,2.544323 -1.059049,-8.68e-4 0.274311,-1.011305 c -0.305561,0.323791 -0.645846,0.434036 -1.073806,0.434036 -1.16235,0 -0.897587,-1.158009 -0.721369,-1.842919 0.171879,-0.67102 0.454003,-1.610275 1.583366,-1.610275 0.406258,0 0.659735,0.09809 0.818592,0.380216 l 0.249137,-0.9887355 h -2.873321 l -1.192733,4.6398505 h -1.067729 l 0.281255,-1.012173 c -0.30643,0.323791 -0.839426,0.425355 -1.270859,0.425355 -1.159745,0 -0.930574,-1.185787 -0.754355,-1.869829 0.173615,-0.670152 0.489593,-1.585969 1.618088,-1.585969 0.407126,0 0.856788,0.109377 1.014777,0.391501 l 0.250005,-0.9887355 h -2.599878 l 0.158857,-0.5095589 z m 3.517431,5.1485414 c 0.280388,-1.013041 0.274311,-1.011305 0.274311,-1.011305 z m -3.699727,-1.564268 -0.851579,-1.103321 c -0.02952,0.103301 -0.05903,0.212678 -0.08854,0.330736 -0.21615,0.835954 -0.205733,1.178843 0.305562,1.178843 0.300353,0 0.486121,-0.124134 0.634561,-0.406258 z m -0.638034,-1.607671 0.833351,1.081619 0.06597,-0.243061 c 0.170145,-0.665812 0.303829,-1.127626 -0.302086,-1.132835 -0.288201,-0.0043 -0.467892,0.106773 -0.597235,0.294277 z m 3.08166,-3.2422529 h 1.015645 l -0.226567,0.8463712 h -1.015645 z" /><path
       id="path627"
       style="fill:#f15a29;stroke-width:0.868073"
       d="m 64.921347,12.882626 -0.843767,-1.0903 -0.07292,0.276047 c -0.21615,0.835954 -0.205733,1.178843 0.30643,1.178843 0.284728,0 0.467024,-0.111113 0.610257,-0.36459 z m 4.908084,-2.156294 0.225699,-0.9600885 h -3.154577 l -1.192732,4.6398505 h -1.066862 l 0.281256,-1.012173 c -0.304694,0.323791 -0.840295,0.425355 -1.269123,0.425355 -1.16235,0 -0.97311,-1.118078 -0.796023,-1.803855 0.172746,-0.671021 0.530393,-1.651943 1.659756,-1.651943 0.40539,0 0.852447,0.109377 1.011305,0.391501 l 0.252609,-0.9887355 h -2.584254 l 0.159726,-0.5095589 h 7.583486 l -0.931443,-1.152801 0.776058,-0.5694559 0.993943,1.7222569 h 0.30209 l -0.796891,-2.0946602 0.939255,-0.416675 0.548622,2.5113352 h 7.160734 L 79.77234,9.7662435 h -0.598102 l -1.193601,4.6450585 h -1.065994 l 1.191865,-4.6450585 h -0.92363 l -0.370667,1.1797115 h -1.490482 c -0.485252,0 -0.618068,0.580741 -0.816856,1.436661 -0.23872,1.030402 -0.42362,1.651074 0.245664,1.651074 0.04688,0 0.121531,-0.01823 0.214414,-0.05035 -0.07031,-0.634561 0.293409,-1.373291 1.043424,-1.373291 0.686646,0 0.687514,0.375007 0.593762,0.706611 -0.130211,0.467024 -0.369799,0.717897 -0.831614,0.84724 0.237852,0.447057 0.81078,0.482648 0.81078,0.482648 l -1.145856,0.630221 c -0.264762,-0.312506 -0.421883,-0.585949 -0.467891,-0.9054 -0.282124,0.07465 -0.59463,0.09636 -0.830746,0.09636 -1.375028,0 -1.145857,-1.346381 -0.914081,-2.255254 0.236984,-0.936651 0.645846,-1.757848 1.776077,-1.757848 0.40539,0 0.862865,0.02604 0.862865,0.02604 l 0.201393,-0.7144235 h -3.002665 l -1.1936,4.6450585 h -1.065994 l 1.192732,-4.6450585 h -0.854183 l -0.425356,1.6363175 h -1.069466 c 0.09115,-0.357646 -0.07552,-0.491329 -0.530393,-0.491329 -0.411466,0 -0.532997,0.05816 -0.703139,0.644978 -0.12153,0.501746 0.02257,0.608519 0.519108,0.596366 h 0.851579 c 0.625013,0 0.738731,0.233512 0.515636,1.164086 -0.274311,1.046896 -0.78387,1.107661 -1.42364,1.107661 H 67.62713 c -1.089431,0 -1.129363,-0.486121 -0.883698,-1.279539 h 1.230059 c -0.112849,0.418411 -0.359382,0.830746 0.354174,0.830746 0.4323,0 0.577269,-0.105037 0.740466,-0.706612 0.13542,-0.433168 0.169275,-0.658867 -0.486989,-0.658867 0,0 -0.583345,-0.0078 -0.861128,-0.0078 -0.730917,0 -0.614596,-0.618936 -0.482649,-1.131099 0.260422,-0.944464 0.444454,-1.06773 1.533017,-1.06773 0.669285,0 0.965298,0.07465 1.059049,0.322923 z m -5.54959,0.546886 0.842899,1.097245 0.08334,-0.298618 c 0.170142,-0.665812 0.303825,-1.127626 -0.30209,-1.132835 -0.307298,-0.0043 -0.492197,0.120662 -0.624144,0.334208 z m 3.329928,3.623337 h 1.014777 l -0.229171,0.845503 h -1.013909 z" /><path
       id="path17"
       style="fill:#f15a29;stroke-width:0.868073"
       d="m 54.255762,7.5693197 c -0.263026,1.0069647 -0.724841,1.0625214 -1.301241,1.0625214 h -1.123287 c -0.939255,0 -1.015645,-0.4027859 -0.825537,-1.0625214 h 1.111133 c -0.107641,0.3428888 -0.243928,0.6562632 0.346361,0.6562632 0.389765,0 0.519976,-0.093752 0.670153,-0.6371656 z M 46.952664,14.332477 H 45.35975 l 0.135419,-0.525185 h 1.387181 c 0.351569,0 0.870677,-0.19792 1.050368,-0.894115 0.110245,-0.440981 -0.079,-0.95054 -0.71182,-0.95054 h -1.042555 l 0.138023,-0.575532 h 1.208358 c 0.42796,0 0.756091,-0.365459 0.88283,-0.846371 0.09375,-0.365459 0.07205,-0.8550523 -0.564247,-0.8550523 h -1.296033 l 0.134551,-0.5251842 h 1.559059 c 0.790815,0 1.649339,0.3402847 1.419299,1.2882205 -0.170142,0.706611 -0.533864,1.060785 -1.366347,1.1936 0.861997,0.118058 1.032139,0.690986 0.858525,1.375028 -0.325528,1.258706 -1.664964,1.315131 -2.199697,1.315131 z m 9.606964,-4.6355103 h -0.843767 l -0.658,2.5339053 c -0.07552,0.295145 -0.06771,0.513031 0.289937,0.513031 0.358514,0 0.494801,-0.33768 0.570324,-0.634561 z M 50.228771,9.1874078 h 9.545331 l -0.159725,0.5095589 h -1.930595 l -0.319451,1.2231153 c 0.29775,-0.290805 0.658,-0.421884 1.077279,-0.421884 0.533865,0 0.934915,0.263894 0.817725,0.723105 l -0.685778,2.66672 h -1.123286 l 0.589421,-2.289976 c 0.07639,-0.297749 0.07205,-0.527789 -0.286464,-0.527789 -0.258686,0 -0.435772,0.217018 -0.544282,0.448794 l -0.278651,1.07207 c -0.05469,0.217886 -0.368063,1.527809 -0.398446,1.745695 h -1.161481 l 0.355042,-1.422772 c -0.314243,0.296881 -0.643242,0.402786 -1.065994,0.402786 -0.533865,0 -0.934915,-0.26563 -0.815121,-0.725709 L 54.59431,9.6969667 h -0.888038 l -1.194469,4.6450583 h -1.066861 l 1.1936,-4.6450583 h -0.844635 l -1.190996,4.6450583 h -1.066862 l 0.627617,-2.440153 h -0.866337 l 0.146704,-0.519976 h 0.853316 L 50.731386,9.6969667 H 50.06731 Z m 3.504411,4.8073882 h 1.013909 l -0.227435,0.843767 h -1.015645 z" /><g
       id="g721"
       transform="translate(-8.5122459,5.8762939)"><path
         d="m 42.76877,15.36941 h 0.728754 c 0.630014,0 0.759337,0.322434 0.64749,0.853708 -0.177383,0.835358 -0.77594,0.845844 -1.04245,0.845844 h -0.693802 z m 0.520788,-2.444908 h 0.770696 c 0.421175,0 0.650986,0.325056 0.557488,0.762832 -0.12408,0.580207 -0.543507,0.761959 -0.817008,0.761959 h -0.836232 z m -0.116216,5.061955 c 0.5304,0 1.862953,-0.06554 2.18364,-1.581588 0.175635,-0.817881 0.06466,-1.392845 -0.795163,-1.516052 l 0.0026,-0.01748 c 0.707783,-0.131945 1.153423,-0.62914 1.300223,-1.316825 0.271753,-1.274882 -0.457874,-1.550131 -1.412944,-1.550131 h -2.218592 l -1.270513,5.982072 h 2.210728"
         id="path19"
         style="fill:#f15a29;stroke-width:0.873805" /><path
         d="m 48.05791,15.96622 c -0.09699,0.455253 -0.184373,1.384108 -0.873805,1.384108 -0.38098,0 -0.354766,-0.366125 -0.290978,-0.662345 0.158159,-0.748851 0.579333,-0.697296 1.164783,-0.721763 z m 1.322941,-0.84497 c 0.161655,-0.763706 0.105731,-1.40071 -1.375369,-1.40071 -0.448263,0 -0.84497,0.07427 -1.15255,0.273501 -0.312822,0.19049 -0.540885,0.514671 -0.646616,1.017983 h 1.142938 c 0.07165,-0.32855 0.169518,-0.637004 0.57409,-0.637004 0.423796,0 0.417679,0.257773 0.341658,0.615159 l -0.06728,0.320687 c -1.080898,-0.01573 -2.163542,0.04107 -2.456267,1.425177 -0.156412,0.728753 0.01311,1.334301 0.824872,1.334301 0.50506,0 0.889534,-0.207092 1.230318,-0.637005 h 0.0166 l -0.06903,0.553119 h 1.08614 c 0.02884,-0.256025 0.05156,-0.521662 0.106604,-0.777687 z"
         id="path21"
         style="fill:#f15a29;stroke-width:0.873805" /><path
         d="m 51.44916,13.80443 h -1.168278 l -0.887786,4.182033 H 50.5605 l 0.613411,-2.882684 c 0.07864,-0.372241 0.206218,-0.663219 0.57846,-0.663219 0.373988,0 0.377483,0.290978 0.298841,0.663219 l -0.613411,2.882684 h 1.168277 l 0.7139,-3.353665 c 0.123206,-0.579333 -0.295347,-0.912253 -0.850213,-0.912253 -0.440398,0 -0.782056,0.131944 -1.094005,0.505933 h -0.01573 z"
         id="path23"
         style="fill:#f15a29;stroke-width:0.873805" /><path
         d="m 54.32834,17.98734 0.484088,-2.278011 h 0.0166 l 0.602052,2.278011 h 1.318572 l -0.82662,-2.31908 1.580714,-1.862953 h -1.217211 l -1.426924,1.762466 h -0.01573 l 0.75759,-3.562505 h -1.170026 l -1.270513,5.982072 z"
         id="path25"
         style="fill:#f15a29;stroke-width:0.873805" /><path
         d="m 59.85341,17.32499 c -0.430786,0 -0.479719,-0.273501 -0.20884,-1.550131 0.184373,-0.87031 0.319813,-1.308961 0.817009,-1.308961 0.497195,0 0.44564,0.438651 0.260394,1.308961 -0.271754,1.27663 -0.437777,1.550131 -0.868563,1.550131 z m -0.156411,0.745356 c 1.50644,0 1.900527,-0.919243 2.180144,-2.229078 0.241171,-1.143811 0.283113,-2.120726 -1.256532,-2.120726 -1.542266,0 -1.915381,0.976915 -2.158299,2.120726 -0.27787,1.309835 -0.274375,2.229078 1.234687,2.229078"
         id="path27"
         style="fill:#f15a29;stroke-width:0.873805" /><path
         d="m 64.97479,11.9808 c -0.138935,-0.0087 -0.271754,-0.01573 -0.411562,-0.01573 -1.426051,0 -1.461003,0.637004 -1.70829,1.83936 h -0.5304 l -0.152916,0.719142 h 0.521662 l -0.735744,3.462891 h 1.168278 l 0.73487,-3.462891 h 0.547876 L 64.56148,13.80443 h -0.547002 l 0.107478,-0.505933 c 0.09088,-0.423796 0.227189,-0.606421 0.692928,-0.572343 z"
         id="path29"
         style="fill:#f15a29;stroke-width:0.873805" /><path
         d="m 67.22221,15.36941 h 0.728754 c 0.62914,0 0.759337,0.322434 0.64749,0.853708 -0.17913,0.835358 -0.777687,0.845844 -1.04245,0.845844 h -0.695549 z m 0.51904,-2.444908 h 0.769823 c 0.422922,0 0.652733,0.325056 0.559236,0.762832 -0.122333,0.580207 -0.543507,0.761959 -0.816135,0.761959 h -0.837105 z m -0.115342,5.061955 c 0.529526,0 1.86208,-0.06554 2.184514,-1.581588 0.173887,-0.817881 0.06379,-1.392845 -0.796037,-1.516052 l 0.0026,-0.01748 c 0.706909,-0.131945 1.15255,-0.62914 1.300223,-1.316825 0.270006,-1.274882 -0.457874,-1.550131 -1.41207,-1.550131 H 66.68482 l -1.270514,5.982072 z"
         id="path31"
         style="fill:#f15a29;stroke-width:0.873805" /><path
         d="m 72.51049,15.96622 c -0.09874,0.455253 -0.186121,1.384108 -0.873805,1.384108 -0.38098,0 -0.353018,-0.366125 -0.288356,-0.662345 0.157285,-0.748851 0.577585,-0.697296 1.162161,-0.721763 z m 1.323815,-0.84497 c 0.161654,-0.763706 0.106605,-1.40071 -1.377117,-1.40071 -0.446515,0 -0.843222,0.07427 -1.150802,0.273501 -0.31457,0.19049 -0.540886,0.514671 -0.648364,1.017983 h 1.143812 c 0.07078,-0.32855 0.169518,-0.637004 0.57409,-0.637004 0.422922,0 0.417679,0.257773 0.342532,0.615159 l -0.06903,0.320687 c -1.081771,-0.01573 -2.162668,0.04107 -2.456267,1.425177 -0.15379,0.728753 0.01485,1.334301 0.825746,1.334301 0.505933,0 0.890408,-0.207092 1.230318,-0.637005 h 0.0166 l -0.06816,0.553119 h 1.083518 c 0.03146,-0.256025 0.05505,-0.521662 0.109226,-0.777687 z"
         id="path33"
         style="fill:#f15a29;stroke-width:0.873805" /><path
         d="m 74.73345,13.80443 -0.887786,4.182033 h 1.168278 l 0.484088,-2.277137 c 0.08738,-0.414184 0.230684,-1.011867 1.244299,-0.944584 l 0.221073,-1.044197 c -0.471855,0 -0.899146,0.140682 -1.217211,0.621275 h -0.0166 l 0.114469,-0.53739 z"
         id="path35"
         style="fill:#f15a29;stroke-width:0.873805" /><path
         d="m 77.99887,17.32499 c -0.429912,0 -0.480593,-0.273501 -0.207966,-1.550131 0.184373,-0.87031 0.319813,-1.308961 0.817008,-1.308961 0.497196,0 0.444767,0.438651 0.259521,1.308961 -0.271754,1.27663 -0.436029,1.550131 -0.868563,1.550131 z m -0.156411,0.745356 c 1.50644,0 1.899653,-0.919243 2.178397,-2.229078 0.244665,-1.143811 0.285734,-2.120726 -1.255659,-2.120726 -1.540519,0 -1.914507,0.976915 -2.157425,2.120726 -0.27787,1.309835 -0.273501,2.229078 1.234687,2.229078"
         id="path37"
         style="fill:#f15a29;stroke-width:0.873805" /><path
         d="m 81.737,17.35033 c -0.421174,0 -0.401077,-0.43865 -0.17913,-1.49246 0.177382,-0.836232 0.292725,-1.417312 0.799532,-1.417312 0.478845,0 0.347774,0.58108 0.171266,1.417312 -0.222821,1.05381 -0.393213,1.49246 -0.791668,1.49246 z m 1.506441,0.63613 1.271387,-5.981198 h -1.169152 l -0.467486,2.195873 h -0.01398 c -0.166023,-0.357386 -0.429912,-0.480593 -0.85196,-0.480593 -1.177016,0 -1.41906,1.301096 -1.599064,2.144319 -0.182626,0.864193 -0.510303,2.205485 0.699918,2.205485 0.447388,0 0.80128,-0.140683 1.102742,-0.547003 h 0.01485 l -0.09612,0.463117 z"
         id="path39"
         style="fill:#f15a29;stroke-width:0.873805" /><path
         d="m 86.2974,15.96622 c -0.09612,0.455253 -0.186121,1.384108 -0.873805,1.384108 -0.380106,0 -0.353892,-0.366125 -0.290104,-0.662345 0.159033,-0.748851 0.578459,-0.697296 1.163909,-0.721763 z m 1.324689,-0.84497 c 0.161654,-0.763706 0.106604,-1.40071 -1.377117,-1.40071 -0.447389,0 -0.843223,0.07427 -1.151676,0.273501 -0.313696,0.19049 -0.540886,0.514671 -0.646616,1.017983 h 1.142938 c 0.0699,-0.32855 0.16777,-0.637004 0.574964,-0.637004 0.422048,0 0.417679,0.257773 0.342531,0.615159 l -0.07078,0.320687 c -1.07915,-0.01573 -2.162668,0.04107 -2.457141,1.425177 -0.154664,0.728753 0.01573,1.334301 0.827494,1.334301 0.505059,0 0.889534,-0.207092 1.227697,-0.637005 h 0.0166 l -0.06728,0.553119 h 1.087014 c 0.02796,-0.256025 0.05068,-0.521662 0.108352,-0.777687 z"
         id="path41"
         style="fill:#f15a29;stroke-width:0.873805" /></g></g></svg>
