<svg height="204.415543" viewBox="0 0 74.004728 30.884398" width="489.19959" xmlns="http://www.w3.org/2000/svg" xmlns:xlink="http://www.w3.org/1999/xlink"><clipPath id="a"><path d="m0 0h595.96875v785.46094h-595.96875zm0 0"/></clipPath><radialGradient id="b" cx="0" cy="0" gradientTransform="matrix(.0938306 .995588 .995588 -.0938306 221.9164 398.9198)" gradientUnits="userSpaceOnUse" r="361.6152"><stop offset="0" stop-color="#00afeb"/><stop offset=".00390625" stop-color="#00afea"/><stop offset=".0078125" stop-color="#00afea"/><stop offset=".0117188" stop-color="#00aeea"/><stop offset=".015625" stop-color="#00aee9"/><stop offset=".0195313" stop-color="#00aee9"/><stop offset=".0234375" stop-color="#00ade9"/><stop offset=".0273438" stop-color="#00ade9"/><stop offset=".03125" stop-color="#00ade9"/><stop offset=".0351563" stop-color="#00ace8"/><stop offset=".0390625" stop-color="#00ace8"/><stop offset=".0429688" stop-color="#00abe7"/><stop offset=".046875" stop-color="#00abe7"/><stop offset=".0507813" stop-color="#00abe7"/><stop offset=".0546875" stop-color="#00abe7"/><stop offset=".0585938" stop-color="#00abe7"/><stop offset=".0625" stop-color="#00aae6"/><stop offset=".0664063" stop-color="#00aae6"/><stop offset=".0703125" stop-color="#00a9e6"/><stop offset=".0742188" stop-color="#00a9e5"/><stop offset=".078125" stop-color="#00a9e5"/><stop offset=".0820313" stop-color="#00a9e5"/><stop offset=".0859375" stop-color="#00a9e5"/><stop offset=".0898438" stop-color="#00a8e5"/><stop offset=".09375" stop-color="#00a7e4"/><stop offset=".0976563" stop-color="#00a7e4"/><stop offset=".101563" stop-color="#00a6e3"/><stop offset=".105469" stop-color="#00a6e3"/><stop offset=".109375" stop-color="#00a6e3"/><stop offset=".113281" stop-color="#00a6e3"/><stop offset=".117188" stop-color="#00a5e2"/><stop offset=".121094" stop-color="#00a5e2"/><stop offset=".125" stop-color="#00a5e2"/><stop offset=".128906" stop-color="#00a4e1"/><stop offset=".132813" stop-color="#00a4e1"/><stop offset=".136719" stop-color="#00a4e1"/><stop offset=".140625" stop-color="#00a4e0"/><stop offset=".144531" stop-color="#00a3e0"/><stop offset=".148438" stop-color="#00a3e0"/><stop offset=".152344" stop-color="#00a3e0"/><stop offset=".15625" stop-color="#00a2e0"/><stop offset=".160156" stop-color="#00a2df"/><stop offset=".164063" stop-color="#00a2df"/><stop offset=".167969" stop-color="#00a1de"/><stop offset=".171875" stop-color="#00a1de"/><stop offset=".175781" stop-color="#00a0de"/><stop offset=".179688" stop-color="#00a0de"/><stop offset=".183594" stop-color="#00a0de"/><stop offset=".1875" stop-color="#00a0dd"/><stop offset=".191406" stop-color="#00a0dd"/><stop offset=".195313" stop-color="#009fdd"/><stop offset=".199219" stop-color="#009edc"/><stop offset=".203125" stop-color="#009edc"/><stop offset=".207031" stop-color="#009edc"/><stop offset=".210938" stop-color="#009edc"/><stop offset=".214844" stop-color="#009edc"/><stop offset=".21875" stop-color="#009ddb"/><stop offset=".222656" stop-color="#009ddb"/><stop offset=".226563" stop-color="#009cdb"/><stop offset=".230469" stop-color="#009cdb"/><stop offset=".234375" stop-color="#009cda"/><stop offset=".238281" stop-color="#009bda"/><stop offset=".242188" stop-color="#009bda"/><stop offset=".246094" stop-color="#009bd9"/><stop offset=".25" stop-color="#009ad9"/><stop offset=".253906" stop-color="#009ad9"/><stop offset=".257813" stop-color="#009ad9"/><stop offset=".261719" stop-color="#009ad8"/><stop offset=".265625" stop-color="#0099d8"/><stop offset=".269531" stop-color="#0099d8"/><stop offset=".273438" stop-color="#0098d8"/><stop offset=".277344" stop-color="#0098d8"/><stop offset=".28125" stop-color="#0098d7"/><stop offset=".285156" stop-color="#0098d7"/><stop offset=".289063" stop-color="#0098d7"/><stop offset=".292969" stop-color="#0097d6"/><stop offset=".296875" stop-color="#0097d6"/><stop offset=".300781" stop-color="#0096d5"/><stop offset=".304688" stop-color="#0096d5"/><stop offset=".308594" stop-color="#0096d5"/><stop offset=".3125" stop-color="#0095d5"/><stop offset=".316406" stop-color="#0095d5"/><stop offset=".320313" stop-color="#0095d4"/><stop offset=".324219" stop-color="#0094d4"/><stop offset=".328125" stop-color="#0094d4"/><stop offset=".332031" stop-color="#0094d4"/><stop offset=".335938" stop-color="#0094d4"/><stop offset=".339844" stop-color="#0093d3"/><stop offset=".34375" stop-color="#0093d3"/><stop offset=".347656" stop-color="#0093d3"/><stop offset=".351563" stop-color="#0092d2"/><stop offset=".355469" stop-color="#0092d2"/><stop offset=".359375" stop-color="#0091d2"/><stop offset=".363281" stop-color="#0091d2"/><stop offset=".367188" stop-color="#0091d1"/><stop offset=".371094" stop-color="#0090d0"/><stop offset=".375" stop-color="#0090d0"/><stop offset=".378906" stop-color="#008fd0"/><stop offset=".382813" stop-color="#008fd0"/><stop offset=".386719" stop-color="#008fcf"/><stop offset=".390625" stop-color="#008ecf"/><stop offset=".394531" stop-color="#008ecf"/><stop offset=".398438" stop-color="#008ece"/><stop offset=".402344" stop-color="#008ece"/><stop offset=".40625" stop-color="#008dce"/><stop offset=".410156" stop-color="#008dce"/><stop offset=".414063" stop-color="#008dce"/><stop offset=".417969" stop-color="#008ccd"/><stop offset=".421875" stop-color="#008ccd"/><stop offset=".425781" stop-color="#008ccd"/><stop offset=".429688" stop-color="#008bcc"/><stop offset=".433594" stop-color="#008bcc"/><stop offset=".4375" stop-color="#008acb"/><stop offset=".441406" stop-color="#008acb"/><stop offset=".445313" stop-color="#008acb"/><stop offset=".449219" stop-color="#0089cb"/><stop offset=".453125" stop-color="#0089cb"/><stop offset=".457031" stop-color="#0089ca"/><stop offset=".460938" stop-color="#0089ca"/><stop offset=".464844" stop-color="#0088ca"/><stop offset=".46875" stop-color="#0088c9"/><stop offset=".472656" stop-color="#0088c9"/><stop offset=".476563" stop-color="#0087c9"/><stop offset=".480469" stop-color="#0087c9"/><stop offset=".484375" stop-color="#0087c8"/><stop offset=".488281" stop-color="#0086c8"/><stop offset=".492188" stop-color="#0086c8"/><stop offset=".496094" stop-color="#0086c8"/><stop offset=".5" stop-color="#0085c7"/><stop offset=".503906" stop-color="#0085c7"/><stop offset=".507813" stop-color="#0085c7"/><stop offset=".511719" stop-color="#0084c6"/><stop offset=".515625" stop-color="#0084c6"/><stop offset=".519531" stop-color="#0084c6"/><stop offset=".523438" stop-color="#0083c5"/><stop offset=".527344" stop-color="#0083c5"/><stop offset=".53125" stop-color="#0083c5"/><stop offset=".535156" stop-color="#0082c5"/><stop offset=".539063" stop-color="#0082c5"/><stop offset=".542969" stop-color="#0081c4"/><stop offset=".546875" stop-color="#0081c4"/><stop offset=".550781" stop-color="#0081c4"/><stop offset=".554688" stop-color="#0081c3"/><stop offset=".558594" stop-color="#0081c3"/><stop offset=".5625" stop-color="#0080c3"/><stop offset=".566406" stop-color="#007fc2"/><stop offset=".570313" stop-color="#007fc2"/><stop offset=".574219" stop-color="#007fc2"/><stop offset=".578125" stop-color="#007fc2"/><stop offset=".582031" stop-color="#007ec1"/><stop offset=".585938" stop-color="#007ec1"/><stop offset=".589844" stop-color="#007dc1"/><stop offset=".59375" stop-color="#007dc0"/><stop offset=".597656" stop-color="#007dc0"/><stop offset=".601563" stop-color="#007cc0"/><stop offset=".605469" stop-color="#007cc0"/><stop offset=".609375" stop-color="#007cbf"/><stop offset=".613281" stop-color="#007cbf"/><stop offset=".617188" stop-color="#007bbe"/><stop offset=".621094" stop-color="#007bbe"/><stop offset=".625" stop-color="#007bbe"/><stop offset=".628906" stop-color="#007abe"/><stop offset=".632813" stop-color="#007abd"/><stop offset=".636719" stop-color="#007abd"/><stop offset=".640625" stop-color="#0079bc"/><stop offset=".644531" stop-color="#0079bc"/><stop offset=".648438" stop-color="#0078bc"/><stop offset=".652344" stop-color="#0078bc"/><stop offset=".65625" stop-color="#0078bb"/><stop offset=".660156" stop-color="#07b"/><stop offset=".664063" stop-color="#07b"/><stop offset=".667969" stop-color="#0077ba"/><stop offset=".671875" stop-color="#0077ba"/><stop offset=".675781" stop-color="#0076ba"/><stop offset=".679688" stop-color="#0076ba"/><stop offset=".683594" stop-color="#0076ba"/><stop offset=".6875" stop-color="#0075b9"/><stop offset=".691406" stop-color="#0075b9"/><stop offset=".695313" stop-color="#0075b9"/><stop offset=".699219" stop-color="#0074b8"/><stop offset=".703125" stop-color="#0074b8"/><stop offset=".707031" stop-color="#0073b7"/><stop offset=".710938" stop-color="#0073b7"/><stop offset=".714844" stop-color="#0073b7"/><stop offset=".71875" stop-color="#0072b7"/><stop offset=".722656" stop-color="#0072b7"/><stop offset=".726563" stop-color="#0072b6"/><stop offset=".730469" stop-color="#0072b6"/><stop offset=".734375" stop-color="#0071b6"/><stop offset=".738281" stop-color="#0071b6"/><stop offset=".742188" stop-color="#0071b5"/><stop offset=".746094" stop-color="#0070b5"/><stop offset=".75" stop-color="#0070b5"/><stop offset=".753906" stop-color="#006fb4"/><stop offset=".757813" stop-color="#006fb4"/><stop offset=".761719" stop-color="#006fb4"/><stop offset=".765625" stop-color="#006eb3"/><stop offset=".769531" stop-color="#006eb3"/><stop offset=".773438" stop-color="#006db2"/><stop offset=".777344" stop-color="#006db2"/><stop offset=".78125" stop-color="#006db2"/><stop offset=".785156" stop-color="#006cb2"/><stop offset=".789063" stop-color="#006cb2"/><stop offset=".792969" stop-color="#006cb1"/><stop offset=".796875" stop-color="#006cb1"/><stop offset=".800781" stop-color="#006bb1"/><stop offset=".804688" stop-color="#006bb0"/><stop offset=".808594" stop-color="#006bb0"/><stop offset=".8125" stop-color="#006ab0"/><stop offset=".816406" stop-color="#006ab0"/><stop offset=".820313" stop-color="#006ab0"/><stop offset=".824219" stop-color="#0069af"/><stop offset=".828125" stop-color="#0069af"/><stop offset=".832031" stop-color="#0068ae"/><stop offset=".835938" stop-color="#0068ae"/><stop offset=".839844" stop-color="#0068ae"/><stop offset=".84375" stop-color="#0067ad"/><stop offset=".847656" stop-color="#0067ad"/><stop offset=".851563" stop-color="#0067ad"/><stop offset=".855469" stop-color="#0067ad"/><stop offset=".859375" stop-color="#0066ac"/><stop offset=".863281" stop-color="#0066ac"/><stop offset=".867188" stop-color="#0066ac"/><stop offset=".871094" stop-color="#0065ab"/><stop offset=".875" stop-color="#0065ab"/><stop offset=".878906" stop-color="#0064ab"/><stop offset=".882813" stop-color="#0064ab"/><stop offset=".886719" stop-color="#0064aa"/><stop offset=".890625" stop-color="#0063aa"/><stop offset=".894531" stop-color="#0063aa"/><stop offset=".898438" stop-color="#0063a9"/><stop offset=".902344" stop-color="#0063a9"/><stop offset=".90625" stop-color="#0062a8"/><stop offset=".910156" stop-color="#0061a8"/><stop offset=".914063" stop-color="#0061a8"/><stop offset=".917969" stop-color="#0061a8"/><stop offset=".921875" stop-color="#0061a8"/><stop offset=".925781" stop-color="#0060a7"/><stop offset=".929688" stop-color="#0060a7"/><stop offset=".933594" stop-color="#0060a7"/><stop offset=".9375" stop-color="#005fa6"/><stop offset=".941406" stop-color="#005fa6"/><stop offset=".945313" stop-color="#005fa6"/><stop offset=".949219" stop-color="#005ea5"/><stop offset=".953125" stop-color="#005ea5"/><stop offset=".957031" stop-color="#005ea5"/><stop offset=".960938" stop-color="#005ea5"/><stop offset=".964844" stop-color="#005da4"/><stop offset=".96875" stop-color="#005ca4"/><stop offset=".972656" stop-color="#005ca4"/><stop offset=".976563" stop-color="#005ca3"/><stop offset=".980469" stop-color="#005ca3"/><stop offset=".984375" stop-color="#005ba3"/><stop offset=".988281" stop-color="#005ba3"/><stop offset=".992188" stop-color="#005ba2"/><stop offset=".996094" stop-color="#005aa2"/><stop offset="1" stop-color="#005aa2"/></radialGradient><symbol id="c" overflow="visible"/><symbol id="d" overflow="visible"/><symbol id="e" overflow="visible"/><symbol id="f" overflow="visible"/><symbol id="g" overflow="visible"/><symbol id="h" overflow="visible"/><symbol id="i" overflow="visible"/><g transform="translate(343.41726 202.97039)"><use fill="#fff" height="100%" transform="matrix(.35277778 0 0 .35277778 -270.87914 20.214249)" width="100%" x="964.08441" xlink:href="#c" y="293.8606"/><use fill="#fff" height="100%" transform="matrix(.35277778 0 0 .35277778 -270.87914 20.214249)" width="100%" x="975.84387" xlink:href="#c" y="293.8606"/><g transform="matrix(.35277779 0 0 .35277779 -80.802986 -256.45896)"><use fill="#3a6bbd" height="100%" width="100%" x="436.77472" xlink:href="#d" y="136.6481"/><use fill="#3a6bbd" height="100%" width="100%" x="436.7767" xlink:href="#d" y="136.6481"/><use fill="#3a6bbd" height="100%" width="100%" x="335.73801" xlink:href="#e" y="164.1498"/><use fill="#3a6bbd" height="100%" width="100%" x="91.495697" xlink:href="#f" y="298.95291"/><use fill="#3a6bbd" height="100%" width="100%" x="296.19879" xlink:href="#f" y="298.95291"/><use fill="#3a6bbd" height="100%" width="100%" x="299.19879" xlink:href="#f" y="298.95291"/><use fill="#4582cc" height="100%" width="100%" x="582.58667" xlink:href="#g" y="689.69342"/><use fill="#f03a1c" height="100%" width="100%" x="212.6449" xlink:href="#h" y="508.1499"/><use fill="#f03a1c" height="100%" width="100%" x="213.8943" xlink:href="#i" y="508.1499"/><use fill="#f03a1c" height="100%" width="100%" x="592.40631" xlink:href="#g" y="671.53528"/><use fill="#f03a1c" height="100%" width="100%" x="593.90631" xlink:href="#g" y="671.53528"/></g><g clip-path="url(#a)" transform="matrix(.12373157 0 0 .03898324 -343.28497 -202.8381)"><path d="m-73.375 6.914063 664.09766-62.585938 78.62109 834.218745-664.097656 62.58985zm0 0" fill="url(#b)"/></g><path d="m-331.76068-177.44978c-.0565 0-1.76664-.003-1.76664-.003v4.15754h1.45934v-2.96002c.0758-.0303.21084-.0538.32384-.0538.27147 0 .42857.15297.42857.41479v2.59898h1.4621v-2.76985c0-.89711-.55811-1.38493-1.90721-1.38493zm6.60494.0951h-1.63435l-.89435 1.69361h-.0165v-3.16674h-1.44556v5.53283h1.44556v-2.00229h.0165l1.0225 2.00229h1.61093l-1.1672-2.18557zm-14.00362 1.12861v-.0179c.43683-.14056.77583-.5085.77583-1.0418 0-.89573-.63941-1.55856-2.18281-1.55856h-1.8011v5.53971h1.8011c1.5434 0 2.27927-.6022 2.27927-1.62057 0-.66973-.46577-1.13413-.87229-1.30087zm-1.78457-1.46623c.091-.0262.23427-.0372.36932-.0372.58704 0 .76206.23289.76206.60772 0 .19706-.0606.34726-.15159.43821-.0689.0675-.24253.13505-.44511.13505h-.53468zm.36932 3.27284c-.13505 0-.28663-.0234-.36932-.0386v-1.15893h.53468c.23289 0 .37621.0606.47543.15159.0978.0909.15847.25494.15847.43408 0 .44511-.22738.61185-.79926.61185zm35.40456-3.01377c-.10611-.0303-.28525-.0606-.42719-.0606-1.27331 0-1.92099.80615-1.92099 2.06292 0 1.38355.73587 2.12631 2.10289 2.13596h1.70877v-5.53283h-1.46348zm0 2.97381c-.0496.0234-.15021.0303-.24667.0303-.41479 0-.63941-.32384-.63941-1.01561 0-.58842.21773-.97565.62425-.97565.10473 0 .21911.0248.26183.0496zm-4.77215-2.9931h-1.77078v4.15754h1.4621v-2.96003c.073-.0303.20946-.0537.32246-.0537.27147 0 .42995.15296.42995.41479v2.59898h1.46072v-2.76986c0-.8971-.55948-1.38768-1.90445-1.38768zm6.94256 4.15754h1.45934v-4.1603h-1.45934zm0-4.68947h1.45934v-.8654h-1.45934zm-18.18322.53193c-1.24023 0-1.9637.90399-1.9637 2.12493 0 1.21681.72347 2.13045 1.9637 2.13045 1.243 0 1.96509-.91364 1.96509-2.13045 0-1.22094-.72209-2.12493-1.96509-2.12493zm0 3.08818c-.32108 0-.50298-.30179-.50298-.97841 0-.67799.1819-.98116.50298-.98116.32522 0 .50574.30317.50574.98116 0 .67662-.18052.97841-.50574.97841zm2.74781-2.96554v.35278h-.43408v1.08452h.43408v2.5976h1.43041v-2.5976h.66421v-1.08452h-.66421v-.35278c0-.29214.22737-.39963.52916-.39963.0661 0 .13505.007.21084.0165v-1.11484c-.12816-.0234-.33899-.0386-.49747-.0386-.99494 0-1.67294.46715-1.67294 1.53651zm4.65915 4.0349h1.50619v-5.51904h-1.50619zm-22.37796-4.15754h-1.26366v1.03215h1.41524c.226.0124.35967.13918.38585.34726l-.001-.001v.01c-1.21956.0758-2.27239.34451-2.27239 1.39182 0 .89573.65457 1.37804 1.99265 1.37804h1.64951v-2.76986c0-.8971-.55673-1.38768-1.90583-1.38768zm.53605 3.12539c-.0606.0221-.19706.0317-.32384.0317-.34588 0-.59531-.1378-.59531-.41617 0-.35553.33073-.43683.91915-.46026zm36.34714-3.12539h-1.26642v1.03215h1.41801c.22324.0124.35966.13918.38447.34726v-.001.01c-1.22095.0758-2.27376.34451-2.27376 1.39182 0 .89572.65318 1.37804 1.99402 1.37804h1.64813v-2.76986c0-.8971-.55535-1.38768-1.90445-1.38768zm.53606 3.12539c-.062.0221-.19706.0317-.32384.0317-.34865 0-.59669-.1378-.59669-.41617 0-.35553.33348-.43683.92053-.46026zm0 0" fill="#fff"/><path d="m-337.69313-185.88613-.678-.56775-.66697.56775.66697.56913zm26.32191 0-.67662-.56775-.66835.56775.66835.56913zm10.52545 3.27422c-.10473.10887-.22737.19017-.36793.2508-.13918.062-.28388.0937-.4272.0937-.22324 0-.41616-.0441-.58842-.13367-.17087-.0896-.28663-.21084-.35415-.36104.23702-.0345.42995-.11576.58429-.25081.15434-.13229.23013-.28387.23013-.45199 0-.13919-.0276-.27148-.0827-.39688-.0565-.12678-.13504-.23013-.23977-.31281h1.24574zm-8.39638-2.32751c-.0565-.0827-.10198-.16812-.12954-.2632-.0317-.0909-.0469-.1819-.0469-.27147 0-.19017.0923-.35003.27561-.48232.18327-.13091.40514-.19706.66834-.19706.52228 0 1.01562.10473 1.47588.31144.46164.20671.83647.49334 1.17685.90261zm4.49102 0c-.55121-.62562-1.13137-1.08451-1.7942-1.40973-.66559-.32659-1.34083-.49058-2.0271-.49058-.51263 0-.92053.10749-1.22783.32384-.30868.2136-.46164.50298-.46164.85714 0 .13091.0152.25356.0441.37069.0289.12265.0744.2384.1323.34864h-4.41111v.76482h2.03261v.37482h-1.25677c-.21084 0-.38723.0634-.53606.19293-.14745.12678-.22048.27974-.22048.46164 0 .27836.0978.53744.2949.77721.19844.2384.41479.35967.64768.35967.13091 0 .33073-.0124.59944-.0372.26734-.0248.46716-.0358.59807-.0358.0799 0 .14194.0207.19706.0661.0524.0441.0786.0951.0786.15848 0 .13367-.0992.25493-.2949.35829-.19706.10748-.43822.1695-.72623.18603-.0978-.11851-.21773-.20808-.3638-.27561-.14331-.0689-.28939-.10335-.44097-.10335-.2012 0-.36656.0469-.48507.14332-.12265.0937-.18328.22462-.18328.38585 0 .19017.0882.35278.26045.48645.17363.13367.38447.20257.6339.20257h.35277c.27561.27698.55397.5016.84061.6711.28387.1695.55397.27561.80891.31419l.226-.64492c-.22187-.0841-.41479-.17225-.58016-.27423-.16261-.0951-.29765-.1943-.40239-.2949.37483-.11575.67387-.2825.89849-.49333.22875-.21222.33899-.43409.33899-.66146 0-.27423-.0841-.49885-.25218-.67662-.16536-.1819-.3762-.26872-.63114-.26872-.13367 0-.32522.011-.58429.0386-.25907.0207-.45337.0358-.58567.0358-.0841 0-.15571-.0234-.21497-.0689-.0593-.0427-.0882-.0978-.0882-.16536 0-.0386.0193-.0744.0537-.10473.0372-.0317.0772-.0455.12265-.0455h1.78731v-1.06246h1.43729v3.42304h.98117v-3.42304h3.52227v.30041h-1.24575c-.20809 0-.38723.0648-.53882.19155-.15158.12815-.22737.28249-.22737.46164 0 .2508.14331.50298.42857.75516.28387.25632.56775.38448.84887.38448h.82407c.0992 0 .1819.0248.2508.0785.0703.051.10335.11576.10335.18742 0 .11575-.0758.21359-.226.28939-.15158.0758-.34037.11299-.56775.11299-.34313 0-.6463-.0744-.91364-.22048-.26871-.15021-.45475-.34589-.55948-.59118l-.71658.3762c.15021.34589.42581.62701.82407.83785.39963.21222.85163.31695 1.35323.31695.55121 0 .97841-.0978 1.28571-.29352.3073-.1943.46302-.46716.46302-.81993 0-.25081-.12953-.4644-.38861-.6463-.26045-.17639-.57051-.26459-.93706-.26459l-.68626-.01c-.0992 0-.18328-.0262-.25081-.0799-.0689-.0524-.10335-.11575-.10335-.18741 0-.0358.0207-.062.0634-.0841.0441-.0221.0978-.0331.16123-.0331h1.20716c.14469 0 .26872-.0344.37345-.10748.10611-.0689.15709-.14883.15709-.24529v-.70969h1.62471c.0951.0606.17502.14331.22876.24529.0551.10335.0827.21635.0827.33899 0 .11025-.0868.20947-.26045.29628-.17226.0868-.38447.13918-.63252.15572.04.45889.24667.84336.62287 1.1548.37759.31419.82269.46991 1.34083.46991.13643 0 .27423-.0193.41204-.0593.1378-.0386.26596-.0951.38309-.16674v.98805h.98117v-3.42304h1.05144v3.42304h.97979v-3.42304h.46715v-.76482zm-14.98479 2.322c-.0841.0937-.19154.1695-.31419.22186-.12678.0579-.26045.0854-.40376.0854-.12403 0-.22876-.0386-.31282-.11989-.0868-.0827-.12815-.1819-.12815-.29765v-1.44694h1.15892zm1.83279-1.18236c-.13504 0-.27836.0262-.42443.0799-.14745.0537-.29077.12953-.42581.23013v-.68488h2.05465v-.76482h-9.66694v.76482h.35278v.98667c-.0648.0496-.13505.0868-.2136.11162-.0799.0248-.15847.0386-.23702.0386h-.35416c-.0965-.0482-.18878-.0868-.27422-.113-.0854-.0262-.15572-.0372-.21498-.0372.20257-.062.3638-.17088.48507-.32384.12127-.15158.1819-.32521.1819-.51401 0-.28801-.15296-.54708-.46164-.77032-.3073-.22324-.65733-.33348-1.05007-.33348-.28249 0-.54294.0344-.78134.10748-.2384.073-.4396.17639-.60221.31006l.57878.61185c.1378-.0965.27423-.16812.41203-.22049.13781-.0551.26734-.0813.39274-.0813.1447 0 .26872.0358.37345.10749.10473.073.15572.16398.15572.26871 0 .15159-.0882.28939-.26596.41893-.17639.12678-.36931.19155-.5774.19155h-.13642l.13642.61322h.22738c.20808 0 .38585.0565.5333.16537.14607.113.22186.24942.22186.41203 0 .16123-.0689.29903-.20257.41479-.13367.113-.2949.1695-.48369.1695-.32935 0-.63941-.13781-.93707-.41341-.29076-.27699-.51262-.63528-.66421-1.07625l-.66697.34313c.1695.58015.46578 1.05696.88746 1.42903.42167.37069.88194.55535 1.38079.55535.45613 0 .84887-.15297 1.17547-.45476.32935-.30592.49058-.66835.49058-1.09416.11851-.011.21773-.0221.30041-.0331.0799-.0124.14745-.0248.19017-.0413v1.67431h.98392v-3.42304h1.09692v3.42304h.98254v-3.42304h1.07349v1.44694c0 .34037.13367.62149.40377.84749.26596.22324.60771.33211 1.01837.33211.0854 0 .18879-.0165.31005-.0482.12265-.0358.25632-.0813.4079-.14332v.98805h.98255v-1.75148c.14193-.14332.28938-.25632.43959-.33762.15158-.0813.28801-.12127.41065-.12127.0992 0 .18329.0317.25219.0923s.10335.13229.10335.21635c0 .15572-.0744.31557-.22738.47818-.14883.16261-.35553.30592-.61598.43546l.48782.64492c.38172-.15709.68351-.3762.90951-.65732s.339-.58153.339-.90124c0-.32659-.11713-.60496-.35278-.81993-.23702-.21773-.5333-.3266-.89573-.3266zm-6.47539-2.21313c.31419.18742.64905.28112 1.00596.28112.35829 0 .68351-.0992.97979-.2949.29214-.19706.52227-.48231.62976-.79099l-1.02113-.004c-.0648.12816-.19017.42168-.62011.42168-.42857 0-.61599-.30454-.68351-.43959h-1.02802c.15986.3955.42582.63941.73726.82682zm-11.21862 3.50987c-.10059.11851-.21773.20946-.35415.27836-.13918.0648-.27561.1006-.41204.1006-.17776 0-.33348-.0538-.46715-.16123-.13229-.10611-.20119-.22876-.20119-.36794 0-.13367.0661-.24942.19705-.34589.1323-.0992.28939-.14607.47129-.14607.13643 0 .27148.0276.40515.0909.13505.062.25493.14607.36104.25218zm-4.41248.0317c-.0537.0703-.12264.13367-.20532.19568l-.71658-.86954.0909-.0317.0841-.011c.14469 0 .29076.0441.43546.12816.14883.0868.28525.20946.40928.36656-.0138.0772-.0455.15158-.0978.22186zm-.70142.45062c-.0427.01-.0854.0124-.13504.0124-.18742 0-.36105-.0634-.51815-.19292-.15709-.1254-.23702-.26596-.23702-.41617 0-.0744.0248-.14056.073-.20119.051-.0634.11437-.11025.1943-.14332l.75379.91226c-.0455.011-.0896.022-.13092.0289zm6.93705-1.77905c-.17501 0-.34451.0262-.5085.0799-.16536.0537-.30454.12953-.42168.23013v-.68488h1.90859v-.76482h-6.18464c-.24116-.56775-.38861-1.05282-.69867-1.40146-.31005-.34727-.73173-.49885-.99907-.49885h-1.59991v.60496h1.07074c.24805 0 .65732.003.86403.12678.20533.12678.3514.35278.43408.5581 0 0-.29628-.28249-.70555-.38033-.21773-.051-.52917-.0717-.77033-.0717h-.89297v.60358h.98255c.22875 0 .45337.04.6711.11989.22048.0827.41203.19292.57602.33899h-2.22967v.76482h2.27652v.60909c-.11575-.1006-.25631-.17639-.42168-.22876-.1626-.0551-.33348-.0799-.50849-.0799-.42031 0-.77721.12264-1.07625.36656-.29766.24529-.44649.54157-.44649.89021 0 .38309.15297.70142.45614.9536.30454.2508.68902.37483 1.15204.37483.17225 0 .32935-.0193.47266-.0579.1447-.0386.26872-.0951.37207-.16674v.76205h.98255v-3.42304h3.33209v.56775c-.10335-.073-.21635-.12954-.339-.16812-.11988-.0386-.24667-.0579-.3762-.0579-.4203 0-.77721.11713-1.07625.34727-.29766.23151-.44786.50987-.44786.83233 0 .37483.1502.68351.44235.92604.2949.24254.66835.3638 1.12034.3638.13643 0 .26321-.0152.37759-.0455.11437-.0317.21497-.0772.29903-.13918v.7965h.98254v-1.8259c.12954-.13229.27699-.23702.44235-.30868.16261-.0744.3266-.10886.48783-.10886.0868 0 .15985.0344.22186.10886.062.0717.0937.16261.0937.26872 0 .15434-.0841.31281-.25632.4768-.17087.16123-.39825.2949-.68626.40101l.49196.68902c.41203-.17501.73863-.40377.97978-.68626.24392-.27975.36243-.57465.36243-.88057 0-.32384-.11576-.60358-.35278-.83509-.23426-.23151-.51814-.34727-.85438-.34727zm12.44782 3.09783.66835.56913.67523-.56913-.67523-.56913zm0 0" fill="#fff"/><path d="m-281.88258-179.54026-7.69497 6.80338 4.30637-9.30314-8.77672-5.07118 10.02936 1.07624 2.13596-15.99626 2.13596 15.99626 10.03212-1.07624-8.77811 5.07118 4.30637 9.30314zm0 0" fill="#191917"/><path d="m-281.88258-179.73594-7.26778 6.42579 4.06797-8.78913-8.29165-4.78868 9.48228 1.01424 2.00918-15.04818 2.01056 15.04818 9.48365-1.017-8.29303 4.79144 4.06797 8.78913zm0 0" fill="#e3300c"/><path d="m-279.87202-185.87372h-4.01974l-1.18511 3.77858 3.19429 2.3592 3.20118-2.36334zm0 0" fill="#0073bd" fill-rule="evenodd"/><path d="m-281.88534-180.54209c-1.42902 0-2.59209-1.16307-2.59209-2.59209 0-1.43041 1.16307-2.59209 2.59209-2.59209 1.42903 0 2.59209 1.16168 2.59209 2.59209 0 1.42902-1.16306 2.59209-2.59209 2.59209" fill="#191917" fill-rule="evenodd"/><path d="m-281.88534-180.68955c-1.3491 0-2.44601-1.09691-2.44601-2.44463 0-1.34773 1.09691-2.44602 2.44601-2.44602 1.34772 0 2.44464 1.09829 2.44464 2.44602 0 1.34772-1.09692 2.44463-2.44464 2.44463" fill="#fff" fill-rule="evenodd"/><path d="m-281.97491-184.81401c-.004.003-.006.006-.006.01 0 .008.004.0124.01.0165-.0248-.001-.0358-.0124-.0358-.0124s.008-.011.0317-.0138zm.0234 0c.006.003.0124.004.022.008 0 0-.007.0138-.0262.0165.004-.003.01-.008.01-.0152 0-.004-.003-.007-.006-.01zm-.0537.0317c.005.004.0248.008.04.008.0469 0 .0606-.0317.0661-.0345 0-.0331-.0207-.062-.0524-.0661-.0124-.003-.0317.003-.0413.008-.0124.006-.022.0193-.0262.0289.0152-.004.0331-.0234.0717-.0165.0179.004.04.0289.0276.0331-.011-.007-.0138-.011-.0221-.0124-.0317-.0124-.062.011-.0786.0248-.004 0-.007-.003-.01-.003.005.0138.011.0193.0248.0289zm.19844-.0317c-.003.003-.004.006-.004.01 0 .008.004.0124.01.0165-.022-.003-.0358-.0124-.0358-.0124s.01-.011.0303-.0138zm.0262 0h.003c.005.003.0124.003.0138.006.003.003.004.003.005.003 0 0-.007.0138-.0262.0179.004-.004.008-.008.008-.0165 0-.004-.001-.007-.004-.01zm-.12402.12815c.004.004.008 0 .0138 0 .0179 0 .0358.011.051.004.0275-.0124-.004-.051-.004-.0758 0-.0124.001-.0207.007-.0317 0 .001.0524.0289.0854-.004.003-.006.011-.006.0165-.011.001 0 .004-.003.004-.004.001-.003.003-.01.003-.01-.005 0-.007.01-.0138.004-.0207-.0138-.0345-.0193-.0579-.0165-.022 0-.04.0124-.04.0124-.008-.0413.0744-.0482.0951-.0207-.004-.011-.01-.0193-.0152-.0248-.0248-.022-.0799-.006-.0951.0138-.011.0138-.0124.0758-.011.0992 0 .0124.011.0179.01.0303 0 .01-.006.0193-.0152.0207-.0124.003-.04-.0124-.0331.0138zm1.14102 3.12264c-.0289-.0124-.0331-.0413-.0524-.0565-.003 0-.0124-.011-.0193-.0124-.006-.004-.0124-.007-.0179-.011-.0234-.011-.051-.0152-.0758-.0221-.01-.003-.0179-.003-.0276-.004-.011-.004-.0207-.011-.0317-.0165-.0372-.007-.0813-.004-.12127-.007-.062-.003-.11851-.0124-.17639-.0193-.0262-.004-.0565-.007-.0813-.0165-.008-.003-.0165-.008-.0248-.01-.0248-.006-.0413-.003-.0579.004-.008.003-.0165.01-.0221.01-.011-.001-.0193-.0179-.0358-.0138-.008.008-.0138.0207-.007.0303.003.004.0193.0179.0221.0179.0193.008.0303-.003.0427-.006.0469-.0124.0992.01.13918.0165.10611.0165.24529.01.339.04.0179.004.0358.007.051.0124.0441.0165.0744.0427.10886.0634.0207.0262.04.0455.0786.0551.0179.006.0469.006.0469-.0193.001-.0289-.0524-.0234-.0772-.0358zm.65043-.13229c.007.007.022.0248.0207.0372-.001.004-.007.01-.0138.01-.0179 0-.0152-.0427-.0441-.04-.003.001-.008.001-.011.008-.008.0248.0441.0331.0289.0717-.005.0152-.0234.0179-.0455.0179 0-.007.008-.011.008-.0193 0-.0248-.0344-.0482-.0551-.0276.001.0193.0234.0303.0152.051-.011.0124-.0413.0124-.051 0 .003-.001.0138.003.0193 0 .005-.001.007-.006.008-.01.003-.011-.008-.0138-.0193-.0193-.008-.007-.0165-.0124-.0221-.0193.004-.0427-.0358-.051-.0785-.0551-.0717-.006-.15296-.0138-.21911-.0193.004-.0331-.0276-.0372-.0551-.0427-.0386-.008-.073-.01-.113-.0193-.0165-.003-.0427-.011-.0441-.0234-.001-.0152.0207-.0248.0317-.0331.0372-.0276.073-.0537.10611-.0827.0758.0138.12678.0441.18603.0785.0152.008.0317.0138.0455.0207.0165.01.0331.0165.0482.0221.0772.0221.18466.001.24116.0386.0193.0124.0372.0303.0372.0579-.0138 0-.0138-.0331-.0289-.0345-.008-.001-.0152.008-.0152.0138 0 .008.011.0124.0193.0179zm-.20257.0758c-.0152-.007-.0331-.007-.051-.008-.0275-.003-.0565-.01-.0854-.0138-.0289-.006-.0579-.007-.0827-.0138.0179-.01.0482-.007.0758-.007.051-.003.13505 0 .15434.0289.001.004.003.0138.003.0193-.003 0-.008-.004-.0138-.006zm-.23978.006c.007.0234.0289.0303.0248.0648-.007.011-.0165.0207-.0276.0289.004-.0138-.001-.0303-.01-.0386-.006 0-.003.011-.007.011-.011-.003-.007-.0165-.0234-.0152-.003.0152.011.0221.0124.0358.004.0344-.0207.0524-.0524.0496.003-.0152.0248-.01.0289-.0221.003-.0165-.0124-.0276-.022-.0344-.008 0-.001.008-.01.011-.011-.004-.0179-.0234-.0358-.0165.008.01.0179.0276.007.0413-.0138.008-.0303.011-.0482.011-.0275-.001-.0551-.007-.0689-.0234-.008-.011-.0124-.0248-.0207-.0331-.01-.01-.0276-.01-.0386-.0207-.007-.004-.01-.0138-.0152-.0193-.01-.008-.0262-.0138-.0427-.0207-.0386-.0179-.0978-.0331-.14607-.0372-.0854-.008-.17777-.006-.26045-.0207-.0303-.006-.0593-.0124-.0868-.0165-.0303-.003-.0606.007-.0868.004-.0248-.004-.0386-.0221-.0455-.0441-.008-.0606-.0193-.12127-.0455-.16537-.008-.0193-.011-.0427-.005-.0786.001-.0193.01-.0427.0138-.0675.003-.0248.003-.0524.007-.0772.006-.0427.0207-.0827.04-.10473.011.003.0193.0193.0262.0262.0207.0138.0469.0193.0661.0372.008.006.0152.0165.0207.0248.0248.0427.0152.11025.0345.16261.003.007.01.0124.008.0207-.0275.004-.062.003-.0785.0207.0124.0207.0441.004.0703.004s.0579.008.0758.0207c.0138.01.0275.0317.0455.0386.0276.011.0717.0124.10749.0165.0413.003.0813.007.11437.0138.0551.011.10474.0317.15297.0524.008.004.0165.007.0234.011.007.004.0124.011.0193.0138.0165.011.0386.01.0593.0124.0207.004.0386.011.0565.0165.0152.008.0386.0124.0579.0248.007.003.0124.011.0207.0138.0138.003.0275-.001.0386.003.011.003.0262.011.0372.0193.0234.0138.0427.0317.0427.0661-.01-.007-.0124-.0358-.0345-.0207zm-.85714.0868c-.0262-.0152-.0537-.0372-.0882-.0455-.011-.003-.022-.006-.0331-.003-.003.0138.0165.011.0289.0124.0262.004.0469.0152.0648.0262.008.007.0248.0152.0193.0262-.01.0193-.0455-.0138-.0455-.0207-.01-.003-.0138-.0124-.0248-.0165-.008-.003-.0179 0-.0262-.003-.011 0-.0179-.006-.0262-.008-.004.0289.0427.0165.0565.0289.004.003-.003.007-.003.0124.005.006.01.008.0138.011 0-.001-.004-.006-.001-.011.0331-.007.0345.0303.008.0386-.0276.007-.0455-.0138-.0648-.0193-.0317-.006-.0593.004-.0854-.003-.0248-.006-.0331-.0207-.0496-.0358-.0179-.0179-.04-.0193-.0662-.0276.0124-.0234.0193-.0524.04-.0703.011-.011.062-.0344.0882-.0193.0138.006.0358.01.0455.0151.008.004.0165.01.022.0152.008.007.0138.0193.022.0221.0179.006.0496.01.0703.0179.006.001.0165.003.0165.011 0 .004-.001.01-.008.01-.005.001-.008-.007-.0124-.01-.0165-.011-.0482-.01-.0689-.0179.003.004.011.006.0138.008.0331.007.0593.0221.0841.0358.007.003.0207.0124.01.0193zm-.35966-.23289c.003-.15021.008-.30593.0138-.45889 0 0 .001 0 .003-.003.001 0 .001.003.001.003.005.006.005.0165.005.0248.008.0606.0165.12815.0248.19017.01.0717.0303.13918.0331.21359-.0165.008-.0358.0124-.051.0179-.01.004-.0165.0138-.0303.0124zm.14056-.0772c-.011.006-.0248.006-.0386.008-.0262-.11162-.051-.23978-.0634-.36794-.0138-.13091-.0248-.27009-.0193-.39825.008-.003.0165-.008.0289-.004.0179.008.011.0689.0124.0951.003.10197.01.20808.0165.30179.005.0675.0138.13367.0248.19017.008.0634.0303.11851.0386.17501zm-.0345-.40377c-.0124-.10748-.01-.22875-.004-.33899.001-.0152.001-.0303.003-.0441.004-.0262.005-.0524.022-.0703.008-.007.0207-.0152.0303-.0221.011-.01.0193-.0179.0276-.0276.004-.0165.0152-.0358.0165-.0482 0-.004.001 0 .001.001.01.23014-.0234.39137-.0455.60083-.006.0565-.011.11437-.0165.17363-.022-.0648-.0248-.14469-.0345-.22462zm-.16123-.38722c-.0165.0193-.0344.04-.0524.0606-.008.01-.0165.0221-.0276.0289.0565-.16123.12954-.3142.17914-.48507.0234-.0854.0482-.17088.0717-.26045.0234-.0923.0345-.18879.0372-.29766 0-.001 0-.003.003-.003.001 0 .001 0 .001.001.0179.01.0234.0303.0276.0482.022.0565.0331.12264.0455.18741.007.0441.0138.0896.0152.13781.001.0207.006.0455.006.0703.001.0248.004.0537.001.0744-.004.0262-.0248.0551-.0386.0786-.0124.0262-.0289.0482-.0441.0703-.0276.0469-.062.0909-.0951.13091-.0441.0524-.0841.10749-.12954.1571zm.0358.14745c.003.1254-.007.24529-.01.36931-.003.14607-.0152.28801-.022.4203-.0276-.004-.0537-.0152-.0841-.0207-.0317-.006-.0661-.006-.0965-.007.0469-.15985.10335-.32108.1378-.49471.0221-.10473.0441-.20809.0661-.3142 0 0 .001-.003.003-.003.008-.003.005.0386.005.0496zm-.22738.87229c.011-.0262.0221-.0496.0331-.0799h.003c-.007.0262-.0193.0565-.0289.0813-.004.001-.004-.003-.007-.001zm.13642.0703c-.01.0262-.008.0538-.0358.0703-.005.003-.0138.001-.0165.004-.0234.0152-.022.0799-.0661.0524-.01-.0234.0193-.0289.0303-.0152 0-.0138-.0152-.0152-.0303-.0152.003-.0276.0221-.0372.0386-.051-.001-.007 0-.011 0-.0138-.0124-.011-.0234.004-.022.0179-.004.007-.0193.0179-.0262.0289-.008.0138-.008.0289-.0234.0138-.003-.0372.0289-.0386.0358-.0648 0-.004-.003-.004-.004-.007-.0248-.003-.0165.0289-.0345.0331-.008.0152-.011.0358-.0207.0496-.004.003-.008-.001-.0124-.003.003-.003-.003-.007 0-.011.001-.004.005-.004.008-.007-.0124-.0234.007-.0482.022-.0606-.0124-.0234-.0331.0207-.0372.0317-.003.01 0 .0207-.008.0207-.01-.001-.001-.0372.003-.0469.006-.0138.0165-.0165.0193-.0262-.007 0-.0193.008-.0234.0152-.004.004-.006.0138-.011.0138-.0124 0-.001-.0193.001-.022.011-.0124.0165-.0179.0345-.0207.007-.006.01-.0165.0179-.0207.0165-.011.062-.006.0854-.004.0152.001.0317.004.0455.007.0165.001.033.001.04.011-.001.01-.007.0124-.01.0193zm-.16536.11162c.003 0 .004.003.008.003-.003-.011.0124-.0124.0165-.006.008.0262-.0345.0276-.0248.003zm-.12539-.11299c-.0565.001-.11162.003-.16398.008-.0138-.0551-.0276-.10886-.04-.16536.0593-.003.12265.01.17639.0152.007.008.011.0165.0165.0262.011.011.0276.0179.04.0289.008.008.0138.0165.0234.0262.005.003.011.007.0152.01.008.007.0179.0152.0289.0221-.01.01-.0234.0152-.0303.0248-.0152.008-.0427.003-.0661.004zm-.15021.0648c-.001-.003-.003-.007-.003-.01.006-.003.0124-.006.0179-.008.0496-.011.11163-.0165.1695-.0179.004 0 .0152-.004.0165.003-.0634.0152-.13643.0207-.2012.0331zm-.0841.0248c-.0331.01-.0799.0193-.11988.0207-.0207 0-.0386-.001-.0593-.001-.0317-.003-.0579-.006-.0799-.0152-.0124-.007-.0221-.0138-.0317-.0221-.0138-.0138-.0248-.0303-.0179-.0592 0-.001.003-.003.003-.004.001-.006 0-.011 0-.0138.004-.006.01-.0124.01-.0221-.003-.011-.008-.022-.0152-.0289-.0193-.001-.0303.006-.04.0179-.003.003-.003.004-.004.007 0 0-.011.01-.0124.01-.003.003-.0165.006-.0221.006-.0124.001-.0303-.003-.0386-.007-.0289-.0124-.0455-.0386-.0634-.0634-.003-.0193-.011-.0289-.008-.0524 0-.0138.004-.0331.011-.0441.003-.008.022-.0276.0138-.0455-.003-.007-.0124-.008-.0179-.0138-.006-.006-.004-.0124-.01-.0193-.01-.004-.0193 0-.0234.007-.01.0165-.0152.0482-.0207.0634.001.0303-.001.0661.006.0937.003.0193.0165.0276.0193.0455.0124.0165.0276.0345.0441.0482.001.001.003.001.004.003.011.0165.0455.0289.0537.0455.0165.007.0289.0138.0455.0221.0138.0179.0468.0165.062.0317.0152.004.0345.0138.0482.0221.062.0207.11437.051.17363.0717.0234.0138.0455.0276.0675.0386.01.0138.0234.0234.0317.0358.001 0 0 0-.001 0-.0124-.004-.0221-.0221-.0386-.0138.004.0138.0124.0234.0248.0303 0 .003.001.003 0 .007.005-.004.008.007.0138.01-.011.003-.0179-.0165-.0289-.0193-.003-.007-.01-.0165-.0193-.0165-.004.006.005.008.003.0152-.003-.004-.007-.008-.011-.0124-.01.01.007.0193.011.0276-.007-.003-.0138-.0138-.0234-.0179-.006.004 0 .01 0 .0152-.006 0-.006-.01-.01-.008-.006.008 0 .0165.004.0234.003.008.008.0152.01.0248.006.0331-.011.0744.006.10335-.0207-.0221-.007-.0675-.01-.0951-.003-.0152-.0124-.04-.0207-.0537-.0455-.0662-.12815-.10749-.21635-.1323-.0179-.011-.0496-.0165-.073-.0234-.0551-.0152-.11024-.04-.16536-.062-.0276-.0179-.0455-.04-.0675-.062-.011-.0138-.0262-.0331-.0358-.051-.008-.0124-.0138-.0289-.0179-.0482-.004-.0165-.006-.0289-.006-.0455-.003-.0193-.005-.0386-.004-.0606.004-.0427.0234-.0965.0427-.12815.0179-.0303.04-.0551.0606-.0799.0234-.0248.0482-.0496.0717-.0786.0234-.0372.04-.073.073-.10059.0165-.0138.0358-.0221.0579-.0345.0565-.0303.12816-.0551.20257-.062.0372.13643.0717.27699.10749.41341.005.0193.011.0413.01.0606-.022-.007-.0827-.0248-.10335-.0124-.0234.0124.004.0427.0262.0427-.004.003-.01.003-.0138.004-.008.006-.0193.0138-.0317.0165-.004.003-.008.003-.0124.004-.0138.006-.0207.0152-.0276.0289-.008.0165.005.0345.0276.0234.0124-.007.0303-.0262.0413-.0317.0317-.0124.073-.0234.11162-.0193.0152.0551.0303.11437.0427.17501-.0331.006-.0799.008-.11713 0-.0262-.008-.0413-.01-.0593.006.004.006.007.008.007.0165 0 .0248-.0358.0165-.04-.003-.007.0303.0303.0538.0579.0565.004.001.01.001.0152 0 .0496-.001.10749-.0165.14883-.0276.003.0165-.0193.0138-.0303.0193zm-.0344.19154c.0138.0124.0193.0331.0276.0496-.0124-.0138-.0179-.0331-.0276-.0496zm-.18054-1.42764c-.0289-.12403-.0565-.24943-.091-.37345-.008-.0303-.0138-.062-.022-.0923-.01-.0317-.0179-.062-.0234-.0937-.04-.18879-.091-.37482-.13505-.56086-.001 0-.001-.003-.001-.004.0275.011.0661.007.0909.0152-.004.0248.004.0482.0358.0455.005.011.007.0234.0124.0331.022.006.04-.004.0524-.01.11024.0455.20946.1006.34175.12265.006.13091-.011.27009-.0138.41341 0 .0482-.008.0937-.01.14193-.003.091-.007.18191-.0179.27148-.01.0648-.0165.13229-.022.1943-.003.0248-.003.0468-.004.073-.001.0207-.008.0496.001.0661.004.006.01.011.0152.0138.0289.0207.0772.0358.10611.0579 0 .008.001.0165 0 .0248-.0772.008-.14745.0221-.22187.0331-.0303-.12403-.0648-.24667-.0937-.37207zm-.29214-1.19476c.003-.008.0193-.011.0207-.0234 0-.011-.008-.0165-.01-.0276.011.003.0165.0165.0262.0276.005.006.0248.0248.0331.0248.011.003.0317-.006.0248-.0193-.011-.006-.0248-.003-.0358-.011-.0165-.011-.0234-.0317-.0317-.051.005-.0124-.001-.0276-.011-.0317.003-.0207-.003-.0345-.0124-.0441 0-.001 0-.004 0-.004h.003c.0193.01.04.0193.0579.0303.0358.022.0606.0496.0675.1006.0138.008.0303.0138.04.0262-.006.0317-.0165.0579-.04.073-.0152-.008-.0289-.0207-.0427-.0303-.0165.0152-.0689.007-.0813-.006-.004-.004-.011-.0248-.008-.0345zm-.0441-.0207c-.011.003-.0138.0124-.0179.022-.0165-.004-.0289-.0358-.006-.0469.0193-.008.0772.004.0772.0179.001.0207-.0386.006-.0537.007zm-.051-.0551c.0165-.0179.0537-.008.073 0 .01.003.0276.008.0207.0221-.0262.003-.0606-.011-.0827.01-.01-.004-.0138-.0193-.011-.0317zm-.005-.0482c.005-.006.0207-.006.0289-.007.0289-.003.04.01.0592.0207.011.008.0289.011.0276.0207 0 .007-.008.008-.0207.007-.0193-.003-.0413-.0179-.0634-.0124-.011.001-.0193.008-.0262.008-.0138-.003-.0124-.0289-.006-.0372zm.10335.003c-.0124.003-.0207-.011-.0303-.0152-.0248-.011-.0551-.001-.0772.004-.0138-.0675.11988-.0372.10748.011zm-.091-.10198c.007 0 .0124.008.0165.0138.01.01.0276.0207.0372.0331-.0152-.007-.0372 0-.0482-.008-.01-.004-.022-.0372-.005-.0386zm.28526.21222c0-.006.008-.004.011-.003.01.0234-.003.051-.0124.073-.008.0165-.0248.0455-.0413.0537-.011.006-.0275.006-.0275-.008 0-.006.0165-.0165.022-.0234.022-.0248.0386-.0579.0482-.0923zm.0372.0179c.003-.003.011-.006.0138 0-.01.004-.0234.0248-.01.0331-.006.007-.0152.011-.0124.0262-.008.004-.0152.0138-.0124.0221-.004.006-.008.01-.0124.0152 0 .004.001.004.001.008-.0152.003-.0152.0193-.0289.0234-.004-.001-.004-.01-.006-.0138.0331-.0262.0496-.0703.0661-.11438zm.0193.0868c.001-.006.001-.0124.004-.0179.003-.004.008-.011.01-.0179.003-.008 0-.0179.01-.0234.0634.0124.13229.0234.19154.0427.0138.004.0276.008.0386.0138.011.006.0193.0193.0303.0248.01.001.0152.006.022-.001.0221-.0207-.008-.0524-.0345-.0524 0-.011.003-.0193.006-.0276.004-.003.0207-.001.0289 0 .0386.008.0827.0234.10749.04-.008.0482-.0358.0758-.0496.11851-.0165.0165-.0207.0469-.0468.0524-.0152.001-.0482-.007-.062-.01-.022-.006-.0427-.01-.0593-.0138-.0193-.006-.0358-.0152-.0537-.0193-.0551-.0207-.11162-.0482-.16399-.0689.001-.0179.0152-.0262.022-.04zm.28938-.10473c.0579.004.10612.0193.14332.0441-.001.003-.001.007-.004.01-.0441-.0179-.0896-.0331-.14331-.0427 0-.007.001-.01.004-.011zm.0303-.13643c.01-.0593.0193-.11851.0345-.1819.0124-.0537.022-.10059.0441-.14193.007-.0138.0152-.0207.0262-.0317.004-.004.004-.01.008-.0138.0138-.011.0289-.0193.0441-.0344.003 0 .007-.003.007 0 .0152-.0124.04-.0152.0579-.0248h.004c.003.0455.006.0882.0152.12815.006.0234.0138.0427.0165.0648-.0317.0221-.0634.0455-.0937.0675-.008-.01-.004-.0248-.0165-.0303-.006.011-.0138.0179-.0138.0303 0 .008.01.0248.008.0331-.001.011.003.0634 0 .0841-.001.011-.011.0648-.0124.0909-.001.0138-.003.0234-.001.0358-.04-.0124-.0965-.0262-.1378-.0317.004-.0152.004-.0331.01-.0441zm.26045-.20395c.01.0138.0413.0138.0303.0386-.004.008-.0372.0413-.051.0441-.005.001-.011 0-.0138 0 0-.0152.011-.0193.0152-.0303.008-.011.005-.0303-.001-.0386.004-.008.0152-.01.0207-.0138zm.0496-.26182v.003c.007.0441.011.0882.0193.12816.004.0138.011.0262.011.0413-.0124.011-.0262.0207-.0441.0276-.022-.0482-.0289-.113-.0289-.18328.0138-.004.0289-.01.0427-.0165zm-.01-.37069c.004-.0193.007-.0358.0138-.051.005-.008.01-.0152.0152-.0234.0303-.0358.0758-.0524.11989-.0703.001-.01.001-.0207.004-.0303.004.01.003.0221.006.0303.0386.007.0606.0262.0868.0482.0276.0193.051.0482.0593.0868.004.0193.003.0331.008.0496.007.0138.0193.0262.0179.0482-.001.0772-.0441.16674-.0965.2067-.0207.0179-.0565.0372-.0965.0317-.0303-.006-.0648-.0262-.0854-.0455-.0179-.0165-.0358-.0427-.0496-.0689-.0221-.0358-.0358-.0758-.0317-.12264.001-.0358.022-.0551.0289-.0896zm.29352.40514c.004-.0179.005-.0248.011-.0386.0124.004.0248.01.0372.0165-.0124.0124-.0345.0138-.0482.0221zm-.0303-.0813c0-.007.004-.0165.004-.0289 0-.01-.003-.0179.001-.0248-.001.0303.0138.0565.0124.0841-.001.0276-.0152.0496-.0248.0703-.0634.0289-.11851.062-.17363.0965-.0165-.0303-.0276-.0744-.0358-.11988-.003-.0179-.007-.0372-.004-.0524 0-.0124.008-.0221.008-.0372.011.008.0193.0179.0303.0289.0207.0165.0469.04.0854.04.0124 0 .0248-.004.0372-.007.0152 0 .0303.007.0441-.003.008-.004.0179-.0193.0179-.0331 0-.006-.003-.01-.003-.0138zm.11851.14332c-.0179.0248-.0469.0427-.073.0634-.0524.04-.10611.0772-.15847.12127-.0124.01-.0234.0207-.0345.0331-.0179.0179-.0413.0303-.0331.0606.0193-.001.0317-.0193.0441-.0303.0427-.0386.0827-.0772.1254-.11576.004-.003.007-.006.01-.008v.003c.0248-.022.0524-.0413.0799-.0634.0152-.0124.0289-.0248.0469-.0344.003-.001.005-.004.008-.006h-.003c.0152-.01.0303-.0193.0441-.0262.007-.003.0165-.006.0275-.008.0165-.004.0427-.0234.0565-.004-.0152.0138-.0358.0193-.0524.0303-.0262.0193-.0482.0331-.073.0524-.007.008-.0152.0138-.0234.0207-.0331.0289-.0606.0579-.0882.091-.0165.0193-.0303.0358-.0441.0551-.0303.0372-.0565.0758-.0827.11438-.0524.0785-.10336.15848-.1695.22462-.0179.0165-.0703.0413-.0786-.003.011-.001.0234-.001.0317-.006.022-.011.0386-.0331.0537-.0524.01-.0124.0248-.0276.0179-.0413-.0179-.001-.0262.0193-.0358.0303-.0179.008-.0276.0193-.0524.0193-.0482 0-.073-.0276-.0717-.0827 0-.0138-.003-.073.003-.0882.008-.0207.0262-.0386.0455-.0537.0358-.0262.062-.0468.0965-.0717.011-.007.0193-.0179.0303-.0262.0207-.0152.0455-.0289.0661-.0441.0537-.0345.10886-.0661.16674-.0951v.003c.0248-.0138.051-.0248.0758-.0386h-.004c.0165-.008.0317-.0165.0482-.0234zm-.007.68626v-.0221c0-.006-.001-.0138-.001-.022 0-.004 0-.008.001-.0124-.001-.003.001 0 .001-.003.003 0 .003.001.004.001.001.0124.004.0289.004.0441 0 .01 0 .0179-.004.0262-.004-.001-.006-.008-.006-.0124zm-.28663 1.16582c-.0124.0276-.0289.051-.0427.0758-.0124.0262-.0317.0482-.0496.0675-.0358.0413-.0717.0854-.10611.12816-.0303.0372-.062.0744-.0896.11575-.004.004-.007.0138-.0152.0138-.006-.0193-.006-.0413-.008-.0634-.007-.0648-.008-.14056-.007-.20808.001-.0496.0179-.0799.0358-.11713.005-.0124.01-.0248.0152-.0358.0248-.0579.051-.11989.0799-.1695.0221-.0455.051-.0841.0758-.1254.0524-.0799.10611-.15986.15159-.24805.0358-.0661.0648-.13229.0992-.19982.0207-.0441.0455-.0896.0661-.13229.0179-.0344.04-.0675.0648-.0896.001-.003.003-.004.007-.003.011.001.003.0358.003.0441-.003.011-.01.0358-.011.0427-.0358.14332-.0799.27699-.12678.41066-.007.0262-.0207.0537-.0289.0785-.008.0262-.0152.0565-.0262.0799-.006.01-.0138.0207-.0193.0303-.007.011-.0138.0221-.0179.0331-.0124.0221-.0262.0441-.0331.0661-.011.0124-.0193.0248-.0262.0372-.0152.0248-.0317.0496-.04.0827-.004.0138-.011.0386.001.0441.0152.006.0303-.0234.0386-.0331.011-.0179.0179-.0331.0262-.0469.051-.0951.0923-.20946.13229-.31281.0413-.10887.0758-.22049.10749-.33625.007-.0289.0165-.0579.0234-.0882.003-.008 0-.0221.011-.0262 0 .0358-.007.0689-.011.10473-.006.0317-.0138.0648-.0221.0951-.0165.0634-.0331.12678-.0496.18742-.0358.12126-.0772.23564-.12954.34175-.0124.0262-.022.0537-.0386.0799-.0124.0248-.0262.0496-.04.0758zm-.27014.58154c.006-.0179.0179-.0358.0276-.0537.01-.0193.0207-.0358.0317-.0524.0317-.051.0648-.0992.10198-.14883.0124-.0165.0248-.0303.0345-.0469.0165-.0248.0358-.0482.0551-.0717.005-.007.01-.0179.0179-.0234.008.011-.001.0262-.003.0358-.0138.062-.0248.11851-.0482.17501-.001.004-.0317.0538-.0138.0634.011.003.0248-.0289.0276-.0372.0193-.0469.0358-.0896.051-.14194.0152-.0496.0303-.0978.0496-.1447.008-.0165.0124-.0331.0207-.0469.006-.007.0165-.0124.0207-.0207.001 0 .001 0 .001.001.001.0234-.006.0565-.011.0909-.008.0469-.0179.0909-.0275.13642-.0124.0551-.0262.10611-.04.1571-.007.0262-.0138.051-.0221.0744-.0248.0689-.0524.14332-.0786.21636-.004.011-.008.022-.0138.0345-.008.0179-.011.0372-.0262.0413-.008.003-.0248-.003-.0372-.004-.0427-.007-.0799-.0276-.11024-.0496-.005-.0234-.008-.051-.011-.0772-.003-.04-.011-.0758.003-.10749zm-.0786-.30455c.004.0579.006.11576.008.17639-.0482-.008-.10198-.0152-.14883-.001-.006.003-.011.007-.0152.011 0 .0193.01.0331.0193.0427.008.001.0179.003.0248.007.0165-.003.0331-.01.0551-.004.007.001.0152.01.022.0124.011.004.0207.006.0262.01.0165.0124.0248.0331.0386.0441.01.0372.0152.0937.0207.1378.007.0386.0138.0744.0248.10749-.007-.003-.0152-.004-.0234-.004-.0248-.003-.0524-.001-.0758-.006-.0179-.003-.0413-.003-.0648-.004-.0413-.16399-.0827-.33211-.12403-.49747.0179-.01.0427-.0152.0661-.0179.0386-.006.0786-.011.11713-.0165.007-.001.0193-.001.0289.003zm.27837-1.40008c-.0165.007-.0138-.0138-.0179-.0331-.003-.0193-.0138-.0441.008-.0427.007.0207.01.051.01.0758zm.003-.10749c-.008.008-.0248.0179-.0427.008.003-.0138.0179-.0165.0262-.0221.01-.007.0179-.0165.0275-.0207.0234-.003.0386-.0138.0537-.0234.004 0 .004.001.006.001-.0165.0221-.0469.04-.0703.0565zm.0565.0965c-.008-.0193-.007-.0441.003-.0634.01-.0165.0372-.0344.0648-.0358.0413-.004.0813.01.0951.0358.0138.0386 0 .0813-.0317.0978-.0427.0248-.11575.003-.13091-.0344zm-.11713.64217c-.0234.006-.0289.0317-.04.051-.0179.04-.0358.0772-.0524.12264-.0372.0909-.0744.19155-.11025.28663-.003.008-.004.0207-.0138.0276-.005-.011-.004-.0276-.004-.0413-.001-.073-.001-.1502.003-.22048.003-.0276.007-.0524.008-.0799.001-.0221-.001-.0427-.001-.0606.001-.0165.007-.0331.011-.051.004-.0165.008-.0331.0124-.0469.001-.008.005-.0152.01-.0234.0221-.0689.0593-.12816.0965-.18328.0345-.0496.0717-.0951.10887-.13643.0496-.0565.10198-.10473.16123-.14745.0345-.0248.0703-.0524.0978-.0827.01-.011.0165-.0248.0289-.0317.001.0138-.007.0276-.011.0358-.0193.0289-.0427.0579-.0634.0854-.0414.0551-.0854.11024-.12265.17363-.0179.0317-.0358.0634-.0537.0951-.0551.0923-.10336.19155-.15848.28664-.0179.0317-.0345.0661-.0455.10197.011-.001.0138-.0124.0193-.0221.0758-.1254.14883-.25631.226-.38034.0413-.0661.0841-.12953.13505-.19154.0372-.0441.0675-.091.0978-.1447.011-.0165.0207-.0358.0317-.0496.011-.01.0193.0207.0165.0386-.001.008-.01.022-.0138.0331-.0165.0331-.0262.0675-.0427.0992-.022.0427-.0455.0841-.0634.12402-.0413.0882-.0896.16537-.13367.24391-.0234.04-.0455.0799-.0675.11989-.062.11163-.12402.22049-.18465.33349-.005.008-.01.0234-.0207.0234.003-.0124.007-.0262.0138-.0372.0248-.0579.0524-.11989.0813-.17777.0179-.04.0331-.073.0441-.12126.004-.0179.0138-.04 0-.0524zm.31833-.79651c.0193-.01.0344-.011.0469-.0179h.004v.004c0 .004-.006.007-.008.011-.0138.0207-.0165.0537-.0358.0634-.0124.008-.0275.003-.0455.006-.0317-.0317-.10473-.0331-.14332-.011-.0124.006-.0248.0193-.0455.0138.004-.0152.0193-.0221.0317-.0303.0248-.0138.0469-.0289.0744-.0427.0138-.006.0289-.0138.0441-.01.001.0207.011.0358.0413.0289.004-.001.011-.004.0193-.008v.001c.006-.001.011-.006.0165-.008zm-.35416.17226c.001-.0317-.001-.0593 0-.0868.001 0 .001 0 .001.001-.001.0262.005.0606-.001.0854zm-.12823-.0165c.001-.01 0-.0207.003-.0289.004-.0193.0138-.0372.0221-.0524.007.0124.005.0331.007.0524.004.0262.008.0579.011.0841.001.0221 0 .0413-.008.0538-.01.0165-.0179.0331-.0276.0482-.007-.0496-.0124-.10473-.007-.1571zm.0248.1819c.006-.0138.0124-.0262.0193-.04.0152-.0317.0289-.0537.0482-.0785.011-.0138.0207-.0276.0331-.04.0345.007.0758.011.11575.0124.011.001.0276 0 .0372.003.011.003.0234.0165.0372.0193.0165.006.0372.003.0565.006-.0138.0248-.0386.0413-.0593.0606-.0193.0179-.04.0372-.0579.0579-.0372.0413-.0758.0799-.11025.12678-.0345.0441-.0675.0882-.1006.13367-.0248.0345-.0441.073-.0675.11024-.006.011-.011.0262-.0221.0345-.003-.0744.008-.14745.0179-.21773.004-.0303.0165-.0634.0248-.0951.01-.0303.0165-.0648.0275-.0923zm-.12402.74276c-.001.0593-.006.11851-.007.17915 0 .0248-.001.0482-.003.0717-.001.0234 0 .0455-.005.0661-.008-.004-.0138-.01-.0303-.007.0152-.11575.0276-.23151.0414-.34864.001 0 .001.001.003.001.005.011.001.0248.001.0372zm.0234-.0661c-.011-.001-.022-.004-.0345-.007.001-.13505 0-.26321.007-.37896.003-.0317.003-.0634.003-.0951.001-.0303.003-.0593.004-.0882.003-.0703.003-.13918.007-.21498.0179-.008.0303-.022.0455-.0317.001 0 .001.001.001.001.011.0331.003.073.005.10748.003.0372.01.0758.005.10887-.001.0138-.007.0276-.01.0386-.003.0124-.004.0262-.011.0345.001.0165-.005.0358-.01.0551 0 .006.001.011 0 .0138 0 .003-.003.007-.003.008-.0179.1254-.008.28801-.011.44786zm.83095-1.52687c.005.01.007.0179.011.0276.0124.0441.0193.0909.0262.13919.006.022.01.0469.0138.0689.005.0234.011.0455.0152.0675-.01 0-.0193.003-.0262.006-.0469.007-.11162.007-.16536.0234 0-.007 0-.01 0-.01 0-.003 0-.004-.001-.01-.003-.0179-.003-.0165-.003-.0303 0-.0124-.001-.0317-.007-.0289-.001-.0165-.0221-.0482-.0248-.0234-.001.008 0 .0165 0 .022.004.0386.003.0372.004.0799.001.0165.004.0896-.001.10474-.008.001-.0165.003-.0248.001-.011.006-.0234.01-.0344.0124-.0152.004-.0317.008-.0524.007-.0179-.003-.0358-.008-.051-.0138-.0124-.007-.0262-.0179-.04-.0207-.04-.0138-.0427.0276-.0882.0193.0152-.04.04-.0717.062-.10611.0289-.0496.062-.0923.0978-.13505v.001c.0152-.0179.0289-.0358.0441-.0524.0193-.0221.0386-.0427.0593-.0634.008-.006.0138-.0152.0262-.0165-.007.0372-.0234.0634-.0496.0854-.008.008-.0152.0179-.022.022-.007.006-.0193.008-.0207.0179v.006c-.001.0193.0234.0234.0386.0152.0165-.011.0303-.0413.0427-.0634.0372-.0661.0854-.13918.14194-.17639.0124-.01.0248.0138.0289.0234zm.0841.36243c-.011.003-.0248.003-.0386.006-.003-.01-.004-.0207-.007-.0317.008-.004.0207-.01.0317-.007.001.0138.007.0234.0138.0331zm.008.0179c.003.003.01.001.01.007 0 .008-.0358.0138-.0427.0165-.0496.0138-.10335.0386-.14055.0606-.0124.008-.0179.0193-.0317.0138.004-.008.011-.0152.0165-.0193.007-.006.0179-.01.0248-.0138.0331-.0152.0661-.0331.10473-.0469.0179-.006.0413-.01.0579-.0179zm.0138.34313c.0331.0896.0565.18328.0827.28388.004.0138.0138.0372.01.0496-.003.0152-.0455.0276-.0634.0289-.011.001-.0276.001-.0331-.003-.007-.004-.0138-.0276-.0193-.04-.0317-.0661-.0992-.26734-.12678-.339-.011-.0289-.007-.051-.0138-.0785-.003-.0165 0-.0345-.001-.0882.0344-.0152.0758-.0248.12264-.0248.005.0276.007.0289.0124.0565.001.0179.003.0193.004.0372l.004.04c.001.01.003.0207.006.0303.003.0152.011.0289.0165.0469zm.11714.33762h.004c.01.01-.006.0262-.0138.0331-.0234.0165-.0717.0289-.10886.0289-.0152 0-.0414-.001-.0317-.0221.0579.0138.13091.003.1502-.04zm.011.0372c.011-.003.0221.01.0221.0179-.001.0138-.0165.008-.0317.0124-.007.001-.011.011-.0207.0138-.003.001-.01-.001-.0138.001-.007 0-.0124.006-.0193.008-.005 0-.011-.003-.0165 0-.008 0-.011.006-.0179.01-.0138-.007-.0193.004-.0289.007-.0138.003-.0331-.011-.022-.0248.005-.01.0331-.008.0469-.01.011-.001.0317-.006.0482-.011.0248-.008.04-.0234.0537-.0248zm.0276.0469c.0551.0138.10749.04.16261.0565.0345.01.0675.0193.0937.0358.007.004.011.008.0165.011.011.006.0193.01.0289.0152.004.003.011.001.008.008-.01.006-.0165-.006-.0234-.008-.0468-.0248-.0951-.0537-.15985-.062.007.01.0193.01.0303.011.0579.0151.10749.051.15434.0785.007.004.0193.008.0193.0193-.008.006-.0193-.001-.0248-.006-.0524-.0358-.10473-.0772-.18328-.0896-.006.0138.0152.0152.022.0165.0413.01.0703.0234.10335.0441.008.006.0193.0138.0289.0207.011.006.0248.01.0303.0207-.0165.0124-.04-.001-.0579-.011-.0152-.007-.0262-.0152-.0427-.0221-.0275-.011-.0634-.0193-.0992-.0262-.0179-.004-.0372-.004-.0537-.008-.0152-.003-.0289-.0152-.0455-.0152-.0138.0165.011.0152.0276.022.001.001.006.007.007.007.0207.006.051.004.0758.008.0165.003.0469.0124.0469.0207.001.0179-.062.004-.0799.004-.04-.003-.0661.003-.10335-.004-.0276-.004-.0565-.011-.0717-.0289-.005-.007-.01-.0179-.01-.022 0-.008.003-.0193 0-.0303-.003-.01-.01-.0124-.005-.0207.001-.007.005-.001.0152-.006.004 0 .008-.004.011-.006.005-.001.0124.001.0179 0 .01-.001.011-.0152.0262-.011.011-.01.0207-.0165.0344-.0234zm.24805.0689c.008-.006.0221.004.0358.01.011.004.0234.007.0317.011.008.007.0331.0345.0386.0455.007.0152.003.0331-.007.0482-.0165.0124-.0358.0207-.0537.0303-.007.004-.0138.004-.0193.008-.011.006-.0165.0193-.0276.0193-.001-.01.007-.0165.01-.0234.007-.006.011-.0138.0165-.0193.022-.006.0675-.0124.0703-.0345 0-.011-.011-.0152-.0165-.0262-.004-.004-.005-.0124-.008-.0152-.008-.01-.0248-.0165-.0372-.0248-.007-.004-.0138-.008-.0193-.0124-.005-.003-.0152-.008-.0152-.0152.001 0 .001 0 .001-.001zm.10611.0221c.0234-.003.0276.0221.0469.0289.0138.004.0317-.001.0469.003s.0193.0165.0289.0289c.003.004.0138.011.011.0165-.001.007-.0124.007-.0179.008-.0165.008-.0344.0248-.0496.0372-.0152.011-.0358.0248-.0606.0289-.0124.001-.0276-.003-.0413-.003-.0124 0-.0262.008-.0372.001.008-.011.0248-.011.0372-.0179.022-.01.0648-.0276.062-.0675-.003-.0207-.0221-.04-.0262-.062zm.15296.10749c.0248-.001.0372.0138.0482.0289.0331.0496.04.12953.0634.1943.003.0138.01.0276.0138.0413.0124.0441.01.0965.01.14745-.001.0524-.004.10749-.004.16123.003.0854.0207.16674.0193.25907 0 .011.003.0248-.004.0345-.007-.001-.007-.0124-.008-.0179-.007-.0193-.0165-.0413-.0193-.0648-.001-.0165.001-.0358.003-.0524 0-.0537-.003-.1006-.022-.14056-.004-.008-.0165-.0234-.0179-.0303 0-.007.007-.0152.008-.0234.0124-.0565-.0303-.0978-.0289-.15434 0-.0221.004-.0427.003-.0634-.003-.0634-.0248-.11024-.0537-.14883.011-.0152.0303-.0276.0372-.051.006-.0207.006-.0524-.001-.073-.003-.011-.01-.0289-.0193-.0358-.0234-.0165-.0593-.003-.0758.008-.003.003-.007.01-.011.0138-.007.006-.0165.007-.0248.0124.0248-.0193.0482-.0441.0854-.0455zm-.16398 1.11483c.0138-.0234.0234-.0579.0207-.0965-.001-.0331-.0124-.062-.007-.0951.007-.0317.0276-.0661.0441-.0965.01-.0179.0248-.0455.0276-.0717.003-.0152 0-.0331-.003-.0455-.006-.0179-.0179-.0317-.0207-.0469 0-.0152.008-.0289.0152-.04.007-.01.0179-.0165.0234-.0262.003-.004.004-.01.007-.0152.005-.0138.0124-.0289.0165-.0469.003 0 .003-.004.004-.004 0 0 0 .003.003.003.004.0345-.0152.0785-.004.113.001.006.006.0124.008.0179.004.006.005.011.01.0179.01.0193.0275.0303.0331.0551.004.0165.004.0303 0 .0427-.003.008-.008.0152-.011.0303 0 .0207.01.0372.003.0565-.003.0152-.0165.0234-.0207.0427-.005.0193.001.0441 0 .062 0 .011-.004.0248-.008.0386-.005.0331-.007.0648-.0289.0813-.007.006-.0138.008-.0207.0124-.007.004-.011.0124-.022.0138-.007-.008-.003-.0207 0-.0276.0138-.0386.0634-.0896.0248-.13229-.001.0234 0 .0537-.011.073-.007.01-.0207.0193-.0248.0289-.003.003-.006.008-.007.0138-.007.0221-.001.0482-.0124.073-.0124.0289-.0593.0413-.0978.0262.0221-.0124.0469-.0331.0593-.0579zm-.19431-.26734c-.003.011-.0152.0193-.011.0344-.0207-.0262-.004-.0579-.004-.0978-.003-.0331-.0386-.0606-.0207-.0992.01.007.0138.0165.0179.0317.003.006.007.01.008.0138.001.007.001.0124.004.0193.004.01.011.0179.0138.0234.001.0138-.0124.0276-.0124.0441 0 .008.007.022.004.0303zm-.0992.14883c.003-.0248.0138-.0469.0165-.0717.001-.0179.001-.0344 0-.0537-.005-.0524-.051-.0965-.0372-.15848.01-.003 0 .0152.008.0165.01.001.011-.006.0165-.007.0165-.0537-.0345-.0882-.0165-.14332.01.008.0152.0193.0289.0248.004.0152.0124.0303.0138.0469 0 .0124-.007.022-.007.0344 0 .0317.0193.0469.0317.0717.004.0469-.005.0965.0124.1378.008.0234.0234.0372.0372.0551.004.006.008.0138.011.0193.0165.0469.007.0992-.0207.11989-.011.008-.0248.0124-.0331.0221-.007.008-.008.0207-.0165.0262-.006-.007 0-.0289-.003-.0413-.001-.008-.007-.0193-.011-.0262-.0138-.0207-.0331-.04-.0317-.073zm-.0165.0606c0-.003.004-.003.005-.003.0152.0221.0262.0482.0248.0813-.0138-.001-.0262-.003-.0372-.004.003-.022.01-.051.007-.0744zm-.0358-.10473c-.011-.0331.011-.0772.008-.11713-.001-.0262-.01-.051-.0193-.0717-.0152-.0331-.0372-.0606-.0413-.0978-.004-.051.0303-.0786.0413-.12127.007-.0165.007-.0345.011-.0551 0-.001 0-.003 0-.003.008-.001.007.007.007.0179.003.0152.007.0234.011.0358.004.006.006.0124.007.0165.001.0138-.007.0303-.008.0441-.003.0193.006.0413.006.0551 0 .0124-.004.0234-.004.0358-.005.0248-.011.0537-.007.0813.001.0138.008.0303.0124.0455.008.0276.0193.0537.0165.0909-.001.0289-.0179.0565-.0179.0868-.007-.0165-.0165-.0317-.022-.0441zm-.11162-.0455c.001-.0138.001-.0317-.001-.0441 0-.006-.007-.0138-.004-.0193 0-.007.005-.01.007-.0179.0138-.0413-.0234-.0717-.0413-.0965-.0317-.0441-.051-.0896-.04-.1695 0-.001.003-.003.003-.004.0193.0207.0317.0482.0524.0648-.003.0386-.004.0799.0138.10887.007.0138.0165.0248.0248.0386.008.0138.0221.0289.0248.0413.004.022-.01.04-.0165.0565-.0165.0441-.008.10748.0124.13504.01.0124.0345.0221.0331.0386 0 .0165-.0193.0207-.0276.0344-.0207-.0138-.0317-.0331-.0441-.0579-.007-.0152-.0138-.0358-.0138-.051.003-.0193.0165-.0372.0179-.0579zm.0372-.91226c-.006.008-.008.022-.007.0317-.0124.0124-.0193.0276-.0248.0427-.0331.004-.0524.0221-.0648.051-.006.0138-.004.0303-.003.0468.001.007.004.0165.004.0248 0 .0179-.008.0496-.0165.0662-.008.0193-.0276.0358-.04.0551-.005.007-.01.0152-.0138.0207-.01.0289-.001.0689.008.0868.006.008.0165.0152.0193.022v.0248c.003.01.004.0193.004.0248 0 .0248-.01.0469-.0124.0675-.001.0138-.001.0289 0 .0427.005.051.0193.0896.0386.12678.004.008.011.0138.0138.0248-.0234-.011-.0482-.0276-.0606-.051-.0138-.0276-.0124-.0606-.0138-.10059-.003-.0372-.0179-.0689-.0262-.10336-.004-.0207-.005-.0372-.007-.0565-.001-.0193.003-.0372.006-.0579.008-.0524.0179-.11163.0345-.16124.007-.0372.0262-.0606.0372-.0937.0303-.0524.0593-.10335.10473-.13781.011-.001.0152-.006.0248-.007.004.003-.003.006-.006.01zm.0331.14469c0-.006.001-.008.003-.0124.003 0 .003.001.001.001-.011.0289-.0207.0593-.0289.0923-.003-.006-.003-.0124 0-.0193.003-.0207.011-.0538.0248-.062zm-.12953.23151c.005-.0165.0179-.0289.0248-.0441.01-.0262.0193-.0565.0207-.0909v-.006c.001 0 .001 0 .003.003.0234.0799-.0248.15296-.0234.226 0 .0248.008.0482.0179.0689.005.0165.0165.0317.007.0565-.0179-.0138-.0262-.0317-.04-.0537-.005-.008-.011-.0193-.0138-.0248-.011-.0441-.008-.0978.004-.13504zm.0331-.2384c.011-.006.0179-.0152.0345-.0124-.0124.0276-.0193.0592-.0193.0923-.004-.004-.011-.006-.0165-.011-.0152-.0179-.011-.0537.001-.0689zm-.0703.19568h.004c.0179-.0358.0427-.0648.0524-.10749.004.001.005.004.008.004-.001.0786-.062.113-.0703.1819-.0124-.0152-.011-.051.001-.062v.003c.007 0-.001-.0193.004-.008.004-.003-.003-.006 0-.011zm.1323-.0262c0 .0207.001.0455-.004.0675-.007.0221-.0234.0372-.0262.0634-.001.004 0 .01 0 .0124-.001.006-.005.01-.007.0151-.003.0207.003.04.003.0662-.0193-.0317-.0207-.0799-.0124-.11851.007-.0289.0207-.0537.022-.0827.006-.0524-.001-.11438.008-.16399.008-.0289.0262-.0469.04-.0689.008-.003.0124-.0152.0234-.0138.001-.003-.006 0-.004-.003.0358-.0248.0854-.0524.14194-.0358-.0165.003-.0413.006-.0606.006-.0496.0193-.0937.0469-.11714.0965-.001.001-.001.001-.003.006-.005.011-.011.0386-.0124.0592-.006.0345.008.0634.008.0951zm.49058-.0772c.008.0565-.001.11162-.0207.15296-.0138.0276-.0317.051-.0496.0772.003.01.01.0303.001.04-.022-.003-.0386-.01-.0565-.0193.003.0289.0317.0317.0524.0427.001.008-.008.0179-.0124.0193-.007.001-.0317-.0179-.04-.0207-.004-.003-.007-.01-.011-.01 0 .0276.022.0358.0345.0482-.004.008-.0124.0207-.0207.0207-.022.003-.033-.0372-.04-.0565-.0138.006-.01.0262-.0152.04-.0345-.0124-.0469-.0482-.0441-.0868.008-.0317.0661-.0248.0758-.0579.001-.01-.001-.0207-.005-.0303-.004-.01-.006-.0193-.0138-.0207-.007.011.01.0262 0 .0386-.007.004-.0124 0-.0193 0-.0234-.003-.0427.008-.0648.006-.01-.001-.0207-.006-.0317-.006-.008 0-.0165.001-.0248-.004-.003-.0124.008-.0248-.005-.0303-.006.01-.0124.0221-.008.04.001.0124.0138.0262.0221.0317.0193.011.0482.011.0565.0276.004.01.004.0248.001.0331-.003.0331-.0303.0551-.0579.0634.004-.01.007-.04-.005-.0386-.008 0-.011.0221-.0179.0317-.01.0165-.0345.0303-.0482.004.0193-.0138.0386-.0221.0469-.0469-.008 0-.0262.006-.0413.0124-.0152.007-.0262.0165-.0262-.0124.0276-.003.0455-.0193.0579-.0386-.0165.006-.0372.0152-.0606.01-.003-.004.001-.01 0-.0124-.0372-.0455-.0661-.10611-.0675-.1819-.001-.0468.011-.0992.0276-.1378.007-.0165.0138-.0276.0207-.0386.008-.0152.0165-.0276.0331-.0344.0207-.008.0482-.0138.0758-.0124.0289.003.0482.0165.0717.0221.0303.008.051-.0138.0758-.0165.0358-.004.0661.007.0882.0248.008.004.0152.0165.0234.0248.022.0221.0372.0592.0441.10197zm-.0193.4644c.004.007.011.011.0152.0193.007.0165.007.0703-.008.0758.004-.0675-.0593-.0965-.0441-.16536.004-.0152.008-.0303.0152-.0455.011-.0331.0276-.0703.0165-.113 0-.003-.005-.01-.005-.0152 0-.007.0193-.0427.0262-.0496.01.004.01.0193.011.0262.008.0248.0234.0537.0248.0841.001.0276-.0124.0606-.0234.0813-.0152.0221-.0386.0386-.0358.0744.003.011.005.0193.008.0276zm.0248-.52504c-.001 0-.001-.003-.001-.006.001.003.003.003.004.003.0276.0138.0386.0496.0413.0868.001.0262-.011.0551-.0124.0786-.003.0276.004.0524.0152.0675.007.008.0234.0152.0234.0317s-.0138.0276-.0165.0413c-.01-.0124-.0124-.0303-.0165-.0455-.004-.0152-.01-.0331-.011-.0496s.003-.0276.004-.0441c.006-.0579-.0124-.11713-.0303-.16398zm.15296.34727c0 .0165-.007.0358-.0124.0482-.0124.0193-.0303.0248-.0372.0455-.008.0289.0124.0565.007.0827-.008 0-.0124-.011-.0152-.0179-.005-.006-.01-.0138-.0124-.022-.011-.0386.0165-.0937.004-.13643-.001-.008-.01-.0179-.011-.0234 0-.0207.0193-.0372.0165-.0634 0-.0165-.01-.0234-.0179-.0358-.008-.01-.0165-.0152-.0165-.0289 0-.0221.0152-.04.0193-.062.008-.0413 0-.0703-.0152-.10059.001-.001.003 0 .004 0 .0165.0152.0303.0358.0427.0592.01.0193.0179.0496.0193.0772 0 .0344-.011.0703-.007.10473.004.0262.0303.0427.0317.073zm-.0896-.4644c-.006-.001.007-.007.007-.011.0152-.0138.0386.003.0413.0165.0165.0469-.022.10335-.0579.10887-.0152.003-.04-.003-.0413-.0138.004-.006.008-.003.0124-.004.0289-.003.0524-.0179.0675-.0358.011-.0289-.003-.0606-.0289-.0606zm-.01.004c0 .008-.007.0138-.004.022 0 .006.007.01.007.0138 0 .006-.0234.0179-.0331.0221-.0248.008-.0592.001-.0689-.0124.0427-.006.0717-.0248.0992-.0455zm-.30042-.0717c0-.0124.0152-.008.0193-.0152.0276.003-.007.0262-.0193.0152zm.0276.0193c.0193-.004.0248-.0207.0427-.0207.0124.0193-.0138.0289-.0207.0413-.0138.007-.0262.0179-.0524.0152-.0165-.003-.0317-.0124-.0482-.0193-.0386-.0165-.0882-.006-.11989.007-.0303.0124-.051.0331-.073.0524.0179-.0565.0524-.0882.10611-.0965.0193-.001.0413.001.0606.004.0372.004.0744.0234.10473.0165zm-.52366-.84336c.001-.008.0138-.011.0234-.0124.0289-.008.0634-.0193.0965-.0193.003.003.006.008.006.0138v.003c-.0193.007-.0427.008-.0648.011-.0207.003-.0413.011-.0593.008 0-.001-.001-.003-.001-.004zm-.0813.0717c-.001-.006-.006-.008-.008-.0138.0165-.011.0303-.0331.0482-.04h.003c.004.0455.008.0565.008.0565.003.0138.004.0303.008.0441.004.0193.01.0648.0138.0841.005.0303.0248.10474.0345.1323.0317.0868.0703.16812.10748.24529-.003.011-.0124.0207-.01.0345.001.01.01.011.0138.0179-.003.0124-.01.0179-.007.0289.003.0234.0386.0317.0593.0331.007.01.011.0221.0165.0372.003.008.0152.0303.0138.0413-.001.008-.0193.0152-.0248.0221-.0152.0124-.0262.0289-.0386.0468-.0289.0414-.0565.0827-.0758.1323-.004.011-.007.0207-.0152.0289.007-.32246-.0193-.63114-.14745-.83233.001-.007.001-.0138.001-.0234h.001v-.0372c0-.0124 0-.0276-.003-.0386zm.0841 1.38217c-.006-.003 0-.011.001-.0165.004-.0165.008-.0386.0124-.0579 0-.0124 0-.0234.008-.0317.001 0 .001.001.003.001-.007.0207-.007.0482-.011.0689-.004.0138-.005.0276-.0138.0358zm.0331-.0634c0-.001.001-.001.001-.003h.004c.0234.0579.007.13229.0386.18052.0179.0331.0537.0441.0951.0579.0179.0138.006.0331.008.0524 0 .0124.01.0234.0124.0386 0 .0138-.003.0289-.007.0441-.008-.007-.008-.0221-.0124-.0317-.007-.0138-.0152-.0303-.0262-.0413-.0234-.0262-.0648-.0317-.0896-.0592-.0248-.0276-.0441-.0744-.0469-.12265-.001-.0413.0221-.0716.0221-.11575zm.24529.43408c-.004.006.003.0179-.004.0193-.01-.003-.0124-.0152-.0152-.0234-.01-.0234-.0152-.0537-.008-.0854.011-.0358.0248-.0717.0124-.11162-.006-.0165-.0193-.0331-.0303-.0524-.0138-.0262-.0289-.0482-.0234-.0909.004-.0289.0152-.062.0165-.0965.001-.0372-.001-.0717.01-.10197.004-.0138.0138-.0358.022-.0482.007-.003.01.0138.0124.022.008.0248.0152.0648.008.0965-.006.0207-.0165.0372-.0234.0565-.008.0317-.0138.0703-.007.10473.003.0152.01.0303.0152.0441.0124.0303.0372.0579.0413.0909.003.0152.001.0331-.001.0469-.001.0317-.0193.0537-.01.0896.004.0165.0179.0331.0262.0496.0179.0413.022.0923-.001.13505-.0165-.004-.0234-.0193-.0331-.0317.0262-.0303.0124-.0854-.007-.11299zm.30179-.0896c0-.006.004-.0152.004-.0221 0-.0138-.01-.0262-.007-.0427.001-.0152.0124-.0276.0152-.0441 0-.0179-.01-.0276-.01-.0469-.003-.008.004-.0248.004-.0358-.001-.006-.008-.051-.0165-.051-.011-.001-.0165.0262-.0165.04-.001.004-.003.0207-.001.0276.001.0138.011.0221.0152.0358.007.0248-.01.0482-.01.0675 0 .011.005.022.005.0303.003.0193-.01.0372-.01.0551.003.0151.0165.0276.0207.0427.0152.0565-.022.0978-.04.1323-.011.011-.0262.0138-.04.0289-.0124.0165-.0152.0496-.0496.0317.004-.0138.0207-.0152.0262-.0276.0179-.0138.0372-.0276.0441-.0524.008-.0331-.003-.0786-.003-.12127 0-.0207.008-.0344.0138-.0537.007-.0179.011-.0386.0138-.0551.004-.0386-.0193-.073-.0152-.10336.004-.0138.0193-.0248.0207-.0386 0-.0124-.006-.0193-.01-.0262-.0152.004-.0358 0-.0496.004-.003.008-.006.0152-.004.0248.001.008.01.0138.0124.0221.006.0138.008.0276.011.0441.003.0138.011.0276.011.0427.001.0427-.0289.0786-.0262.12678-.007-.006-.01-.0138-.011-.0193-.003-.007-.005-.0152-.003-.0221 0-.0138.011-.0221.0124-.0345.001-.01-.003-.0207-.001-.0331.003-.0165.0165-.0289.0165-.0413s-.01-.0193-.0138-.0276c0-.0276-.0152-.0413-.0138-.073 0-.003-.005-.006-.005-.011-.0152-.008-.0345-.001-.0469-.011-.0124-.011-.01-.0427-.0207-.0565.01-.007.022-.006.0358-.008.01-.004.022-.0124.0303-.0138.011-.001.0248.007.0358.007.011-.003.0179-.008.0262-.008.011 0 .0248.011.0358.0124.006.001.008-.001.011-.001.0179.003.0262.0124.0358.0207.0317-.01.0455-.0386.0593-.0661-.004.04-.0289.0648-.0234.10886.004.0372.0317.0606.04.0923.001.008.003.0207.004.0331.005.0565-.0221.0841-.04.12541-.011-.008-.0234-.0248-.0234-.0413-.001-.0234.0234-.0427.0276-.0661.006-.0372-.0124-.0703-.0207-.0965-.004-.0152-.007-.0289-.011-.0386-.004-.006-.01-.01-.0124-.0165-.006-.008-.004-.0221-.0152-.0276-.01.004-.011.011-.0124.0193 0 .0248.0289.0496.0372.0703.004.008.005.0207.01.0331.007.0138.0124.0289.01.0496-.005.022-.0303.0386-.033.062-.001.011.005.0344.011.0455.006.01.0138.0179.0193.0262.006.011.011.0276.0138.0455.004.0138.011.0331.011.0469.001.011-.003.0386-.004.0524-.004.0193-.0124.0303-.0234.0441-.011.0165-.0138.0207-.0331.0303-.0124.007-.0262.01-.0427.0152-.007.001-.0152.006-.0221.008-.0138.003-.0234-.01-.04-.008.006-.0427.0427-.0469.0634-.073.022-.0234.0386-.0634.0344-.10886-.003-.0262-.0179-.0496-.0179-.0799zm.36932.0813c-.001.007-.007.0152-.011.022-.008.022-.0193.04-.0331.0579-.0262.0331-.0703.0538-.10749.0827-.011.008-.0207.0207-.0317.0303-.01.011-.0234.0234-.0345.0289-.005.003-.011.007-.0193.003-.006-.011.008-.011.0138-.0124.005-.008.0152-.011.0193-.0179.003-.003.001-.011.004-.0165.011-.022.0372-.0344.0537-.0565.007-.01.0124-.0234.0138-.0358.003-.006.001-.0138.005-.0193.008-.0124.0234-.0165.0331-.0262.005-.007.0152-.0207.0207-.0276.004-.008.0138-.0331.0152-.0427.008-.0455-.0124-.0799-.004-.1378-.0179.0193-.01.062-.01.0923 0 .0427-.022.0703-.0455.0909.003-.0152-.006-.0289-.006-.0413.003-.0179.0165-.0289.0248-.0413.0138-.0248.003-.0551.007-.0841.003-.0138.01-.0262.0124-.0386.003-.0138.003-.0276 0-.0413-.001-.008-.008-.0179-.007-.0276 0-.011.01-.0221.008-.04 0-.011-.007-.022-.007-.0331-.001-.0138.003-.0358.0124-.0469.004-.003.008-.003.0124-.006.003-.004.008-.0165.0138-.0138.0138.006.0248.0551.0262.0744.004.0303.001.0675-.001.0896-.001.0193-.003.0427-.001.062.001.0413.0207.0703.0234.10749.003.0221.004.0455-.001.0648zm-2.47634-2.58796c.0124-.007.0276-.0138.0386-.0234-.004.0138-.0207.0234-.0372.0276 0-.001-.001-.001-.001-.004zm-.0289.17915c-.008-.0303-.01-.0689-.0165-.0965.007.0165.0138.0386.0193.0593.004.022.01.0455.007.0648-.007-.006-.008-.0179-.01-.0276zm-.0441-.17088c.003-.008.0138-.011.0193-.0138.003.004-.005.006-.007.01.006.0207.006.0455.0221.0606-.008 0-.011.006-.0179.006 0-.011-.0193-.0496-.0165-.062zm-.008-.0634c-.0165-.0303-.0345-.0606-.0524-.0882.007-.0262.0124-.062.0152-.0978.006 0 .003.007.004.0138.008.0248.0289.0551.004.0648.008.0413.0262.0772.0358.11989-.005-.003-.004-.008-.007-.0124zm-.0234.12127c-.0207.003-.0455.001-.062-.004-.011-.006-.0207-.0138-.0317-.022-.0221-.0413-.0138-.113-.011-.16674.007.0221.003.0648.005.0965.001.0193.004.0413.011.0551.007.0179.0317.0303.0537.0345.01.003.022 0 .0331-.003.007-.001.0165-.007.0193.001 0 .007-.011.007-.0179.008zm3.02341 2.76848c-.01-.003-.0207-.006-.0303-.01-.0207-.004-.0482-.004-.0703-.004-.0207-.003-.0413-.003-.0648-.008-.0221-.004-.0441-.006-.0648-.0124-.0165-.006-.0345-.0193-.051-.0289-.0593-.0303-.12127-.0592-.18604-.0841.0138-.022.0289-.0386.04-.0593.0138-.0276.0165-.062.0221-.0992.004-.022.011-.0468.0124-.0661.004-.0455.001-.0868-.003-.12815-.0124-.12816.001-.25356-.006-.37345-.003-.0496-.0138-.10198-.0303-.14745-.0152-.0469-.0262-.0978-.0427-.13781-.005-.0138-.0165-.0344-.0248-.0441-.008-.011-.0248-.0193-.0303-.0303-.001-.006.001-.01-.001-.0179-.006-.0165-.0262-.0221-.0386-.0317-.01-.007-.0165-.0152-.0248-.0207-.008-.007-.0179-.011-.0289-.0152-.008-.003-.0179-.003-.0262-.008-.008-.003-.011-.01-.0165-.0138-.0262-.0165-.0524-.008-.0882-.0165-.006 0-.01-.006-.0165-.006-.0441-.0138-.10611-.003-.15434-.0179-.0524-.0124-.0965-.0413-.13918-.0551.003-.0248-.0165-.0303-.0303-.0386.001-.0138.011-.0372-.006-.0469-.005 0-.011 0-.0193 0-.0234-.0841-.0372-.16674-.0592-.24667-.01-.04-.0289-.0785-.0358-.11713-.004-.0207-.005-.0413-.01-.0675-.001-.0207-.008-.0427-.01-.0661-.007-.0344-.005-.0648-.008-.0992.011-.0152.0372-.0317.0358-.0579.001-.004 0-.008-.001-.0124-.004-.0152-.0138-.0303-.022-.0441-.0207-.0482-.0289-.10611-.04-.16261-.011-.0593-.0193-.11437-.0386-.16398-.006-.0165-.0138-.0331-.0179-.0482 0-.001-.003-.001-.003-.003-.005-.0345-.0193-.0524-.051-.0579-.004-.011-.0124-.0193-.0193-.0317-.004-.007-.0179-.0248-.0179-.0317-.004-.0193.003-.0331-.004-.0455-.001-.008-.011-.011-.0124-.0179-.001-.007.003-.0138.001-.0207-.001-.01-.01-.011-.0138-.0207.0138-.0207 0-.0441-.011-.0565.011-.0165-.001-.0331-.01-.0441.0124-.0165-.003-.0358-.01-.0482.008-.0179 0-.0386-.011-.0482.011-.0262-.004-.0427-.007-.0579 0-.004.001-.011.001-.0152-.001-.008-.008-.0138-.011-.0193-.001-.008-.001-.0152-.004-.022-.001-.008-.004-.0179-.007-.0262-.007-.0496-.0138-.0799-.0441-.11438-.0469-.0524-.113-.0661-.16398-.0661h-.001c-.0565-.006-.11575.0193-.1626.0496-.0317.0207-.051.051-.062.0868-.001.003-.004.007-.007.01-.0124.0248-.0248.0524-.0248.0827-.007.0179-.0124.0372-.0179.0538-.003.01-.001.0193-.004.0303 0 .004-.004.01-.006.0152 0 .006.003.011.003.0179-.0165.011-.0138.0317-.011.0524-.0124.008-.0138.0358-.003.0441-.0165.0138-.0165.0468-.004.0634-.003.011-.01.0138-.01.0248 0 .01.007.0152.007.0234-.001.008-.01.0138-.0124.0221-.004.0165 0 .0248.006.0344-.01.0138-.022.0317-.0138.0537-.004.007-.01.01-.0124.0179-.003.004 0 .01-.003.0165-.003.0124-.0165.0207-.0248.0303-.007.008-.0138.0193-.0193.0303-.0179.0289-.0331.0634-.0427.0992-.0289.12678-.0551.26734-.0896.3886-.007.0248-.01.0496-.0234.0717-.0648-.0234-.14194-.0331-.2136-.0496-.003-.0124-.001-.0262-.011-.0331-.0124-.007-.0289.004-.0427.007-.006-.0165-.0344-.0248-.051-.0138-.008-.006-.0179-.008-.0248-.0152-.008-.0344-.0262-.062-.051-.0827-.011-.007-.0275-.0138-.0413-.0234-.022-.0124-.0413-.0234-.0661-.0317-.0152-.006-.0469-.0248-.0537-.0386-.001-.004-.001-.0124-.003-.0179-.0221-.0827-.0427-.16123-.0634-.24391-.003-.0138-.008-.0289-.007-.0386.001-.007.006-.008.007-.0152 0-.008-.004-.0221-.005-.0317-.01-.0344-.0207-.0648-.0248-.0992.0386-.006.0661-.0221.0896-.0427.0124-.0221.0275-.0386.0248-.0744-.008-.091-.0786-.1571-.0841-.25494-.001-.0207.006-.04-.004-.0579-.011.001-.0165.0165-.0193.0262-.0262.0758.0179.14332.0289.20947.006.0303-.001.0634-.0207.0813-.01.008-.0289.0262-.0413.0193-.011-.0276-.0165-.0717-.01-.10335-.011-.0152.01-.0317.005-.051-.001-.007-.0138-.0179-.0207-.0248-.005-.01-.0124-.0179-.0179-.0248-.0234-.0386-.0482-.0841-.0661-.12678-.007-.0138-.01-.0331-.0262-.0386-.01.008-.004.0193-.003.0276.006.0317.008.062.011.0978 0 .0248 0 .0689-.005.0965-.003.008-.01.0179-.008.0276.003.006.011.01.0138.0152.005.008.008.0152.0138.0248.0207.0276.0358.0593.0482.0923-.007.004-.0138.0138-.011.0234-.0496.0193-.0786-.0152-.0827-.0579-.004-.0386 0-.0813-.007-.12127-.006-.0427-.0221-.0854-.0455-.11299-.007-.008-.0193-.022-.0331-.0165.001.0124.01.0207.0152.0317.0248.0717.0138.19017.0152.27699.001.0386.0221.0675.0455.0813.0317.0193.0758.007.11575 0 .011.0303.0221.073.0303.10749.003.008.003.0165.006.0221.003.003.011.006.0138.011.006.006.007.0276.01.04.0248.0951.0496.19568.0717.28663 0 .008-.008.011-.011.0165-.005.0138-.003.0262-.003.0441 0 .008-.001.0152 0 .0207 0 .008.008.0152.011.0234.003.0179 0 .0344.0138.0441 0 .0193.011.0372.0207.0482.008.008.0193.011.0234.0179.005.008.01.0331.0138.0469.003.0179.007.0358.011.0496.0248.0978.0455.19155.0717.28939.0813.32246.15985.64355.23702.96463.0152.0661.0358.12816.0441.19568-.0138.003-.0289.008-.0427.0138-.022.01-.0441.0193-.0675.0276-.0358.0165-.073.0358-.10197.0551-.006.004-.0124.007-.0179.011-.0841.0565-.14607.15296-.19982.24253-.008.0138-.0165.0276-.0248.04-.004.008-.005.0179-.01.0276-.004.008-.011.0152-.0138.0248-.0165.0386-.0303.0772-.0358.12403-.008.0579-.001.11162.0165.15571-.0248-.001-.0786.008-.0799.0317 0 .0138.0166.0262.0193.0344-.0124.006-.0221.007-.04.004-.0289-.003-.073-.007-.0992.004-.008.006-.0221.0152-.0193.0276.001.0221.0482.0276.0703.0276.01 0 .0179-.004.0248-.004.0193-.001.0413 0 .0579.006.008.004.008.007.0124.008.004.001.011-.001.0179 0 .005 0 .011.004.0179.004.0207.001.0441 0 .0606 0-.004.006-.01.011-.0165.0165.003.008 0 .0124.001.0248.011.0179.0248.0248.0469.0303.0427.011.0786-.01.11989-.006.0289.003.0593.0193.0965.0124-.0138.0152-.0234.0455-.011.0648.007.01.0179.01.0262.0165.0317.003.0648.004.0965.001.022-.001.062-.0138.0813 0 .007.004.011.0165.0179.0262.001.003.007.007.0138.011.003.003.008.01.011.0124.0138.008.0537.0152.062.0303.001.001-.004.004.001.006-.001.0358.001.0744.0179.1006.008.011.022.0165.0275.0289.0193.011.0372.0262.0593.04.0124.008.0289.0124.0441.0193.0138.008.0248.022.0358.0331.003 0 .003 0 .003-.001.001 0 .003 0 .003-.001-.007.003-.007-.0111-.007-.0179 0-.0193.008-.0386.0124-.0565.0248-.11713-.0427-.20257-.0965-.25631-.007-.008-.0165-.0124-.0193-.022.0276-.006.0441-.0193.0675-.0317.01.0413.0179.0854.0262.12953.004.0138.007.0317.0165.0372.011.006.0345-.004.0386-.01.011-.0152-.003-.0441-.007-.062-.007-.0317-.0124-.0551-.0207-.0868-.003-.0124-.0124-.0372-.008-.0469.004-.0138.0469-.0152.073-.0138.0138.001.0345.006.051.006.0207-.003.0386-.0179.062-.01.011.007.0152.0193.0276.022.0345.01.0772.008.113 0 .0165-.006.0331-.01.0496-.0152.0248-.007.0496-.007.0661-.0179.0165-.004.051-.01.0524-.0248 0-.008-.011-.007-.008-.0179.0138-.004.0275-.01.0427-.01.022-.001.0441.006.0634.006.011.001.0248-.006.0358-.003.0248.003.0496.0138.0772.01.0124-.003.0248-.008.0427-.01.0165-.003.0344.004.0524.006.022.001.0482-.001.073-.003.0331-.004.0675-.01.0909-.0221.006-.003.0165-.0138.0234-.0138.007-.001.0234.004.0358.007.0138 0 .0289.003.04.003.0138 0 .0372-.003.0386-.011.004-.008-.0124-.022-.0179-.0262-.0317-.0193-.0951-.0193-.13643-.0124-.01.003-.0234.01-.0303 0 .001-.011.0152-.008.0234-.0138.007-.004.01-.011.0165-.0152.0344.007.0758.007.113.001.0193.0138.0441.0165.073.0193.003.006-.001.0124.003.0179.0165.0124.0441.0152.0703.0152.0716.004.15158.0179.22048.022.0289.0234.0868.0179.1254.0303-.011.004-.0179.0124-.0262.0179-.051-.0124-.11162-.008-.1571.006-.0179.008-.0262.0289-.01.0427.0152.0152.051.0193.0827.0193s.0634.007.0923 0c.011-.001.0303-.01.0358-.0152.008-.004.01-.0138.01-.0221.0289 0 .113.004.11714-.0262.001-.01-.008-.0124-.01-.0193.0152.003.0179-.0179.0317-.0221h.0207c.008-.003.0207-.006.0275-.008.0124-.008.0152-.0179.0262-.0276.0179 0 .0345.006.0524-.003.0179-.007.0317-.0262.0524-.0303.0207-.006.0386.001.0593.006.0193.004.0413.011.062.011.0179.003.0469 0 .062-.01.011-.004.0193-.0152.0303-.0193.0193-.006.0441-.004.0565-.0207.001-.004.001-.0124.001-.0152.0372-.0152.0551-.0427.0496-.0951-.004-.0496-.0413-.0813-.0868-.0909zm-1.10518.33899c-.011.001-.022.008-.0303.007-.007 0-.0138-.006-.0234-.01-.0124-.004-.0303-.007-.0482-.008-.0207 0-.0827.008-.0524.0331.01.01.0358.0138.0524.0179-.008.008-.006.0193.003.0248.0193.0165.0772.0152.10749.0193.0207-.001.0537-.004.0799-.001.01.003.0262.011.0372.0124.0303.006.0537-.007.0703-.0165.0124-.01.0234-.0165.0179-.0331-.0234-.0179-.0606-.0221-.10197-.0248-.0124-.0317-.0758-.0303-.11162-.0207zm-.14332-.39687c.0124-.0124.0317-.0124.0441-.0221-.022-.0234-.0909-.0207-.0868.0262.004.0193.0469.0234.0427-.004zm.32797-.565c-.001.0138.0124.0276.0234.0276.0138.003.0303-.011.0262-.0262-.011-.006-.0372-.004-.0496-.001zm-.0965-.35415c.0165-.006.0372.008.0207.0179-.005.001-.01-.001-.0124-.003.003.0179.0289.0165.0413.008.003.003.007.003.005.008-.0234.008-.062 0-.0551-.0317zm.04-.0234c-.0289-.0152-.0593.006-.0841-.001-.005 0-.011-.008-.0152-.008 0 .0248.011.0358.0331.0386.011.0331.0455.0441.0923.0427.005.004.003.01.01.011.005 0 .0124-.01.0124-.0152 0-.007-.007-.0262-.011-.0303-.004-.0124-.0275-.0303-.0372-.0372zm.18742.0469c-.004 0-.006.006-.01.003-.001-.008.005-.006.008-.01 0-.0138.006-.0221.0193-.0221.01.006.01.0207 0 .0262.0179.006.0276-.011.0289-.0276.008-.001.01.003.0138.007-.005.0234-.0358.0358-.0606.0234zm.0744-.0524c-.0179.001-.0386-.0124-.0565-.01-.0138.001-.0303.0138-.04.0248-.007.0138-.0179.04-.0179.0565 0 .003.001.008.008.011.007.004.006-.01.01-.011.0372.003.0634.003.0827-.011.011-.008.0165-.0248.0221-.04.005-.01.0179-.0207.0138-.0345-.001 0-.001-.001-.004-.001-.006.004-.01.0138-.0179.0152zm-.15158-.004c-.011-.006-.0152-.0193-.0152-.0207-.006.0207-.0179.0234-.0289.0262-.01.003-.0152-.006-.0207-.006-.004.0289.0427.0207.0524.006.008.011.0413.0234.0441-.003-.011.006-.022.003-.0317-.003zm-.85025-.87505c-.01.01-.0152.01-.0234-.004-.008-.01-.0165-.0248-.0152-.0468.003-.0193.0179-.0358.0303-.0441.001 0 .001.001.003.001.0303.0193.0331.0661.006.0937zm-.0124-.1006c-.0276.003-.0482.0152-.0565.0331-.008.0124-.011.0358-.003.051.007.0165.0372.0386.0606.0386.0234.001.0537-.0179.0634-.0358.0207-.0469-.0165-.0896-.0648-.0868zm-.004-.85163v-.004c.004-.003.011 0 .0152.001.001.006-.0138.004-.0152.003zm.0648-.0386c-.004 0-.007.006-.011.006-.005 0-.0124-.004-.0179-.004-.008-.001-.0152.003-.0207.004-.0179-.0138-.0331.006-.0455.003-.01 0-.01-.007-.0165-.007-.005.004-.004.0152 0 .0193.006.003.0152-.001.0207.001.006.008.006.0248.0193.0303.008.004.0317.004.0414 0 .01-.006.0152-.0179.0179-.0303.005-.001.0124-.004.0248-.004.001-.0124-.003-.0179-.0124-.0179" fill="#191917"/><path d="m-281.88258-199.81396-1.80385 13.55438 1.80661-.96324zm0 0" fill="#ee7a00"/><path d="m-285.74109-184.39785-6.9646-2.271 7.36699 4.24022zm0 0" fill="#ee7a00"/><path d="m-271.06222-186.67161-8.38537.90262 1.44143 1.36425zm0 0" fill="#ee7a00"/><path d="m-279.46275-179.88477 4.42626 6.00136-3.61597-7.77627zm0 0" fill="#ee7a00"/><path d="m-288.73143-173.87652 6.4506-5.71611-2.01608-.2949zm0 0" fill="#ee7a00"/><path d="m-281.63178-179.7387 2.05604-.29628.82682-1.83141zm0 0" fill="#ee7a00"/><path d="m-285.01073-181.86363.82683 1.82728 2.05189.29765zm0 0" fill="#ee7a00"/><path d="m-284.09571-185.71249-1.46348 1.3739.40928 1.98851zm0 0" fill="#ee7a00"/><path d="m-279.66807-185.71249 1.46347 1.37252-.40927 1.98989zm0 0" fill="#ee7a00"/><path d="m-280.0553-186.02118-1.82452-.98805-1.82866.98805zm0 0" fill="#ee7a00"/></g></svg>