<svg width="164" height="58" viewBox="0 0 164 58" fill="none" xmlns="http://www.w3.org/2000/svg">
<path d="M129.008 35.5399C127.202 35.1621 125.788 34.8457 125.788 33.6769C125.788 32.6048 126.895 32.0512 129.11 32.0512C130.55 32.0512 131.828 32.2973 133.063 32.7103L133.966 29.1161C132.859 28.7031 131.283 28.29 129.102 28.29C124.68 28.29 121.724 30.5749 121.724 33.9581C121.724 37.7281 124.91 38.4838 127.458 39.0726C129.264 39.4856 130.806 39.8372 130.806 41.0762C130.806 42.4559 129.332 42.9129 127.585 42.9129C125.839 42.9129 124.57 42.3592 123.394 41.0499L120.949 44.1607C122.593 45.8216 124.868 46.6477 127.449 46.6477C131.836 46.6477 134.895 44.2662 134.895 40.8741C134.895 36.8669 131.606 36.1375 128.991 35.5487L129.008 35.5399Z" fill="#0058CB"/>
<path d="M146.779 28.2817C140.815 28.2817 136.956 32.0868 136.956 37.9659C136.956 43.01 140.372 46.6482 145.1 46.6482C147.315 46.6482 149.053 45.8221 150.297 44.6446V46.1297H153.918V30.0481C151.805 28.8705 149.428 28.2817 146.779 28.2817ZM149.965 42.0082C149.028 42.6673 147.75 43.0452 146.31 43.0452C143.056 43.0452 141.079 40.9713 141.079 37.6495C141.079 34.1256 143.124 32.0517 146.574 32.0517C147.852 32.0517 149.019 32.2626 149.956 32.6405V42.0082H149.965Z" fill="#0058CB"/>
<path d="M33.1028 12.7319C16.3089 14.3256 9.61774 20.0611 11.8393 25.4815L13.9198 30.4067C14.7132 27.0392 18.2924 22.042 32.2036 20.1332L34.531 19.818C35.6065 19.674 36.0208 18.7556 35.536 17.7291L33.1116 12.7319H33.1028Z" fill="#0058CB"/>
<path d="M32.7851 22.4023C17.4898 24.5273 14.1575 31.0101 15.6561 34.5216L17.913 39.87C17.913 35.1969 24.0487 31.7214 33.6226 29.8756C34.8744 29.6235 35.5268 28.7411 35.0419 27.6066L32.7851 22.4023Z" fill="#0058CB"/>
<path d="M20.999 38.0615C20.2055 38.8719 19.6501 40.0064 19.6501 41.0058C19.6501 43.9501 22.5946 45.895 29.7794 46.039L27.1435 40.7267C22.8414 41.0058 21.5632 39.5922 21.0078 38.0705L20.999 38.0615Z" fill="#0058CB"/>
<path d="M111.875 28.2818C109.899 28.2818 108.152 28.8706 106.917 30.013V22.0249H102.964V46.1209H106.917V33.0184C108.22 32.3242 109.43 32.0166 110.742 32.0166C112.991 32.0166 114.329 33.1238 114.329 34.9517V46.1209H118.282V34.8462C118.282 30.7336 115.905 28.273 111.875 28.273V28.2818Z" fill="#0058CB"/>
<path d="M90.4255 28.2817C85.1947 28.2817 81.2078 32.2274 81.2078 37.4825C81.2078 42.7376 85.1947 46.6833 90.4255 46.6833C95.6563 46.6833 99.6432 42.7376 99.6432 37.4825C99.6432 32.2274 95.6903 28.2817 90.4255 28.2817ZM90.4255 42.9046C87.9123 42.9046 85.3651 41.0416 85.3651 37.4737C85.3651 33.9059 87.9123 32.0078 90.4255 32.0078C92.9386 32.0078 95.5199 33.8708 95.5199 37.4737C95.5199 41.0767 92.9727 42.9046 90.4255 42.9046Z" fill="#0058CB"/>
<path d="M74.17 42.868C71.6228 42.868 68.9052 41.1719 68.9052 37.4371C68.9052 34.2911 71.0861 32.0766 74.2041 32.0766C75.9846 32.0766 77.0495 32.806 77.8247 33.4914L80.1334 30.5827C79.1281 29.37 76.8109 28.2627 74.1359 28.2627C68.7092 28.2627 64.7478 32.1732 64.7478 37.5601C64.7478 42.947 68.4707 46.6555 73.7611 46.6555C76.5809 46.6555 79.0941 45.5834 80.4316 43.9225L78.0888 41.2246C76.9813 42.3671 75.712 42.8504 74.17 42.8504V42.868Z" fill="#0058CB"/>
<path d="M61.562 28.8345H57.6091V46.12H61.562V28.8345Z" fill="#0058CB"/>
<path d="M59.586 26.9988C60.9175 26.9988 61.9969 25.8853 61.9969 24.5118C61.9969 23.1383 60.9175 22.0249 59.586 22.0249C58.2545 22.0249 57.175 23.1383 57.175 24.5118C57.175 25.8853 58.2545 26.9988 59.586 26.9988Z" fill="#0058CB"/>
<path d="M39.48 46.1196H43.7992V36.8573H54.0903V32.9819H43.7992V26.4438H54.7293V22.6123H39.48V46.1196Z" fill="#0058CB"/>
</svg>
