<svg height="143.946937" viewBox="0 0 221.74126 46.084999" width="694.700436" xmlns="http://www.w3.org/2000/svg"><g transform="matrix(1.25 0 0 -1.25 704.51625 853.02)"><path d="m-563.613 645.548h177.393v36.868h-177.393z" fill="#00836c"/><g fill="#fff"><path d="m-518.969 663.9839c0-10.26-8.313-18.576-18.575-18.576-10.256 0-18.572 8.316-18.572 18.576 0 10.252 8.316 18.572 18.572 18.572 10.262 0 18.575-8.32 18.575-18.572"/><path d="m-512.54 657.5699c-.0161.81231.0176 1.62137.054 2.42799-.006 3.07035.0121 6.14332-.009 9.21202-.0933.79735-.008 1.61529-.08 2.41099-.0314.58507-.0238 1.18226-.049 1.771-.0621.20738-.0355.4358-.079.658-.10426.31177.0945.34179.358.27.88899.004 1.76375-.0464 2.65497-.031.58341.0518 1.1891.007 1.77303.054.0183-.41802-.0597-.80835-.063-1.22-.0537-.62837-.0862-1.29155-.079-1.944-.0315-.52417-.0298-1.06095-.036-1.59099-.0114-1.53468-.0462-3.06674-.0407-4.60284-.0176-1.54851.0129-3.09759.0137-4.64617.0415-.93709.0123-1.88068.044-2.81799.013-.76365.0343-1.52719.079-2.28701.0317-.44367.0896-.87792.082-1.332-.34223.0252-.70262.0193-1.029.058-.80813.01-1.62256.0422-2.43099 0-.38015.0173-.72687-.0525-1.10901-.037-.31002-.13569-.21691.14352-.217.354.0488.23222.0412.48473.079.72.038.66645.0112 1.34523.074 2.008-.00063.1887-.003.3771.01.565z"/><path d="m-499.878 655.9249c.95618-.10085 1.91531-.1566 2.89764-.133 1.16898-.0111 2.33661.23598 3.35136.809.76567.43124 1.43818 1.07417 1.909 1.828.29645.4055.50561.85753.7 1.322.35443.94592.59382 1.97015.671 2.995.10982 1.00039.11129 2.0311.052 3.041-.0587.94442-.25169 1.87964-.594 2.761-.28246.65045-.62974 1.27469-1.129 1.791-.42125.48708-.95322.8826-1.531 1.184-.38002.16162-.77707.36612-1.197.451-1.3499.3842-2.77581.32918-4.16519.256-.32335-.0115-.64387-.0432-.96481-.057-.0641-4.16563-.0395-8.33701-.044-12.506.0436-1.24602.003-2.49646.044-3.742zm-4.452 1.44c.0446 1.95198.0527 3.91008.046 5.867.0637 1.18156-.033 2.36639 0 3.55276.0153 1.82104-.0604 3.63332-.074 5.44524-.0736.49768-.0171 1.02327-.078 1.52.0114.16035-.23343.70625.106.564.5983-.0927 1.22462-.17397 1.852-.178.6985-.058 1.39999-.0743 2.118-.066.58675.081 1.22183.0618 1.82.119.9067.0338 1.78648.12411 2.691.131.98926.0635 2.0104.009 2.991-.164.70812-.10299 1.40953-.32191 2.08194-.55361.70071-.27488 1.36167-.63992 1.96906-1.09939.78763-.6041 1.48255-1.34951 1.98558-2.19199.50872-.84709.86064-1.78795 1.0609-2.75908.17367-.63406.23865-1.28751.28552-1.94293.0688-.75486.0585-1.52802.008-2.28254-.0676-.5883-.0899-1.19327-.23116-1.77341-.10061-.51512-.22784-1.02987-.40977-1.51805-.31644-1.01213-.84512-1.947-1.503-2.778-.41829-.4646-.83484-.94062-1.351-1.306-.82705-.69745-1.81416-1.16995-2.828-1.535-.64443-.18589-1.28689-.38964-1.95781-.47219-1.48043-.27453-3.00331-.24193-4.49138-.15281-.67271.011-1.32659.0935-2.00681.093-.92369.0901-1.89342.16147-2.80919.039-.49241-.0452-.97692-.0996-1.45781-.199.0254.39368.11191.7748.109 1.17716.0284.82223.0529 1.63449.074 2.46384z"/><path d="m-478.422 655.9579c.64408-.0436 1.27896-.15113 1.947-.072.44036.0893.89563.17931 1.288.403.1892.0984.35846.22458.513.357.19036.13311.38268.35692.534.572.16577.1789.25666.45092.395.668.14081.35266.24451.74599.312 1.129.004.3951.0711.7658.061 1.16-.0987.25855.001.61086-.127.871-.0904.3897-.21412.77934-.465 1.104-.1153.19142-.2371.36746-.416.496-.1351.20105-.39841.31611-.581.475-.22561.064-.40267.23694-.645.259-.30419.0993-.62267.21699-.955.192-.44828.13851-.9679.0495-1.44547.076-.42105.11727-.47253-.13504-.41553-.49582 0-2.39806 0-4.79612 0-7.19418zm0 9.577c.68579-.002 1.39092-.0335 2.033.162.3237.10534.69333.21261.991.435.32354.18713.56966.43509.806.715.22967.30962.42346.68062.533 1.069.0908.23242.12838.4944.154.74716.0467.42402.0966.8571 0 1.26642-.0196.29987-.0851.58057-.234.83342-.15488.37962-.41582.65614-.724.918-.26084.23103-.57624.33576-.897.492-.79584.22534-1.67449.29676-2.498.162-.32039.0127-.0988-.45897-.164-.67357 0-2.04214 0-4.08429 0-6.12643zm-4.343-7.965c.0142 1.2891.0198 2.58032.0372 3.8683.0323 1.76974.005 3.54633.0138 5.3187-.0534.84011-.0119 1.69403-.038 2.53898-.008 1.04015-.0211 2.07328-.067 3.10602-.0355.45746-.0299.89845-.09 1.32975.0313.19199-.10724.5146.025.61125.8822-.0216 1.76768-.0322 2.649-.054 1.01517.0614 2.05101-.00043 3.07168.0404 1.02103-.002 2.06276.0747 3.06781-.0907.39333-.0697.80041-.10765 1.16951-.25876.46295-.0988.87783-.30565 1.302-.508.23374-.17134.53371-.29916.761-.508.35911-.26864.70229-.62328.958-1.031.23765-.36417.41167-.76813.498-1.199.0874-.49005.13391-1.00936.033-1.50658-.044-.47381-.17007-.94999-.403-1.36042-.19843-.4972-.55319-.92391-.929-1.321-.34213-.33552-.74797-.60069-1.13-.849-.37437-.21854-.80172-.3854-1.223-.535-.22099-.0539-.45457-.11043-.669-.178.25534-.0346.49937-.12363.75-.19.32492-.0739.60619-.25438.929-.349.46889-.25852.92911-.4975 1.32182-.84335.47454-.36953.86285-.84323 1.17918-1.35965.29875-.58295.53536-1.23095.59-1.903.1124-.90733.008-1.86587-.3071-2.7094-.17421-.50824-.4403-.97285-.7749-1.3936-.25395-.30467-.52082-.61674-.84601-.83862-.39053-.35495-.86035-.60395-1.32799-.84538-.57401-.2387-1.15519-.41281-1.76558-.525-.7555-.0928-1.50495-.15355-2.27222-.125-1.03298.0353-2.07665.0112-3.10644.058-.69676.00068-1.37317.0241-2.06276 0-.45188-.0607-.9422-.0266-1.40407-.058-.24151-.003-.0438.40882-.0839.59258.0397.42645.0713.84848.078 1.29742.0536.59098.0373 1.18679.066 1.778z"/><path d="m-464.489 657.5699c.0667 2.67639.0416 5.3561.047 8.0355.005 2.00638-.003 4.01518-.066 6.0155-.0498.37279-.008.7878-.051 1.16598.0117.34939-.0562.66572-.056 1.00402-.0362.172-.0445.39416-.035.552.53552-.028 1.07676-.0345 1.621-.029.47153-.0583.9968-.008 1.489-.025.4974.0597 1.01957-.002 1.51798.05.30164.0694.0746-.3035.14102-.47897-.0679-.42-.0565-.8506-.075-1.29603-.057-.48386-.003-.99469-.048-1.484-.0687-.45369.003-.94818-.038-1.41599-.0128-1.08446-.0375-2.16833-.048-3.25296.004-2.49664-.0203-4.99442.048-7.48603.0175-.57929-.006-1.16684.0269-1.74189.067-.56227-.001-1.16057.0701-1.72412-.0244-.49643.0726-.94675.071-1.43201.0624-.2556-.36379-.0446-.52456-.098-.35616.0212-.70996.0428-1.07644.031-.50135.0473-1.02224.006-1.531.02-.29052-.0533-.6493.0138-.93099-.049-.24546.0171-.52594-.0484-.72701-.008.0243.35558.042.69812.085 1.033.0217.55072.0592 1.08778.048 1.645.0466.30407.0402.64916.042.969z"/><path d="m-446.907 655.3409c.47304-.008.942.0401 1.401.098.20937.097.47713.0568.688.182.20924.0633.39175.1793.571.314.29385.16281.48235.44903.64939.71173.0852.18228.15752.3599.21289.5472.16833.50708.13049 1.07241.13172 1.61407-.0258.21708-.0549.4441-.129.63617-.0279.23491-.17113.41986-.247.63783-.1583.20739-.2979.46525-.533.607-.13286.15236-.38332.25268-.568.365-.32231.14149-.64929.21619-.991.289-.27492.0702-.58573.0575-.882.096-.20099.0108-.5128.10309-.41-.21304.002-1.62019-.0112-3.24534.04-4.85752.0156-.2605-.002-.54858.038-.77296.007-.0851-.0215-.19891.028-.25448zm3.525 10.356c.0228.37213-.0197.7613-.143 1.086-.0731.22113-.19777.43173-.339.611-.13335.14533-.2897.27755-.444.371-.1794.0949-.32209.1958-.525.24-.21481.0796-.45628.12056-.68817.172-.43047.0847-.88418.0799-1.33183.074-.0728-.25718-.0467-.56138-.054-.851-.0668-.19948-.042-.4519-.066-.68117-.0441-1.31073-.0414-2.63212-.04-3.94983.4247-.0111.84173.0278 1.257.053.25961.0711.5479.0518.794.158.24287.0592.42433.18381.613.361.11306.10808.21847.22715.327.379.24145.31685.33066.69646.46826 1.05903.0454.30722.17233.60443.17174.91797zm-1.294-3.473c.58672-.0409 1.18372-.0471 1.76235-.146.28913-.02.53481-.12648.81465-.178.18302-.0608.36872-.1169.54217-.19891.21694-.0818.41378-.20687.62783-.31109.14608-.15939.34464-.27317.48215-.42889.15755-.1621.27039-.34622.39585-.53811.0622-.14593.14506-.31251.1959-.46794.0715-.23894.138-.48949.1771-.74106.0787-.54013.0668-1.11233.016-1.66-.0708-.31901-.12244-.64819-.25163-.94546-.10824-.2259-.17445-.48735-.36237-.65754-.17987-.35436-.50592-.6074-.788-.875-.28309-.19651-.58311-.37364-.88817-.512-.21376-.0683-.40083-.2068-.62783-.223-.19014-.10219-.41713-.11212-.62308-.1816-.32265-.0324-.6397-.1452-.9744-.13963-1.25381-.0536-2.51442-.009-3.7709-.0238-.86852.005-1.75577-.009-2.61262.007.0288.29064.0613.56639.068.868.0613.4109.0124.85814.078 1.26535.036 1.37947.0173 2.76746.019 4.15265-.0438.53161.003 1.07917-.06 1.611.008.96847-.0282 1.92953-.05 2.89456.01.67422-.027 1.33979-.04 2.00817.003.94595-.0178 1.88961-.015 2.83527.78196-.0104 1.56253-.0594 2.34434-.0589.5776-.004 1.15108-.0349 1.72821-.0441.98829-.0264 1.99087.0377 2.96345-.12901.28422-.0749.6013-.0886.86984-.21705.35961-.0859.71613-.24746 1.02816-.43595.17285-.0561.32827-.21135.4865-.30627.24034-.16802.39107-.40074.6075-.59773.0664-.18485.21113-.33112.27-.523.10096-.16407.14208-.3579.19522-.52771.0808-.33933.0966-.72499.0858-1.09529-.051-.20184-.0278-.40774-.114-.59517-.0374-.22051-.14848-.43762-.26257-.64261-.10462-.24615-.27348-.43596-.44143-.63722-.0871-.13611-.24193-.22571-.345-.35-.19542-.10328-.37887-.28544-.58403-.36626-.15977-.1072-.35061-.22205-.55397-.26674-.159-.10495-.34667-.15651-.53772-.20488-.25377-.0699-.51786-.17117-.79028-.19312-.34575-.0922-.70694-.11989-1.065-.151v-.0382-.0338z"/><path d="m-430.276 660.0419c-.0766.28353-.1486.59381-.315.85-.0237.19604-.14904.33302-.179.525-.0624.17959-.11265.34742-.188.518-.10154.32396-.21989.6159-.309.928-.11534.26394-.18733.54275-.339.779-.0167.20568-.1918.32658-.188.543-.13623.25336-.23132.53109-.33.791-.0974.10117-.11045.48035-.21311.18856-.0548-.16165-.14209-.27085-.21589-.42256-.14499-.33107-.29005-.6625-.422-1.012-.1067-.15499-.10736-.36899-.212-.51-.0366-.21745-.15583-.38292-.195-.609-.13044-.22956-.21272-.50169-.303-.73283-.11643-.29704-.24132-.60136-.321-.91417-.0878-.15919-.12925-.35247-.189-.527-.008-.11855-.22372-.42578.0725-.355.40272-.0223.81885-.0568 1.25121-.04h2.59531zm6.044-5.97c-.68124.0153-1.34217-.0374-2.02-.03-.62691-.0234-1.26497-.0423-1.901-.046-.0763.23804-.13246.46529-.203.689-.0583.20305-.10584.35091-.159.541-.19214.43706-.33533.91439-.459 1.37681-.0844.3373-.21735.65668-.304.99419-.0656.21372-.13768.41033-.209.619-.0565.12066-.10296.29997-.19883.35-1.76605 0-3.53211 0-5.29817 0-.10281-.22689-.18877-.49426-.24924-.73604-.21354-.52484-.41748-1.0708-.58276-1.61596-.19867-.50285-.32062-1.04832-.53742-1.54049-.0652-.22732-.14615-.45257-.23358-.67751-.48123.0179-.95299.0528-1.441.046-.12516.0901-.54455-.0505-.538.077.0348.12578.11727.28994.175.433.17463.39917.34331.84618.51445 1.24959.15864.44438.37015.88994.53455 1.35441.22292.42138.34576.8818.547 1.316.19529.5025.41786.98697.62266 1.4783.10463.38788.30057.75857.43227 1.13187.15952.30157.21441.63807.39807.92683.17493.4387.31827.92672.52604 1.37171.17996.43917.33746.88635.55015 1.30328.12386.37582.25747.73937.40581 1.10501.2461.65714.55616 1.28861.77644 1.95595.10415.35124.28064.68511.37156 1.05305.16698.33493.29999.6923.44898 1.03352.0791.1021.25583-.0471.39885-.0275.40262-.0368.83083-.002 1.22717.053.47091-.22634.47755-1.24193.78947-1.74442.27617-.66206.57775-1.31676.7942-2.00476.18484-.43613.30971-.89616.54908-1.30151.23706-.67334.49936-1.33118.75655-1.99527.0763-.24472.26018-.43913.29652-.69789.14024-.35395.25905-.71698.40084-1.07374.15647-.40686.28882-.81489.48645-1.16331.1788-.44459.35267-.9136.52689-1.3761.11192-.29022.21283-.60947.36721-.88732.26393-.41812.32669-.91364.55679-1.35368.0952-.32158.21985-.62573.337-.898.0697-.16615.11634-.31896.221-.432.0963-.23424.18226-.50059.273-.728-.002-.0429.0784-.0716.05-.129z"/><path d="m-408.999 669.6379c-.0394-.38988-.0767-.77393-.102-1.16336-.0246-.51134-.0715-1.01721-.093-1.52816-.0531-.97006-.0735-1.93869-.067-2.91548-.0738-.79367-.0173-1.61612-.035-2.422.0812-.94441.00045-1.90683.069-2.8522.006-.85844.0784-1.70863.103-2.56168.002-.54918.0304-1.09693.065-1.63816-.02-.17486.0361-.45013 0-.56096-.38606.0192-.70464.0991-1.11072.076-.32871.0317-.57726-.0541-.87228-.076-.15652.1-.22929.30806-.393.42-.14575.15435-.24851.32791-.405.455-.0889.17878-.27241.26463-.363.435-.3747.41274-.76085.83865-1.12645 1.27469-.2107.23137-.42188.44282-.61118.68269-.2252.18997-.35111.45937-.58219.65196-.3495.36209-.6728.73601-1.00232 1.11444-.17284.12256-.26614.3259-.43086.44822-.15462.19668-.35874.36122-.493.586-.4052.33853-.71049.75025-1.07656 1.14646-.30154.25955-.55236.56962-.79544.86754-.17002.20863-.41353.35115-.55555.58229-.24183.19301-.39872.47362-.62907.6849-.38357.3169-.68881.72508-1.01553 1.09499-.19692.11337-.3158.31212-.47585.46382.003-2.44895-.0115-4.90149.0223-7.34728.0247-1.04509.0712-2.0906.0607-3.14072.0347-.15816.12076-.53561-.142-.413-.33504.0684-.67175.078-1.05552.065-.25571-.0349-.49538-.055-.76748-.072v15.642c.41331.0256.72534-.0524 1.097-.068.25542-.0667.59695-.0659.868-.02.20812.0237.38938.04.596.088.26813-.36089.59114-.67248.898-.996.5424-.66873 1.14777-1.28235 1.70669-1.93599.47073-.437.82502-.97865 1.29336-1.41972.39639-.47126.84649-.89626 1.23997-1.36688.41915-.51197.9086-.96153 1.32026-1.4783.49339-.46586.88503-1.02537 1.37457-1.498.48351-.56772.99324-1.10804 1.48615-1.66811.22873-.39875.12096.18113.13998.36373-.0225 1.27744-.004 2.55654-.05 3.83231-.0427 1.57343.01 3.15242-.0557 4.72482-.029.46196-.004.92773-.0123 1.39114.32162-.0696.6781-.10792 1.08408-.093.33138.0162.60054.0376.89392.144z"/><path d="m-392.86 653.996c-1.45233 0-2.90467 0-4.357 0-.28501.41131-.54466.82503-.811 1.246-.28138.4218-.55457.85166-.8346 1.27211-.18289.27252-.34764.57466-.5574.83289-.153.30538-.4013.56121-.54.869-.22601.28827-.41663.60124-.634.909-.13454.18166-.27382.39262-.40496.59369-.1641.21514-.29474.46674-.48304.67931-.10602.19596-.27947.37354-.394.566.002-1.76555-.0112-3.53401.012-5.297.0967-.29097-.0203-.65153.072-.949.0188-.23695.0371-.48772.081-.722-.36566.003-.70013.0537-1.065.046-.34787.0591-.72624.0143-1.09044.03-.30643-.002-.6138.005-.91956-.004-.20946-.0562-.4703-.058-.72-.072.00044 1.30797-.008 2.61723.02 3.92066.02 1.12894.0211 2.25983.0381 3.38775.0732.69964.0112 1.41404.0589 2.11674.0104 1.69631.0321 3.39781-.028 5.08985-.0857.2584-.0238.57188-.069.84646-.0675.23969.0125.32902.24046.24554.46301-.073.95067-.10907 1.42954-.137.44575-.0592.90897.0271 1.366.028.25518.0378.52535.0396.776.093-.045-.38522-.0942-.77111-.085-1.183-.0634-.19693-.0208-.42822-.064-.63469-.017-.5266.0208-1.07131-.0285-1.58668-.0388-1.23129-.0214-2.47962-.0255-3.71863.14916.21828.33371.37201.51102.57536.239.28836.47037.58238.72438.85407.29489.36738.64376.72085.9146 1.11957.25727.22435.41819.50975.654.752.18604.24989.40647.49299.60402.73632.20372.28142.44886.53485.63998.82468.19425.21018.34903.43642.52304.66159.14011.19726.32266.3755.44596.59241.13448.12546.25021.30756.35365.46115.17931.15558.26507.43675.46435.54585.3514-.0762.78917-.0605 1.16369-.093.46481.0107 1.00465-.0383 1.39831.076.35049.0975.0532-.15759-.079-.283-.30336-.36638-.62457-.71123-.94686-1.06181-.27657-.2633-.51196-.56344-.78221-.83552-.32967-.3912-.70047-.76008-1.02756-1.13769-.37268-.36671-.69696-.79122-1.07337-1.15898-.44885-.47319-.87621-.96244-1.32877-1.4337-.16605-.20532-.37737-.36882-.53123-.5853.29769-.49223.67051-.93739.984-1.424.61642-.83608 1.17398-1.71325 1.79265-2.54624.17461-.24804.35535-.49109.52942-.73918.18993-.27404.38676-.54643.59793-.81058.30484-.49214.66502-.94495.971-1.439.29065-.33986.51096-.73287.78315-1.0936.25072-.33745.4748-.69017.73085-1.0254z"/></g><path d="m-537.679 650.0819c1.74729-.003 3.50335.47087 4.97872 1.41564.8932.51784 1.68973 1.2116 2.34267 2.01065.43391.4656.7463 1.01606 1.08061 1.55371.55453 1.07637.96527 2.23816 1.07775 3.4505.16149 1.35237.0318 2.73794-.35925 4.04026-.28654.98975-.74069 1.9271-1.3134 2.7829-.78823 1.16323-1.80564 2.19154-3.0221 2.89834-.2739.17113-.50912.34349-.78602.51222-.40751.28194-1.06643.6355-1.54998.25878-.49144-.48372-.4684-1.24564-.511-1.89534-.003-4.59862-.0245-9.19671-.015-13.79566-.0286-.38605.091-.85402-.305-1.08-.40958-.24856-.86926-.41069-1.348-.486-.39261-.11243-.76319.0578-1.146.13-.32694.11336-.68333.25515-.922.483-.34639.30535-.13831.84417-.195 1.27209-.006 4.70378.0121 9.40858-.009 14.11172-.0686.50495-.12403 1.12263-.59574 1.42419-.21825.11115-.46134.096-.685.002-.53502-.15653-.98964-.60914-1.44307-.87795-.78884-.46416-1.51616-1.03903-2.12924-1.7255-.54171-.54696-.97127-1.1894-1.36769-1.84955-.56599-1.03011-.9973-2.13833-1.19275-3.3004-.19808-1.07352-.21806-2.17669-.0493-3.25745.25456-1.64534.966-3.21471 1.99996-4.5154 1.02304-1.30289 2.4294-2.25906 3.94513-2.90675 1.12337-.41505 2.3169-.67112 3.52-.656z" fill="#f58220"/><path d="m-537.6429 671.626c.12897.005.26224-.0141.3864.018.0788.005.14928.0637.2326.049.0534.043.11333.0875.18181.09.0627.0387.1604.0247.19219.109.0689.0241.12511.0636.18753.0985.0598.0291.10397.0918.16063.13069.0877.0374.11601.13726.20027.17985.043.0535.0809.11062.13557.156.0539.0794.10902.15598.141.248.055.0425.0645.11795.10191.1754.029.064.0672.12041.0814.18867.0284.0593.055.11994.0467.18793.0312.0823.009.17765.067.252-.004.18999.008.38429-.006.57158-.0618.0785-.0312.18135-.0609.27062-.009.065-.0221.13462-.0619.18765-.0475.18414-.16842.33579-.25352.50184-.0419.0557-.0638.11369-.12484.15137-.0582.0816-.14557.1364-.19175.22694-.0839.005-.12607.0913-.19076.13263-.0451.0475-.11599.0678-.16574.1067-.0601.0245-.0899.0877-.16519.0852-.10622.0449-.20886.11138-.32631.13251-.0643.0308-.11798.074-.19462.055-.084.002-.16592.0202-.25042.0202-.14472.0173-.29164-.002-.4354-.008-.0878-.0326-.19336.0188-.26975-.0516-.0924-.045-.19634-.0498-.28481-.10214-.0573-.0442-.13753-.0406-.182-.1-.0775-.0143-.13095-.079-.20469-.10493-.0617-.0508-.12776-.10946-.18346-.16017-.0791.01-.0923-.091-.14785-.1319-.0589-.0419-.0726-.11221-.128-.154-.10466-.11757-.19503-.25261-.25577-.39888-.01-.0699-.0726-.10983-.0754-.18251-.0322-.068-.062-.1258-.0765-.19722-.0172-.0732.004-.15794-.0494-.22339.008-.17307-.0342-.34655 0-.5182-.003-.0918-.007-.18404.04-.2668-.0105-.11376.0385-.21594.086-.31484-.007-.0798.0628-.10832.0735-.17805.0255-.0596.0418-.12359.0834-.17585.036-.11983.13909-.19365.21292-.28758.0482-.043.0617-.11861.12724-.14868.0462-.0505.0812-.11044.151-.135.0402-.0647.12572-.0796.1721-.14219.0736-.0669.18799-.0557.24646-.143.0517-.0364.13177-.029.17948-.0612.0523-.0281.12074-.0453.17636-.0716.0801-.006.14437-.0626.2256-.049.12505-.0388.26559-.008.396-.018z" fill="#f58220"/><path d="m-532.975 675.4819c.23937.52664.87276.929 1.411.527 1.0656-.67929 1.87327-1.70927 2.79623-2.57131 1.20355-1.16849 2.29916-2.4753 3.05108-3.98526.78216-1.54605 1.2429-3.24781 1.29969-4.98243.18249-1.75166-.11188-3.54792-.634-5.222-1.07374-3.1488-3.2915-5.93885-6.232-7.532-4.06765-2.29768-9.33684-2.1447-13.30562.29075-3.77778 2.25467-6.22861 6.50614-6.42138 10.88725-.10135 2.01304.21704 4.04928 1.026 5.904.78118 1.85415 2.08304 3.44354 3.53592 4.82152.82328.82796 1.58427 1.74128 2.56108 2.38148.41473.31851 1.08142.25885 1.303-.244.4904-.77677.82886-1.74045.801-2.685-.12139-1.55563-1.48372-2.50945-2.571-3.434-1.28868-1.06144-2.18788-2.50686-2.933-3.988-.67339-1.4442-1.0274-3.02611-.976-4.64533.009-3.46908 1.7198-6.90838 4.527-8.96267 1.84087-1.289 4.07034-2.03389 6.33099-1.96 3.09066.0393 6.05056 1.64248 7.91201 4.08 1.66478 2.14777 2.51284 4.91355 2.336 7.62933-.0739 1.65638-.59059 3.26321-1.36 4.70067-.71604 1.2927-1.68811 2.45775-2.83292 3.38658-.85433.79496-1.89887 1.5442-2.17408 2.73642-.20654.98147.12994 1.98503.549 2.867z" fill="#f58220"/></g></svg>