<?xml version="1.0" encoding="UTF-8"?>
<svg width="816px" height="144px" viewBox="0 0 816 144" version="1.1" xmlns="http://www.w3.org/2000/svg" xmlns:xlink="http://www.w3.org/1999/xlink">
    <!-- Generator: Sketch 51.1 (57501) - http://www.bohemiancoding.com/sketch -->
    <title>FA_SANTANDER_PV_POS_RGB</title>
    <desc>Created with Sketch.</desc>
    <defs></defs>
    <g id="Page-1" stroke="none" stroke-width="1" fill="none" fill-rule="evenodd">
        <g id="FA_SANTANDER_PV_POS_RGB" fill="#EC0000" fill-rule="nonzero">
            <path d="M107.8,66.3 C107.6,61.2 106.1,56 103.5,51.4 L80,10.7 C78.2,7.6 77,4.3 76.3,0.9 L75.3,2.6 C69.5,12.7 69.5,25.1 75.3,35.2 L94.1,67.8 C99.9,77.9 99.9,90.3 94.1,100.4 L93.1,102.1 C92.4,98.7 91.2,95.4 89.4,92.3 L72.2,62.5 L61.2,43.5 C59.4,40.4 58.2,37.1 57.5,33.7 L56.5,35.4 C50.7,45.4 50.7,57.8 56.4,67.9 L75.3,100.6 C81.1,110.7 81.1,123.1 75.3,133.2 L74.3,134.9 C73.6,131.5 72.4,128.2 70.6,125.1 L47.1,84 C43.9,78.5 42.5,72.4 42.8,66.3 C17.6,72.9 0.3,86.8 0.3,103 C0.3,125.5 33.9,143.7 75.4,143.7 C116.9,143.7 150.5,125.5 150.5,103 C150.4,86.8 133,72.9 107.8,66.3 Z M178.7,135.8 C179,130 179.8,126.1 181.4,121.6 C189.3,125.3 199.5,127.1 207.2,127.1 C220.3,127.1 227.7,122.9 227.7,114.5 C227.7,106.3 222.3,102.5 209.1,96.7 L201.9,93.6 C188.6,87.8 179.6,80.3 179.6,65.4 C179.6,49.3 190.7,39 213.6,39 C222.8,39 231.4,40.3 239.4,43.1 C239,48.7 238,53.1 236.6,57.2 C229,54.4 220,53.1 213.5,53.1 C201.2,53.1 195.6,57.9 195.6,65.4 C195.6,72.7 201.1,77 211,81.2 L218.6,84.4 C236.5,92 244,100.1 244,113.7 C244,129.9 231.7,141.1 207.8,141.1 C196.1,141.2 186.6,139.5 178.7,135.8 Z M319.6,68.4 L319.6,138.9 L305.4,138.9 L304.6,130.4 C300.7,136.6 294.6,140.6 284.7,140.6 C266.1,140.6 253.7,127.1 253.7,103.4 C253.7,78.6 267,64.5 293.1,64.5 C303.1,64.4 311.5,65.6 319.6,68.4 Z M304.1,122.8 L304.1,78.5 C300.9,77.9 297.3,77.7 293,77.7 C276.9,77.7 269.4,87.6 269.4,103.4 C269.4,117.8 275.2,127.9 289,127.9 C295.1,127.9 300,125.9 304.1,122.8 Z M399.1,91.5 L399.1,138.9 L383.6,138.9 L383.6,94.2 C383.6,83.1 379.9,77.7 364.4,77.7 C360.7,77.7 356.4,78.1 352.1,78.8 L352.1,138.9 L336.6,138.9 L336.6,68.4 C346.5,66 357.3,64.5 364.8,64.5 C390.7,64.4 399.1,74.5 399.1,91.5 Z M442.1,127.4 C446.6,127.4 450.8,126.6 454.2,125.3 C453.8,129.5 453.2,134.3 452.4,138.4 C448.2,140.1 443.7,140.7 439.3,140.7 C424.2,140.7 414.6,133.8 414.6,116.6 L414.6,42.5 C419.4,40.9 425.3,40.2 430.1,40.2 L430.1,66.9 L454.6,66.9 C454.3,71.7 453.9,76.1 453.2,80.2 L430.1,80.2 L430.1,114.8 C430.1,123.8 434.6,127.4 442.1,127.4 Z M525.3,68.4 L525.3,138.9 L511.1,138.9 L510.3,130.4 C506.3,136.6 500.3,140.6 490.4,140.6 C471.8,140.6 459.4,127.1 459.4,103.4 C459.4,78.6 472.7,64.5 498.8,64.5 C508.8,64.4 517.1,65.6 525.3,68.4 Z M509.8,122.8 L509.8,78.5 C506.6,77.9 503,77.7 498.7,77.7 C482.6,77.7 475.1,87.6 475.1,103.4 C475.1,117.8 480.9,127.9 494.7,127.9 C500.8,127.9 505.7,125.9 509.8,122.8 Z M604.7,91.5 L604.7,138.9 L589.2,138.9 L589.2,94.2 C589.2,83.1 585.5,77.7 570,77.7 C566.3,77.7 562,78.1 557.7,78.8 L557.7,138.9 L542.2,138.9 L542.2,68.4 C552.1,66 562.9,64.5 570.4,64.5 C596.4,64.4 604.7,74.5 604.7,91.5 Z M683.4,40.2 L683.4,138.9 L669.2,138.9 L668.4,129.9 C664.4,136.5 658.4,140.6 648.2,140.6 C629.6,140.6 617.2,127.1 617.2,103.4 C617.2,78.6 630.5,64.5 656.6,64.5 C660.7,64.5 664.5,64.9 668.2,65.6 L668.2,42.3 C672.8,40.6 678.3,40.2 683.4,40.2 Z M668.1,122.6 L668.1,79.2 C664,78.4 659.8,77.8 655.7,77.8 C640.3,77.8 633,87.4 633,103.5 C633,117.9 638.8,128 652.6,128 C658.7,127.9 663.8,125.8 668.1,122.6 Z M761.4,108.7 L711.9,108.7 C713.9,121.3 721.2,127.3 735,127.3 C743.5,127.3 752.1,125.5 759.8,121.9 C759.2,126 758.4,131.4 757.4,136 C750.3,139.2 742.9,140.5 734.5,140.5 C708.5,140.5 696,126.1 696,102 C696,81 705.7,64.3 730.4,64.3 C752.5,64.3 762.1,78.8 762.1,96.6 C762.3,101.1 762,104.6 761.4,108.7 Z M711.6,95.8 L746.6,95.8 C746.6,84.2 740.4,77.5 729.7,77.5 C718.7,77.4 712.9,83.8 711.6,95.8 Z M815.7,65 C815.7,69.7 815.1,75.3 814.3,78.3 C810.6,77.9 807,77.7 802.6,77.7 C798.8,77.7 795,78 791.2,78.5 L791.2,138.9 L775.7,138.9 L775.7,68.4 C782.3,66.1 793.5,64.5 802.2,64.5 C807,64.4 812.4,64.6 815.7,65 Z" id="Shape"></path>
        </g>
    </g>
</svg>