<svg id="Layer_1" data-name="Layer 1" xmlns="http://www.w3.org/2000/svg" viewBox="0 0 258.52 72"><path d="M286,83.37a3.25,3.25,0,1,0,3.25,3.24A3.22,3.22,0,0,0,286,83.37Zm0,6a2.81,2.81,0,1,1,2.79-2.81A2.77,2.77,0,0,1,286,89.42Z" transform="translate(-30.74 -38.59)" fill="#001e79"/><path d="M287.41,87.62a1,1,0,0,0-.19-.55.87.87,0,0,0-.61-.35,1.22,1.22,0,0,0,.51-.17.79.79,0,0,0,.35-.7.89.89,0,0,0-.55-.91,2.87,2.87,0,0,0-1-.13H284.7v3.57h.62V87h.5a1.63,1.63,0,0,1,.7.11c.35.21.33.66.34,1.06a.58.58,0,0,0,0,.23h.58a.55.55,0,0,1-.05-.23C287.41,88,287.41,87.91,287.41,87.62Zm-1.52-1.08h-.57v-1.3h.54c.76,0,1,.18,1,.66S286.44,86.54,285.89,86.54Z" transform="translate(-30.74 -38.59)" fill="#001e79"/><path d="M148.71,52.13c-5,0-9,2.06-10.55,4.33V38.59H127.24V89.42H138v-4.1c1.69,2.79,5.42,4.91,10.26,4.91,10.18,0,17.36-8,17.36-19.12C165.63,60.19,159.26,52.13,148.71,52.13Zm-2.42,28.14c-4.32,0-8.28-3.08-8.28-9.09s4-9,8.28-9,8.21,2.86,8.21,9S150.61,80.27,146.29,80.27Z" transform="translate(-30.74 -38.59)" fill="#001e79"/><path d="M200.56,83.78V66c0-7.47-4.32-14.07-16.11-14.07-10.7,0-15.54,6.89-16,12.09l9.67,2a5.86,5.86,0,0,1,6.23-5.35c3.52,0,5.35,1.83,5.35,4,0,1.24-.66,2.2-2.64,2.49l-8.57,1.32c-6,.88-10.77,4.54-10.77,11,0,5.78,4.62,11.06,12.6,11.06,4.84,0,8.35-2,10.26-5.13a17.21,17.21,0,0,0,.37,4.1h10A36,36,0,0,1,200.56,83.78Zm-10.84-8.64c0,5.64-3.37,7.25-6.67,7.25-3.07,0-4.32-1.83-4.32-3.74,0-2.56,1.76-3.66,4.1-4l6.89-1.1Z" transform="translate(-30.74 -38.59)" fill="#001e79"/><path d="M239.63,66.57V89.42H228.5v-21c0-3.59-1.91-6.3-5.94-6.3-3.66,0-6,2.71-6,6.37V89.42H205.42V53h10.77v4.18c2-3.44,6.45-5.13,10.18-5.13C235.53,52.06,239.63,58.58,239.63,66.57Z" transform="translate(-30.74 -38.59)" fill="#001e79"/><polygon points="225.03 0 225.03 26.66 236.09 14.43 250.53 14.43 236.31 29.74 250.82 50.84 237.19 50.84 228.62 38.02 225.03 41.9 225.03 50.84 213.9 50.84 213.9 0 225.03 0" fill="#001e79"/><polygon points="0 54.5 43.5 72 87 54.5 87 0 0 0 0 54.5" fill="#cf2a36"/><path d="M63.83,85.76c-1.9,3.15-6.08,4.47-9.74,4.47-8.87,0-13.85-6.45-13.85-14.21V53H51.38V73.67c0,3.52,1.9,6.3,5.86,6.3,3.74,0,6.08-2.56,6.08-6.22V53H74.46V82.9a58.43,58.43,0,0,0,.36,6.52H64.13A25.91,25.91,0,0,1,63.83,85.76Z" transform="translate(-30.74 -38.59)" fill="#fff"/><path d="M88.31,77.41c.15,2.49,1.91,4.91,5.72,4.91,2.86,0,4.25-1.54,4.25-3.15,0-1.32-.88-2.42-3.59-3l-4.18-1C82.75,73.53,79.67,69.13,79.67,64c0-6.66,5.86-12.09,14-12.09,10.55,0,14.22,6.6,14.58,10.85L99,64.44A4.78,4.78,0,0,0,93.81,60c-2.13,0-4,1.25-4,3.15,0,1.54,1.25,2.42,2.86,2.71l4.84,1c7.54,1.53,11.2,6.08,11.2,11.42,0,6.23-4.76,12.31-14.5,12.31-11.43,0-15.09-7.4-15.39-11.43Z" transform="translate(-30.74 -38.59)" fill="#fff"/></svg>