<svg width="213" height="36" viewBox="0 0 213 36" fill="none" xmlns="http://www.w3.org/2000/svg">
<path d="M68.4509 8.98801C68.5587 9.32415 68.6547 9.62087 68.7391 9.87817C68.8228 10.1358 68.9124 10.4275 69.0084 10.7508C69.1045 11.0623 69.1888 11.3481 69.2608 11.6058C69.3323 11.8635 69.4162 12.1481 69.5127 12.4596C69.6082 12.1481 69.698 11.8572 69.7821 11.587C69.8659 11.3177 69.9469 11.051 70.0251 10.7871C70.103 10.5235 70.184 10.2565 70.2682 9.98588C70.3519 9.71648 70.4419 9.42562 70.5382 9.11328L72.8045 2.04352H75.3234L70.9879 14.7448H67.8571L63.4678 2.04357H66.1839L68.4509 8.98801Z" fill="#0066B3"/>
<path d="M80.2344 5.13818C80.6056 5.1381 80.976 5.17102 81.3413 5.23653C81.7028 5.30173 82.0558 5.40741 82.3936 5.5516C82.8499 5.73682 83.2678 6.00532 83.6258 6.34338C83.9179 6.62301 84.1748 6.93728 84.3907 7.27921C84.5642 7.55309 84.7061 7.84584 84.8135 8.15181C84.8806 8.34353 84.9377 8.53862 84.9845 8.73628C85.0502 8.99865 85.0924 9.26638 85.1104 9.53626C85.1221 9.77054 85.128 9.93569 85.128 10.0317C85.1368 10.6207 85.0488 11.2071 84.8674 11.7675C84.7101 12.2443 84.4793 12.6937 84.1834 13.0992C83.9184 13.4605 83.5964 13.7762 83.23 14.0339C82.8991 14.2683 82.5392 14.4588 82.1594 14.6008C81.7788 14.7478 81.379 14.8389 80.9723 14.8714C80.6005 14.8948 80.3486 14.9065 80.2169 14.9065C79.9188 14.9066 79.6212 14.8855 79.3261 14.8433C79.0297 14.8009 78.7376 14.7319 78.4535 14.6371C77.6232 14.3467 76.893 13.8254 76.3488 13.1344C76.0329 12.728 75.7867 12.2721 75.6202 11.7851C75.4254 11.2089 75.3311 10.6035 75.3415 9.9954C75.3306 9.25339 75.4778 8.51756 75.7731 7.83676C76.0034 7.31524 76.3265 6.83982 76.7265 6.43358C76.8989 6.26388 77.0889 6.1131 77.2934 5.98382C77.455 5.88777 77.5722 5.81515 77.6442 5.76713C77.9702 5.60006 78.3102 5.46172 78.6603 5.35368C79.1704 5.19951 79.7016 5.12679 80.2344 5.13818ZM80.2526 6.93725C80.0001 6.93967 79.7501 6.98851 79.5153 7.08132C79.3705 7.13554 79.2317 7.20462 79.1012 7.28745C79.0115 7.34271 78.9272 7.40623 78.8493 7.4772C78.558 7.74367 78.3304 8.07234 78.1835 8.43881C77.9899 8.92816 77.8983 9.45185 77.9141 9.97785C77.9047 10.461 77.9808 10.942 78.139 11.3986C78.247 11.7282 78.408 12.0379 78.6157 12.3157C78.7346 12.4607 78.8704 12.5908 79.0204 12.7034C79.1074 12.7694 79.2008 12.8267 79.2991 12.8744C79.4799 12.9744 79.6784 13.0385 79.8836 13.063C80.0698 13.0805 80.1922 13.0899 80.2525 13.0899C80.5564 13.0995 80.8582 13.0377 81.1339 12.9095C81.3388 12.8143 81.5272 12.687 81.692 12.5324C81.9859 12.2517 82.2053 11.9023 82.3303 11.5157C82.4933 10.9952 82.5635 10.4501 82.5377 9.90524C82.5204 9.50571 82.4691 9.10837 82.3842 8.71757C82.2863 8.27141 82.0577 7.86451 81.7277 7.54867C81.5524 7.37587 81.3522 7.2302 81.1339 7.11647C80.8588 6.98678 80.5565 6.9253 80.2526 6.93725Z" fill="#0066B3"/>
<path d="M89.518 1V14.7449H87.0713V1H89.518Z" fill="#0066B3"/>
<path d="M94.3757 9.13213C94.5315 8.90373 94.6726 8.70344 94.7986 8.52893C94.9245 8.35558 95.0713 8.16661 95.239 7.96203L97.3618 5.31731H100.186L96.6784 9.47413L100.636 14.7448H97.6137L95.5447 11.8846C95.3052 11.5602 95.1014 11.2631 94.9333 10.9933C94.7652 10.7239 94.5794 10.4151 94.3758 10.0668V14.7449H91.9465V1H94.3757V9.13213Z" fill="#0066B3"/>
<path d="M107.617 7.33299C107.245 7.22522 106.906 7.13503 106.6 7.06242C106.273 6.98878 105.937 6.95846 105.602 6.97224C105.178 6.95456 104.757 7.04442 104.378 7.23343C104.237 7.30017 104.118 7.40604 104.035 7.53848C103.952 7.67093 103.909 7.82438 103.91 7.98064C103.913 8.06411 103.931 8.14634 103.964 8.22308C103.998 8.31053 104.054 8.38789 104.126 8.44796C104.278 8.56731 104.448 8.66144 104.63 8.72674C104.834 8.80521 105.086 8.89227 105.385 8.98792C105.698 9.08397 105.955 9.16712 106.159 9.23979C106.363 9.31124 106.531 9.378 106.663 9.43769C107.002 9.58434 107.306 9.80201 107.553 10.076C107.746 10.2947 107.901 10.5441 108.012 10.8139C108.1 11.0266 108.158 11.2505 108.183 11.4792C108.201 11.6771 108.21 11.8118 108.21 11.8845C108.208 12.176 108.169 12.4661 108.093 12.7477C108.008 13.0628 107.857 13.3567 107.652 13.6109C107.518 13.7812 107.367 13.9381 107.203 14.0794C107.064 14.1992 106.913 14.3044 106.753 14.3933C106.609 14.4718 106.48 14.535 106.366 14.5831C106.287 14.6179 106.206 14.648 106.123 14.6732C105.774 14.8005 105.406 14.8732 105.035 14.8888C104.681 14.9005 104.45 14.9063 104.342 14.9063C104.078 14.9063 103.835 14.8981 103.613 14.8794C103.391 14.8618 103.176 14.8349 102.966 14.7986C102.756 14.7623 102.54 14.7174 102.319 14.6639C102.096 14.61 101.854 14.5526 101.589 14.4929L101.715 12.4419C101.931 12.538 102.24 12.6645 102.642 12.8191C103.101 12.9853 103.586 13.0647 104.073 13.0533C104.494 13.0724 104.913 12.9794 105.287 12.784C105.424 12.7159 105.54 12.6107 105.621 12.4804C105.702 12.35 105.745 12.1996 105.746 12.046C105.75 11.9049 105.709 11.7662 105.629 11.6502C105.548 11.5397 105.447 11.4452 105.332 11.3714C105.212 11.294 105.086 11.2277 104.954 11.1735C104.822 11.1196 104.702 11.0752 104.594 11.0388C104.354 10.9545 104.123 10.8733 103.902 10.7952C103.68 10.7179 103.464 10.6339 103.254 10.5433C103.047 10.4557 102.849 10.3507 102.66 10.2294C102.463 10.0985 102.284 9.94081 102.13 9.76092C101.947 9.5598 101.795 9.33239 101.68 9.08627C101.537 8.76685 101.47 8.41914 101.482 8.06961C101.484 7.74739 101.542 7.42794 101.653 7.12557C101.793 6.76754 102.012 6.44512 102.292 6.18154C102.555 5.92602 102.863 5.72149 103.2 5.57834C103.504 5.44829 103.821 5.34902 104.145 5.28201C104.396 5.22794 104.652 5.19465 104.909 5.18246C105.119 5.17659 105.248 5.17309 105.296 5.17309C105.712 5.17064 106.128 5.20711 106.537 5.28202C106.921 5.35347 107.335 5.43743 107.779 5.53389L107.617 7.33299Z" fill="#0066B3"/>
<path d="M112.492 1V6.79311C112.566 6.65815 112.65 6.52894 112.743 6.4066C112.816 6.3164 112.881 6.23559 112.941 6.16297C113.22 5.88748 113.542 5.65957 113.895 5.48832C114.367 5.2637 114.884 5.14992 115.406 5.15568C115.653 5.16209 115.899 5.18321 116.144 5.21893C116.502 5.27158 116.848 5.38402 117.169 5.55156C117.562 5.75775 117.913 6.03541 118.204 6.37028C118.576 6.81443 118.849 7.3327 119.004 7.89059C119.064 8.09438 119.127 8.35831 119.193 8.68237C119.265 9.07992 119.298 9.48359 119.292 9.8876C119.329 10.7665 119.179 11.6433 118.851 12.4597C118.601 13.0764 118.217 13.6297 117.727 14.0796C117.655 14.1393 117.553 14.2178 117.421 14.3126C117.269 14.4198 117.106 14.5105 116.935 14.5832C116.624 14.732 116.289 14.8262 115.946 14.862C115.622 14.8912 115.418 14.9065 115.334 14.9065C114.798 14.9232 114.264 14.825 113.769 14.6183C113.385 14.4545 113.046 14.202 112.779 13.8816C112.69 13.7609 112.609 13.6345 112.537 13.5033C112.499 13.4271 112.454 13.3549 112.401 13.2878V14.7449H110.081V1H112.492ZM114.759 7.1351C114.506 7.13752 114.256 7.18635 114.021 7.27916C113.721 7.39414 113.453 7.57882 113.238 7.81794C113.044 8.03949 112.889 8.29209 112.779 8.56515C112.674 8.82493 112.602 9.0968 112.564 9.37449C112.53 9.61587 112.512 9.85926 112.51 10.103C112.509 10.3775 112.533 10.6515 112.582 10.9217C112.634 11.2056 112.725 11.481 112.851 11.7405C112.912 11.8482 112.974 11.956 113.04 12.0637C113.108 12.1755 113.19 12.2782 113.283 12.3694C113.41 12.5123 113.559 12.6341 113.724 12.7302C113.854 12.8056 113.993 12.8658 114.138 12.9094C114.246 12.9427 114.358 12.9608 114.47 12.9633H114.687C114.834 12.9548 114.981 12.9368 115.127 12.9094C115.386 12.855 115.626 12.7306 115.82 12.5498C116.011 12.3834 116.172 12.1857 116.296 11.9653C116.42 11.7489 116.52 11.5195 116.593 11.2813C116.663 11.0588 116.711 10.8302 116.737 10.5985C116.76 10.3982 116.772 10.1968 116.773 9.99526C116.772 9.69946 116.745 9.40431 116.692 9.1133C116.639 8.81437 116.545 8.52402 116.414 8.25007C116.359 8.12739 116.292 8.01014 116.216 7.89986C116.156 7.81359 116.09 7.73214 116.018 7.65624C115.865 7.52576 115.699 7.41117 115.523 7.31423C115.288 7.18874 115.025 7.12696 114.759 7.1351Z" fill="#0066B3"/>
<path d="M126.885 14.7447V13.3591C126.788 13.5274 126.676 13.6869 126.552 13.8358C126.354 14.0617 126.12 14.2533 125.859 14.4027C125.535 14.5978 125.179 14.7349 124.807 14.8079C124.46 14.8729 124.107 14.9058 123.754 14.9063C123.209 14.9258 122.666 14.8275 122.162 14.6182C121.784 14.4535 121.448 14.2043 121.181 13.8896C120.951 13.6151 120.785 13.2925 120.696 12.9456C120.616 12.64 120.573 12.3257 120.57 12.0097C120.565 11.5772 120.661 11.1495 120.849 10.76C121.002 10.4556 121.213 10.1836 121.47 9.95881C121.915 9.57942 122.446 9.31411 123.017 9.18577C123.795 9.00214 124.592 8.91132 125.391 8.91521H125.499C125.739 8.91521 125.952 8.91872 126.138 8.92457C126.324 8.93044 126.536 8.94566 126.776 8.96908C126.753 8.75358 126.728 8.52284 126.704 8.27687C126.679 8.02605 126.586 7.7868 126.436 7.58465C126.288 7.37704 126.09 7.2099 125.861 7.09857C125.555 6.9632 125.226 6.88995 124.891 6.88307H124.658C124.266 6.88556 123.877 6.9399 123.499 7.04469C123.24 7.12022 122.985 7.21016 122.736 7.31409C122.64 7.36211 122.514 7.42536 122.358 7.50383C122.155 7.61311 121.962 7.7426 121.784 7.89035L121.712 5.76684C121.904 5.6954 122.104 5.62278 122.314 5.55133C122.524 5.47987 122.754 5.41312 123.006 5.35343C123.257 5.29368 123.542 5.24291 123.86 5.20111C124.214 5.15668 124.571 5.13556 124.928 5.13787C125.156 5.13787 125.402 5.14372 125.665 5.15543C125.929 5.16751 126.191 5.20676 126.447 5.27255C126.712 5.34135 126.971 5.43467 127.219 5.55131C127.481 5.67475 127.726 5.83186 127.947 6.01865C128.097 6.15961 128.239 6.30983 128.37 6.46842C128.545 6.68691 128.677 6.93757 128.756 7.20632C128.885 7.56443 128.954 7.94097 128.963 8.32137C128.981 8.75356 128.99 9.12563 128.99 9.43758V11.6677C128.99 12.2322 128.996 12.7452 129.008 13.2067C129.019 13.6682 129.037 14.1808 129.062 14.7446L126.885 14.7447ZM126.831 10.4813C126.676 10.4696 126.523 10.4602 126.374 10.4544C126.225 10.4485 126.067 10.445 125.9 10.445C125.339 10.4353 124.779 10.4987 124.234 10.6336C124.026 10.6797 123.83 10.7682 123.657 10.8935C123.485 11.0189 123.34 11.1784 123.232 11.3621C123.134 11.5512 123.085 11.7617 123.089 11.9747C123.091 12.1184 123.115 12.261 123.16 12.3975C123.211 12.5531 123.294 12.6966 123.402 12.8192C123.526 12.9589 123.678 13.0697 123.849 13.1436C124.074 13.2349 124.315 13.2776 124.557 13.2689C124.741 13.2631 124.925 13.2359 125.103 13.1881C125.342 13.1257 125.57 13.0223 125.774 12.8824C126.018 12.7145 126.228 12.5009 126.392 12.2534C126.595 11.9346 126.726 11.5753 126.776 11.2005C126.802 11.0518 126.817 10.9015 126.822 10.7507C126.827 10.5832 126.831 10.493 126.831 10.4813Z" fill="#0066B3"/>
<path d="M137.768 14.7448V10.1932C137.756 9.62986 137.732 9.18321 137.696 8.8533C137.666 8.5435 137.581 8.2416 137.444 7.96197C137.37 7.81858 137.273 7.68809 137.157 7.57545C137.033 7.46293 136.894 7.36903 136.743 7.29669C136.683 7.27326 136.59 7.24281 136.464 7.20651C136.32 7.16816 136.172 7.15003 136.024 7.15263C135.863 7.14703 135.703 7.16198 135.546 7.19714C135.272 7.25889 135.016 7.38539 134.8 7.56608C134.597 7.72029 134.424 7.90949 134.287 8.12477C134.16 8.33067 134.066 8.55514 134.008 8.79005C133.947 9.03516 133.905 9.2846 133.883 9.53615C133.859 9.795 133.846 10.0609 133.846 10.3373V14.7448H131.382V7.58483C131.382 7.16434 131.375 6.78724 131.364 6.45103C131.351 6.11488 131.334 5.73774 131.31 5.31725H133.666V6.77547C133.775 6.63142 133.894 6.48735 134.027 6.34328C134.181 6.16087 134.363 6.00326 134.566 5.87594C134.746 5.76701 134.866 5.69557 134.926 5.65926C135.238 5.4741 135.579 5.34043 135.933 5.26337C136.26 5.20208 136.591 5.17188 136.923 5.17319C137.303 5.16357 137.682 5.21215 138.048 5.31725C138.446 5.43021 138.815 5.63023 139.127 5.90288C139.302 6.05919 139.456 6.23754 139.585 6.43347C139.729 6.62431 139.841 6.83658 139.918 7.06244C140 7.30794 140.057 7.56102 140.089 7.8179C140.125 8.09432 140.149 8.40588 140.161 8.75375C140.173 9.10162 140.185 9.49165 140.197 9.92384V14.7448H137.768Z" fill="#0066B3"/>
<path d="M145.037 9.13213C145.193 8.90373 145.334 8.70344 145.46 8.52893C145.586 8.35558 145.733 8.16661 145.9 7.96203L148.023 5.31731H150.848L147.34 9.47413L151.297 14.7448H148.275L146.206 11.8846C145.966 11.5602 145.763 11.2631 145.595 10.9933C145.426 10.7239 145.241 10.4151 145.037 10.0668V14.7449H142.608V1H145.037V9.13213Z" fill="#0066B3"/>
<path d="M154.194 10.8771C154.231 10.992 154.261 11.1089 154.284 11.2273C154.332 11.436 154.417 11.6341 154.536 11.8118C154.677 12.058 154.863 12.275 155.085 12.4513C155.283 12.6058 155.501 12.7327 155.733 12.8284C155.95 12.9174 156.176 12.9807 156.407 13.017C156.622 13.0524 156.838 13.0708 157.055 13.0721C157.427 13.0706 157.798 13.0282 158.161 12.9456C158.545 12.8595 158.917 12.7265 159.268 12.5497C159.422 12.4846 159.569 12.4062 159.709 12.3154C159.858 12.2205 159.952 12.1596 159.987 12.1362L160.024 14.241C159.598 14.4205 159.162 14.5765 158.719 14.7083C158.083 14.8804 157.426 14.9593 156.767 14.9426H156.443C156.3 14.9426 156.134 14.9332 155.949 14.9156C155.74 14.8941 155.533 14.8609 155.328 14.8161C155.096 14.767 154.867 14.7008 154.644 14.6182C154.264 14.4703 153.904 14.2738 153.574 14.0337C153.225 13.7809 152.921 13.4708 152.675 13.1166C152.402 12.7226 152.193 12.2887 152.054 11.8306C151.889 11.2821 151.81 10.7117 151.82 10.1393C151.81 9.6366 151.865 9.13478 151.982 8.64589C152.064 8.31418 152.172 7.9895 152.306 7.67491C152.365 7.56598 152.425 7.45238 152.485 7.33291C152.545 7.21226 152.581 7.14081 152.593 7.11621C152.653 7.03306 152.71 6.95224 152.764 6.87376C152.82 6.79327 152.884 6.718 152.953 6.64888C153.33 6.20598 153.788 5.8394 154.303 5.56897C154.936 5.2819 155.621 5.12892 156.316 5.11965C157.011 5.11038 157.701 5.24502 158.341 5.5151C158.853 5.76202 159.302 6.12208 159.655 6.56806C160.004 7.02195 160.258 7.5419 160.401 8.09657C160.559 8.69276 160.638 9.30708 160.635 9.92374V10.4086C160.635 10.5527 160.629 10.7085 160.617 10.8771L154.194 10.8771ZM158.386 9.16705C158.362 8.90353 158.327 8.6435 158.279 8.38465C158.22 8.10502 158.097 7.84301 157.919 7.61981C157.795 7.44848 157.643 7.29954 157.469 7.17942C157.329 7.08574 157.178 7.01017 157.019 6.95454C156.894 6.91119 156.764 6.88096 156.632 6.86435C156.518 6.85264 156.437 6.84678 156.389 6.84678C156.354 6.84678 156.269 6.85264 156.137 6.86435C155.982 6.88215 155.828 6.9155 155.679 6.9639C155.487 7.02699 155.305 7.11774 155.139 7.23329C154.937 7.37675 154.763 7.55669 154.626 7.76387C154.454 8.02624 154.335 8.31993 154.276 8.62826C154.234 8.8918 154.207 9.07217 154.194 9.16704L158.386 9.16705Z" fill="#0066B3"/>
<path d="M169.288 14.7448V10.1932C169.276 9.62986 169.252 9.18321 169.216 8.8533C169.186 8.5435 169.101 8.2416 168.964 7.96197C168.89 7.81858 168.793 7.68808 168.677 7.57545C168.553 7.46293 168.413 7.36903 168.263 7.29669C168.203 7.27326 168.11 7.24281 167.984 7.20651C167.84 7.16816 167.692 7.15003 167.543 7.15263C167.383 7.14702 167.223 7.16198 167.066 7.19714C166.792 7.2589 166.536 7.38539 166.32 7.56608C166.117 7.72029 165.943 7.90949 165.807 8.12477C165.68 8.33068 165.586 8.55514 165.528 8.79005C165.467 9.03516 165.425 9.2846 165.402 9.53615C165.378 9.795 165.366 10.0609 165.366 10.3373V14.7448H162.902V7.58483C162.902 7.16434 162.895 6.78724 162.883 6.45103C162.871 6.11488 162.854 5.73774 162.83 5.31725H165.186V6.77547C165.295 6.63142 165.414 6.48735 165.546 6.34328C165.701 6.16087 165.883 6.00326 166.086 5.87594C166.266 5.76701 166.386 5.69557 166.446 5.65926C166.758 5.4741 167.098 5.34043 167.453 5.26337C167.78 5.20208 168.111 5.17188 168.443 5.17319C168.823 5.16357 169.202 5.21215 169.567 5.31725C169.966 5.43021 170.335 5.63023 170.647 5.90288C170.822 6.05919 170.976 6.23754 171.105 6.43347C171.249 6.62431 171.361 6.83658 171.438 7.06244C171.52 7.30794 171.577 7.56102 171.609 7.8179C171.645 8.09432 171.669 8.40588 171.681 8.75375C171.693 9.10162 171.705 9.49165 171.717 9.92384V14.7448H169.288Z" fill="#0066B3"/>
<path d="M74.298 34.2946H71.4553L70.232 31.1099C70.0405 30.6543 69.8787 30.2826 69.7465 29.9949C69.6227 29.7178 69.4309 29.4764 69.189 29.2932C69.1092 29.2307 69.0213 29.179 68.9278 29.1398C68.8424 29.1083 68.7554 29.0813 68.6672 29.059C68.4886 29.0302 68.3081 29.0153 68.1272 29.0145C67.8871 29.0086 67.6113 29.0055 67.2997 29.0051V34.2946H64.7271V21.5934H68.6309C68.9067 21.5934 69.2216 21.5992 69.5755 21.611C69.9381 21.6243 70.299 21.6666 70.6548 21.7375C71.0226 21.8097 71.3815 21.9212 71.7254 22.0701C72.0712 22.2188 72.3833 22.436 72.6431 22.7084C72.7274 22.7933 72.8028 22.8868 72.8679 22.9872C72.9335 23.0891 72.9968 23.1887 73.0565 23.2846C73.1483 23.4539 73.2236 23.6315 73.2814 23.8152C73.3328 23.9768 73.372 24.142 73.3985 24.3095C73.4225 24.4653 73.4372 24.6011 73.4436 24.7148C73.4495 24.8284 73.4524 24.9092 73.4524 24.9572C73.4732 25.4832 73.3521 26.0051 73.1016 26.4681C72.8957 26.8329 72.6171 27.1515 72.2829 27.404C72.2232 27.4403 72.1664 27.4766 72.1125 27.5117C72.04 27.5582 71.965 27.6005 71.8876 27.6382C71.6961 27.7299 71.4935 27.7964 71.285 27.8361C71.0871 27.8713 70.8856 27.9017 70.6818 27.9263C70.7402 27.9454 70.8008 27.9572 70.8622 27.9615C70.9589 27.9744 71.0549 27.9924 71.1497 28.0153C71.3069 28.0771 71.4506 28.169 71.5725 28.2859C71.699 28.4065 71.8136 28.5391 71.9145 28.6818C72.0141 28.8224 72.0986 28.9732 72.1664 29.1315C72.232 29.2873 72.2952 29.4255 72.355 29.545L74.298 34.2946ZM67.264 27.0081C67.4678 27.021 67.6593 27.0269 67.8397 27.0269H68.4329C68.5887 27.0269 68.7597 27.0234 68.9459 27.0175C69.1348 27.0109 69.3221 26.9806 69.5035 26.9273C69.695 26.8707 69.877 26.7859 70.0434 26.6755C70.2308 26.5479 70.3926 26.3862 70.5201 26.1988C70.5947 26.0727 70.6578 25.9402 70.7087 25.8029C70.778 25.613 70.8057 25.4105 70.7901 25.209C70.7942 25.0193 70.7637 24.8303 70.6999 24.6515C70.6513 24.5203 70.5911 24.3937 70.5201 24.2732C70.3649 24.0581 70.1531 23.8902 69.9081 23.7883C69.598 23.6678 69.2697 23.6009 68.9371 23.5904C68.8405 23.5904 68.7626 23.5869 68.7029 23.581C68.6426 23.5752 68.5711 23.5717 68.4874 23.5717H67.264L67.264 27.0081Z" fill="#0066B3"/>
<path d="M81.4944 34.2944V32.9088C81.3975 33.0772 81.286 33.2367 81.1612 33.3855C80.9634 33.6115 80.7295 33.8031 80.4689 33.9524C80.1443 34.1475 79.7882 34.2846 79.4166 34.3577C79.0693 34.4226 78.7169 34.4555 78.3636 34.456C77.8185 34.4756 77.2755 34.3773 76.7718 34.1679C76.3935 34.0033 76.0579 33.754 75.7909 33.4394C75.5607 33.1649 75.3948 32.8423 75.3054 32.4953C75.2253 32.1897 75.183 31.8754 75.1795 31.5595C75.1749 31.127 75.2703 30.6993 75.4582 30.3097C75.6119 30.0053 75.8226 29.7333 76.079 29.5086C76.5244 29.1292 77.0554 28.8639 77.6262 28.7355C78.4043 28.5519 79.2015 28.4611 80.001 28.465H80.1087C80.3488 28.465 80.5614 28.4685 80.7477 28.4743C80.9333 28.4802 81.1458 28.4954 81.386 28.5188C81.362 28.3033 81.338 28.0726 81.314 27.8266C81.2887 27.5758 81.1958 27.3366 81.0452 27.1344C80.8972 26.9268 80.6994 26.7597 80.4701 26.6483C80.1645 26.513 79.835 26.4397 79.5008 26.4328H79.2672C78.8756 26.4353 78.4861 26.4897 78.1088 26.5945C77.8494 26.67 77.5945 26.7599 77.3451 26.8638C77.2497 26.9119 77.124 26.9751 76.968 27.0536C76.764 27.1629 76.5716 27.2923 76.3935 27.4401L76.3214 25.3166C76.5135 25.2452 76.7138 25.1725 76.9235 25.1011C77.1332 25.0296 77.3639 24.9629 77.6152 24.9032C77.867 24.8435 78.1517 24.7927 78.469 24.7509C78.8235 24.7065 79.1805 24.6854 79.5378 24.6877C79.7656 24.6877 80.0112 24.6935 80.2745 24.7052C80.5385 24.7173 80.8005 24.7566 81.0564 24.8224C81.3219 24.8912 81.5805 24.9845 81.8288 25.1011C82.0907 25.2246 82.3354 25.3817 82.5567 25.5685C82.7069 25.7094 82.8481 25.8596 82.9795 26.0182C83.155 26.2367 83.2861 26.4874 83.3655 26.7561C83.494 27.1142 83.5638 27.4908 83.5722 27.8712C83.5903 28.3034 83.5993 28.6754 83.5991 28.9874V31.2175C83.5991 31.782 83.6052 32.295 83.6173 32.7565C83.629 33.218 83.6469 33.7306 83.6712 34.2944L81.4944 34.2944ZM81.4405 30.031C81.2853 30.0193 81.1325 30.0099 80.9837 30.0041C80.8344 29.9982 80.6763 29.9947 80.5094 29.9947C79.9483 29.985 79.3885 30.0484 78.8438 30.1833C78.6357 30.2294 78.4394 30.3179 78.267 30.4433C78.0946 30.5686 77.9499 30.7281 77.8418 30.9118C77.7438 31.1009 77.6945 31.3114 77.6983 31.5244C77.7004 31.6681 77.7245 31.8107 77.7698 31.9472C77.8208 32.1028 77.9031 32.2463 78.0116 32.3689C78.1351 32.5086 78.2878 32.6194 78.459 32.6933C78.6833 32.7846 78.9244 32.8274 79.1664 32.8186C79.3509 32.8128 79.534 32.7857 79.7123 32.7378C79.9519 32.6754 80.179 32.572 80.3834 32.4321C80.6279 32.2642 80.8377 32.0507 81.0012 31.8031C81.2046 31.4843 81.3359 31.125 81.386 30.7502C81.4119 30.6015 81.427 30.4512 81.4311 30.3004C81.437 30.1329 81.4405 30.0427 81.4405 30.031Z" fill="#0066B3"/>
<path d="M88.4924 20.8728V23.1404H86.0457V20.8728H88.4924ZM88.4924 24.8668V34.2943H86.0457V24.8668H88.4924Z" fill="#0066B3"/>
<path d="M96.3546 22.6181C96.2943 22.6063 96.2018 22.5853 96.0759 22.556C95.9372 22.5241 95.7953 22.5088 95.6531 22.5103C95.4892 22.5113 95.3262 22.5325 95.1676 22.5736C94.9889 22.6216 94.827 22.7181 94.6996 22.8523C94.4806 23.0619 94.3434 23.3426 94.3125 23.6441C94.2647 24.05 94.2378 24.4582 94.2317 24.8669H96.3546V26.7023H94.2317V34.2944H91.8031V26.7023H89.932V24.8669H91.8031C91.8031 24.5073 91.815 24.1118 91.8388 23.6804C91.8576 23.2766 91.9303 22.8772 92.0549 22.4927C92.1729 22.0722 92.3958 21.6885 92.7026 21.3777C92.9285 21.164 93.1827 20.9823 93.458 20.8377C93.6318 20.7559 93.8125 20.6897 93.998 20.6398C94.1633 20.5948 94.3316 20.5615 94.5017 20.5403C94.6389 20.5237 94.7769 20.5147 94.9151 20.5133H95.1675C95.3898 20.5121 95.612 20.5242 95.8328 20.5497C96.0249 20.5743 96.2527 20.6094 96.5168 20.6574L96.3546 22.6181Z" fill="#0066B3"/>
<path d="M103.875 22.6181C103.814 22.6063 103.722 22.5853 103.596 22.556C103.457 22.5241 103.315 22.5088 103.173 22.5103C103.009 22.5113 102.846 22.5325 102.688 22.5736C102.509 22.6216 102.347 22.7181 102.22 22.8523C102.001 23.0619 101.863 23.3426 101.833 23.6441C101.785 24.05 101.758 24.4582 101.752 24.8669H103.875V26.7023H101.752V34.2944H99.3231V26.7023H97.452V24.8669H99.3231C99.3231 24.5073 99.335 24.1118 99.3588 23.6804C99.3776 23.2766 99.4503 22.8772 99.5749 22.4927C99.6929 22.0722 99.9158 21.6885 100.223 21.3777C100.449 21.164 100.703 20.9823 100.978 20.8377C101.152 20.7559 101.333 20.6897 101.518 20.6398C101.683 20.5948 101.852 20.5615 102.022 20.5403C102.159 20.5237 102.297 20.5147 102.435 20.5133H102.688C102.91 20.5121 103.132 20.5242 103.353 20.5497C103.545 20.5743 103.773 20.6094 104.037 20.6574L103.875 22.6181Z" fill="#0066B3"/>
<path d="M107.472 30.4271C107.509 30.542 107.539 30.6589 107.562 30.7773C107.61 30.9859 107.695 31.1841 107.814 31.3618C107.955 31.6079 108.141 31.825 108.363 32.0013C108.561 32.1558 108.779 32.2826 109.011 32.3784C109.227 32.4673 109.454 32.5306 109.685 32.567C109.899 32.6024 110.116 32.6208 110.333 32.622C110.705 32.6206 111.076 32.5782 111.439 32.4955C111.823 32.4094 112.195 32.2765 112.546 32.0996C112.699 32.0345 112.847 31.9562 112.986 31.8654C113.136 31.7705 113.229 31.7096 113.265 31.6862L113.301 33.791C112.876 33.9705 112.44 34.1265 111.997 34.2583C111.361 34.4303 110.704 34.5092 110.045 34.4925H109.721C109.577 34.4925 109.412 34.4832 109.227 34.4656C109.018 34.4441 108.811 34.4108 108.606 34.3661C108.373 34.3169 108.145 34.2508 107.922 34.1682C107.542 34.0203 107.182 33.8238 106.852 33.5837C106.503 33.3309 106.198 33.0208 105.952 32.6666C105.68 32.2725 105.471 31.8387 105.332 31.3805C105.167 30.8321 105.088 30.2617 105.097 29.6892C105.088 29.1866 105.142 28.6848 105.26 28.1959C105.342 27.8642 105.45 27.5395 105.583 27.2249C105.643 27.116 105.703 27.0024 105.763 26.8829C105.823 26.7622 105.859 26.6908 105.871 26.6662C105.931 26.583 105.988 26.5022 106.042 26.4238C106.098 26.3433 106.161 26.268 106.231 26.1989C106.608 25.756 107.066 25.3894 107.58 25.119C108.213 24.8319 108.899 24.6789 109.594 24.6696C110.289 24.6604 110.978 24.795 111.619 25.0651C112.131 25.312 112.58 25.6721 112.933 26.1181C113.282 26.5719 113.536 27.0919 113.679 27.6466C113.837 28.2427 113.915 28.8571 113.913 29.4737V29.9586C113.913 30.1027 113.907 30.2585 113.895 30.4271L107.472 30.4271ZM111.664 28.717C111.64 28.4535 111.604 28.1935 111.556 27.9346C111.498 27.655 111.375 27.393 111.197 27.1698C111.073 26.9984 110.921 26.8495 110.747 26.7294C110.607 26.6357 110.456 26.5601 110.297 26.5045C110.172 26.4611 110.042 26.4309 109.91 26.4143C109.796 26.4026 109.715 26.3967 109.667 26.3967C109.631 26.3967 109.547 26.4026 109.415 26.4143C109.259 26.4321 109.106 26.4655 108.957 26.5139C108.765 26.577 108.583 26.6677 108.417 26.7833C108.214 26.9267 108.041 27.1067 107.904 27.3138C107.732 27.5762 107.613 27.8699 107.553 28.1782C107.511 28.4418 107.484 28.6221 107.472 28.717H111.664Z" fill="#0066B3"/>
<path d="M118.338 20.8728V23.1404H115.892V20.8728H118.338ZM118.338 24.8668V34.2943H115.892V24.8668H118.338Z" fill="#0066B3"/>
<path d="M126.471 26.8827C126.099 26.775 125.76 26.6848 125.454 26.6122C125.127 26.5385 124.791 26.5082 124.456 26.522C124.032 26.5043 123.612 26.5942 123.232 26.7832C123.091 26.8499 122.972 26.9558 122.889 27.0883C122.806 27.2207 122.763 27.3742 122.764 27.5305C122.767 27.6139 122.785 27.6962 122.818 27.7729C122.853 27.8604 122.908 27.9377 122.981 27.9978C123.132 28.1171 123.302 28.2113 123.484 28.2766C123.688 28.355 123.94 28.4421 124.24 28.5377C124.552 28.6338 124.809 28.7169 125.013 28.7896C125.217 28.8611 125.385 28.9278 125.517 28.9875C125.856 29.1342 126.16 29.3518 126.408 29.6259C126.6 29.8446 126.755 30.094 126.866 30.3637C126.954 30.5764 127.012 30.8003 127.037 31.029C127.055 31.2269 127.064 31.3617 127.064 31.4343C127.062 31.7258 127.023 32.0159 126.948 32.2975C126.862 32.6126 126.712 32.9065 126.507 33.1607C126.372 33.331 126.221 33.4879 126.057 33.6292C125.918 33.749 125.767 33.8542 125.607 33.9431C125.463 34.0216 125.334 34.0849 125.221 34.1329C125.141 34.1677 125.06 34.1978 124.977 34.2231C124.628 34.3503 124.261 34.423 123.889 34.4386C123.535 34.4503 123.304 34.4561 123.197 34.4561C122.932 34.4561 122.689 34.448 122.467 34.4292C122.246 34.4116 122.03 34.3847 121.82 34.3484C121.61 34.3121 121.394 34.2672 121.173 34.2137C120.95 34.1598 120.708 34.1024 120.444 34.0427L120.57 31.9918C120.786 32.0878 121.094 32.2143 121.497 32.3689C121.955 32.5351 122.44 32.6145 122.927 32.6032C123.348 32.6222 123.767 32.5292 124.141 32.3338C124.278 32.2657 124.394 32.1605 124.475 32.0302C124.556 31.8998 124.6 31.7494 124.6 31.5959C124.604 31.4548 124.563 31.316 124.483 31.2C124.402 31.0895 124.301 30.995 124.186 30.9212C124.066 30.8438 123.94 30.7776 123.808 30.7233C123.676 30.6695 123.556 30.625 123.449 30.5886C123.208 30.5043 122.978 30.4231 122.756 30.345C122.534 30.2677 122.318 30.1838 122.108 30.0931C121.902 30.0056 121.703 29.9005 121.514 29.7792C121.317 29.6483 121.138 29.4906 120.984 29.3107C120.801 29.1096 120.649 28.8822 120.534 28.6361C120.391 28.3167 120.324 27.969 120.336 27.6194C120.338 27.2972 120.396 26.9777 120.507 26.6754C120.648 26.3173 120.866 25.9949 121.146 25.7313C121.409 25.4758 121.717 25.2713 122.054 25.1281C122.358 24.9981 122.675 24.8988 122.999 24.8318C123.25 24.7778 123.506 24.7445 123.763 24.7323C123.973 24.7264 124.102 24.7229 124.15 24.7229C124.566 24.7204 124.982 24.7569 125.391 24.8318C125.775 24.9033 126.189 24.9872 126.633 25.0837L126.471 26.8827Z" fill="#0066B3"/>
<path d="M130.734 30.4271C130.771 30.542 130.801 30.6589 130.824 30.7773C130.872 30.9859 130.957 31.1841 131.076 31.3618C131.217 31.6079 131.403 31.825 131.625 32.0013C131.823 32.1558 132.041 32.2826 132.273 32.3784C132.489 32.4673 132.716 32.5306 132.947 32.567C133.161 32.6024 133.378 32.6208 133.595 32.622C133.967 32.6206 134.338 32.5782 134.701 32.4955C135.085 32.4094 135.457 32.2765 135.808 32.0996C135.961 32.0345 136.109 31.9562 136.248 31.8654C136.398 31.7705 136.491 31.7096 136.527 31.6862L136.563 33.791C136.138 33.9705 135.702 34.1265 135.259 34.2583C134.623 34.4303 133.965 34.5092 133.307 34.4925H132.983C132.839 34.4925 132.674 34.4832 132.489 34.4656C132.28 34.4441 132.073 34.4108 131.868 34.3661C131.635 34.3169 131.407 34.2508 131.184 34.1682C130.804 34.0203 130.444 33.8238 130.114 33.5837C129.765 33.3309 129.46 33.0208 129.214 32.6666C128.942 32.2725 128.733 31.8387 128.594 31.3805C128.429 30.8321 128.35 30.2617 128.359 29.6892C128.35 29.1866 128.404 28.6848 128.522 28.1959C128.604 27.8642 128.712 27.5395 128.845 27.2249C128.905 27.116 128.965 27.0024 129.025 26.8829C129.085 26.7622 129.121 26.6908 129.133 26.6662C129.193 26.583 129.25 26.5022 129.304 26.4238C129.36 26.3433 129.423 26.268 129.493 26.1989C129.87 25.756 130.328 25.3894 130.842 25.119C131.475 24.8319 132.161 24.6789 132.856 24.6696C133.551 24.6604 134.24 24.795 134.881 25.0651C135.393 25.312 135.842 25.6721 136.194 26.1181C136.544 26.5719 136.798 27.0919 136.941 27.6466C137.099 28.2427 137.177 28.8571 137.175 29.4737V29.9586C137.175 30.1027 137.169 30.2585 137.157 30.4271L130.734 30.4271ZM134.926 28.717C134.902 28.4535 134.866 28.1935 134.818 27.9346C134.76 27.655 134.637 27.393 134.459 27.1698C134.335 26.9984 134.183 26.8495 134.009 26.7294C133.869 26.6357 133.718 26.5601 133.559 26.5045C133.434 26.4611 133.304 26.4309 133.172 26.4143C133.058 26.4026 132.977 26.3967 132.929 26.3967C132.893 26.3967 132.809 26.4026 132.677 26.4143C132.521 26.4321 132.368 26.4655 132.219 26.5139C132.027 26.577 131.845 26.6677 131.679 26.7833C131.476 26.9267 131.303 27.1067 131.166 27.3138C130.994 27.5762 130.875 27.8699 130.815 28.1782C130.773 28.4418 130.746 28.6221 130.734 28.717H134.926Z" fill="#0066B3"/>
<path d="M145.828 34.2944V29.7429C145.817 29.1795 145.793 28.7328 145.756 28.4029C145.726 28.0931 145.641 27.7912 145.504 27.5116C145.43 27.3682 145.333 27.2377 145.217 27.1251C145.093 27.0126 144.954 26.9187 144.803 26.8463C144.743 26.8229 144.65 26.7924 144.524 26.7561C144.38 26.7178 144.232 26.6997 144.084 26.7023C143.923 26.6966 143.763 26.7116 143.606 26.7468C143.332 26.8085 143.076 26.935 142.86 27.1157C142.657 27.2699 142.484 27.4591 142.347 27.6744C142.22 27.8803 142.126 28.1048 142.068 28.3397C142.007 28.5848 141.965 28.8342 141.942 29.0858C141.918 29.3446 141.906 29.6105 141.906 29.887V34.2945H139.442V27.1344C139.442 26.714 139.435 26.3369 139.424 26.0007C139.411 25.6645 139.394 25.2874 139.37 24.8669H141.726V26.3251C141.835 26.181 141.954 26.037 142.087 25.8929C142.241 25.7105 142.423 25.5529 142.626 25.4256C142.806 25.3166 142.926 25.2452 142.986 25.2089C143.298 25.0237 143.638 24.8901 143.993 24.813C144.32 24.7517 144.651 24.7215 144.983 24.7228C145.363 24.7132 145.742 24.7618 146.107 24.8669C146.506 24.9798 146.875 25.1798 147.187 25.4525C147.362 25.6088 147.516 25.7872 147.645 25.9831C147.789 26.1739 147.901 26.3862 147.978 26.6121C148.06 26.8576 148.117 27.1106 148.149 27.3675C148.185 27.644 148.209 27.9555 148.221 28.3034C148.233 28.6512 148.245 29.0413 148.257 29.4735V34.2944H145.828Z" fill="#0066B3"/>
<path d="M153.15 20.5496V26.3427C153.225 26.2077 153.309 26.0785 153.402 25.9562C153.474 25.866 153.54 25.7852 153.6 25.7126C153.879 25.4371 154.201 25.2092 154.554 25.0379C155.026 24.8133 155.543 24.6995 156.065 24.7053C156.312 24.7117 156.558 24.7328 156.802 24.7685C157.161 24.8212 157.507 24.9336 157.828 25.1011C158.221 25.3073 158.572 25.585 158.863 25.9199C159.235 26.364 159.507 26.8823 159.663 27.4402C159.723 27.644 159.786 27.9079 159.852 28.2319C160.058 29.4997 159.941 30.7992 159.51 32.0093C159.26 32.6259 158.876 33.1793 158.385 33.6291C158.314 33.6889 158.212 33.7674 158.08 33.8622C157.928 33.9694 157.765 34.0601 157.594 34.1328C157.283 34.2815 156.948 34.3758 156.605 34.4115C156.281 34.4408 156.077 34.456 155.993 34.456C155.457 34.4728 154.923 34.3746 154.428 34.1679C154.044 34.0041 153.705 33.7516 153.438 33.4312C153.349 33.3104 153.268 33.1841 153.196 33.0529C153.158 32.9767 153.112 32.9045 153.06 32.8374V34.2944H150.74V20.5496L153.15 20.5496ZM155.417 26.6847C155.165 26.6871 154.915 26.7359 154.68 26.8288C154.38 26.9437 154.112 27.1284 153.897 27.3675C153.703 27.5891 153.548 27.8417 153.438 28.1148C153.333 28.3745 153.26 28.6464 153.222 28.9241C153.188 29.1655 153.17 29.4089 153.169 29.6526C153.168 29.9271 153.192 30.2011 153.241 30.4714C153.293 30.7552 153.384 31.0306 153.51 31.2901C153.57 31.3978 153.633 31.5056 153.699 31.6133C153.767 31.7251 153.849 31.8278 153.942 31.919C154.069 32.0619 154.218 32.1837 154.383 32.2798C154.513 32.3552 154.652 32.4154 154.797 32.459C154.905 32.4923 155.016 32.5104 155.129 32.5129H155.345C155.493 32.5044 155.64 32.4864 155.786 32.459C156.045 32.4046 156.285 32.2803 156.479 32.0994C156.669 31.933 156.831 31.7353 156.955 31.515C157.079 31.2985 157.179 31.0691 157.252 30.8309C157.322 30.6084 157.37 30.3798 157.396 30.1481C157.419 29.9478 157.431 29.7464 157.432 29.5449C157.431 29.2491 157.404 28.9539 157.351 28.6629C157.297 28.364 157.204 28.0736 157.072 27.7997C157.018 27.677 156.951 27.5598 156.875 27.4495C156.815 27.3632 156.749 27.2817 156.677 27.2059C156.524 27.0754 156.358 26.9608 156.182 26.8638C155.947 26.7384 155.683 26.6766 155.417 26.6847Z" fill="#0066B3"/>
<path d="M167.543 34.2944V32.9088C167.447 33.0772 167.335 33.2367 167.21 33.3855C167.012 33.6115 166.779 33.8031 166.518 33.9524C166.193 34.1475 165.837 34.2846 165.466 34.3577C165.118 34.4226 164.766 34.4555 164.413 34.456C163.868 34.4756 163.325 34.3773 162.821 34.1679C162.443 34.0033 162.107 33.754 161.84 33.4394C161.61 33.1649 161.444 32.8423 161.354 32.4953C161.274 32.1897 161.232 31.8754 161.229 31.5595C161.224 31.127 161.319 30.6993 161.507 30.3097C161.661 30.0053 161.872 29.7333 162.128 29.5086C162.573 29.1292 163.104 28.8639 163.675 28.7355C164.453 28.5519 165.251 28.4611 166.05 28.465H166.158C166.398 28.465 166.611 28.4685 166.797 28.4743C166.982 28.4802 167.195 28.4954 167.435 28.5188C167.411 28.3033 167.387 28.0726 167.363 27.8266C167.338 27.5758 167.245 27.3366 167.094 27.1344C166.946 26.9268 166.748 26.7597 166.519 26.6483C166.214 26.513 165.884 26.4397 165.55 26.4328H165.316C164.925 26.4353 164.535 26.4897 164.158 26.5945C163.898 26.67 163.644 26.7599 163.394 26.8638C163.299 26.9119 163.173 26.9751 163.017 27.0536C162.813 27.1629 162.621 27.2923 162.443 27.4401L162.371 25.3166C162.563 25.2452 162.763 25.1725 162.973 25.1011C163.182 25.0296 163.413 24.9629 163.664 24.9032C163.916 24.8435 164.201 24.7927 164.518 24.7509C164.873 24.7065 165.23 24.6854 165.587 24.6877C165.815 24.6877 166.06 24.6935 166.324 24.7052C166.588 24.7173 166.85 24.7566 167.105 24.8224C167.371 24.8912 167.63 24.9845 167.878 25.1011C168.14 25.2246 168.384 25.3817 168.606 25.5685C168.756 25.7094 168.897 25.8596 169.029 26.0182C169.204 26.2367 169.335 26.4874 169.415 26.7561C169.543 27.1142 169.613 27.4908 169.621 27.8712C169.639 28.3034 169.648 28.6754 169.648 28.9874V31.2175C169.648 31.782 169.654 32.295 169.666 32.7565C169.678 33.218 169.696 33.7306 169.72 34.2944L167.543 34.2944ZM167.49 30.031C167.334 30.0193 167.182 30.0099 167.033 30.0041C166.883 29.9982 166.725 29.9947 166.558 29.9947C165.997 29.985 165.438 30.0484 164.893 30.1833C164.685 30.2294 164.488 30.3179 164.316 30.4433C164.144 30.5686 163.999 30.7281 163.891 30.9118C163.793 31.1009 163.744 31.3114 163.747 31.5244C163.749 31.6681 163.774 31.8107 163.819 31.9472C163.87 32.1028 163.952 32.2463 164.061 32.3689C164.184 32.5086 164.337 32.6194 164.508 32.6933C164.732 32.7846 164.974 32.8274 165.216 32.8186C165.4 32.8128 165.583 32.7857 165.761 32.7378C166.001 32.6754 166.228 32.572 166.433 32.4321C166.677 32.2642 166.887 32.0507 167.05 31.8031C167.254 31.4843 167.385 31.125 167.435 30.7502C167.461 30.6015 167.476 30.4512 167.48 30.3004C167.486 30.1329 167.49 30.0427 167.49 30.031Z" fill="#0066B3"/>
<path d="M178.427 34.2944V29.7429C178.415 29.1795 178.391 28.7328 178.355 28.4029C178.325 28.0931 178.24 27.7912 178.103 27.5116C178.029 27.3682 177.931 27.2377 177.816 27.1251C177.692 27.0126 177.552 26.9187 177.402 26.8463C177.342 26.8229 177.249 26.7924 177.123 26.7561C176.979 26.7178 176.831 26.6997 176.682 26.7023C176.522 26.6966 176.362 26.7116 176.205 26.7468C175.93 26.8085 175.675 26.935 175.459 27.1157C175.256 27.2699 175.082 27.4591 174.946 27.6744C174.819 27.8803 174.725 28.1048 174.667 28.3397C174.606 28.5848 174.564 28.8342 174.541 29.0858C174.517 29.3446 174.505 29.6105 174.505 29.887V34.2945H172.041V27.1344C172.041 26.714 172.034 26.3369 172.022 26.0007C172.01 25.6645 171.993 25.2874 171.969 24.8669H174.325V26.3251C174.433 26.181 174.553 26.037 174.685 25.8929C174.84 25.7105 175.022 25.5529 175.225 25.4256C175.404 25.3166 175.524 25.2452 175.585 25.2089C175.897 25.0237 176.237 24.8901 176.592 24.813C176.918 24.7517 177.25 24.7215 177.582 24.7228C177.962 24.7132 178.341 24.7618 178.706 24.8669C179.105 24.9798 179.474 25.1798 179.786 25.4525C179.961 25.6088 180.115 25.7872 180.244 25.9831C180.387 26.1739 180.5 26.3862 180.577 26.6121C180.659 26.8576 180.716 27.1106 180.748 27.3675C180.784 27.644 180.807 27.9555 180.82 28.3034C180.831 28.6512 180.844 29.0413 180.856 29.4735V34.2944H178.427Z" fill="#0066B3"/>
<path d="M185.696 28.6817C185.852 28.4533 185.993 28.253 186.119 28.0785C186.245 27.9052 186.391 27.7162 186.559 27.5116L188.682 24.8669H191.507L187.999 29.0237L191.956 34.2944H188.934L186.865 31.4342C186.625 31.1097 186.422 30.8126 186.253 30.5429C186.085 30.2735 185.9 29.9646 185.696 29.6164V34.2944H183.267V20.5496H185.696V28.6817Z" fill="#0066B3"/>
<path d="M194.853 30.4271C194.89 30.542 194.92 30.6589 194.943 30.7773C194.99 30.9859 195.076 31.1841 195.195 31.3618C195.335 31.6079 195.522 31.825 195.744 32.0013C195.941 32.1558 196.159 32.2826 196.391 32.3784C196.608 32.4673 196.834 32.5306 197.066 32.567C197.28 32.6024 197.497 32.6208 197.714 32.622C198.086 32.6206 198.457 32.5782 198.82 32.4955C199.204 32.4094 199.575 32.2765 199.927 32.0996C200.08 32.0345 200.227 31.9562 200.367 31.8654C200.517 31.7705 200.61 31.7096 200.646 31.6862L200.682 33.791C200.256 33.9705 199.821 34.1265 199.378 34.2583C198.742 34.4303 198.084 34.5092 197.426 34.4925H197.102C196.958 34.4925 196.793 34.4832 196.607 34.4656C196.399 34.4441 196.192 34.4108 195.987 34.3661C195.754 34.3169 195.525 34.2508 195.303 34.1682C194.922 34.0203 194.563 33.8238 194.233 33.5837C193.883 33.3309 193.579 33.0208 193.333 32.6666C193.061 32.2725 192.852 31.8387 192.712 31.3805C192.548 30.8321 192.469 30.2617 192.478 29.6892C192.469 29.1866 192.523 28.6848 192.64 28.1959C192.722 27.8642 192.831 27.5395 192.964 27.2249C193.024 27.116 193.084 27.0024 193.144 26.8829C193.204 26.7622 193.24 26.6908 193.252 26.6662C193.312 26.583 193.369 26.5022 193.423 26.4238C193.479 26.3433 193.542 26.268 193.612 26.1989C193.988 25.756 194.447 25.3894 194.961 25.119C195.594 24.8319 196.28 24.6789 196.975 24.6696C197.67 24.6604 198.359 24.795 199 25.0651C199.512 25.312 199.961 25.6721 200.313 26.1181C200.663 26.5719 200.917 27.0919 201.06 27.6466C201.218 28.2427 201.296 28.8571 201.294 29.4737V29.9586C201.294 30.1027 201.288 30.2585 201.276 30.4271L194.853 30.4271ZM199.045 28.717C199.021 28.4535 198.985 28.1935 198.937 27.9346C198.879 27.655 198.756 27.393 198.578 27.1698C198.454 26.9984 198.302 26.8495 198.128 26.7294C197.988 26.6357 197.837 26.5601 197.678 26.5045C197.552 26.4611 197.423 26.4309 197.291 26.4143C197.177 26.4026 197.096 26.3967 197.048 26.3967C197.012 26.3967 196.928 26.4026 196.796 26.4143C196.64 26.4321 196.487 26.4655 196.337 26.5139C196.145 26.577 195.963 26.6677 195.797 26.7833C195.595 26.9267 195.421 27.1067 195.285 27.3138C195.113 27.5762 194.993 27.8699 194.934 28.1782C194.892 28.4418 194.865 28.6221 194.853 28.717H199.045Z" fill="#0066B3"/>
<path d="M209.946 34.2944V29.7429C209.934 29.1795 209.91 28.7328 209.874 28.4029C209.844 28.0931 209.759 27.7912 209.622 27.5116C209.548 27.3682 209.451 27.2377 209.335 27.1251C209.211 27.0126 209.071 26.9187 208.921 26.8463C208.861 26.8229 208.768 26.7924 208.642 26.7561C208.498 26.7178 208.35 26.6997 208.201 26.7023C208.041 26.6966 207.881 26.7116 207.724 26.7468C207.45 26.8085 207.194 26.935 206.978 27.1157C206.775 27.2699 206.601 27.4591 206.465 27.6744C206.338 27.8803 206.244 28.1048 206.186 28.3397C206.125 28.5848 206.083 28.8342 206.06 29.0858C206.036 29.3446 206.024 29.6105 206.024 29.887V34.2945H203.56V27.1344C203.56 26.714 203.553 26.3369 203.542 26.0007C203.529 25.6645 203.512 25.2874 203.488 24.8669H205.844V26.3251C205.953 26.181 206.072 26.037 206.204 25.8929C206.359 25.7105 206.541 25.5529 206.744 25.4256C206.924 25.3166 207.044 25.2452 207.104 25.2089C207.416 25.0237 207.756 24.8901 208.111 24.813C208.438 24.7517 208.769 24.7215 209.101 24.7228C209.481 24.7132 209.86 24.7618 210.225 24.8669C210.624 24.9798 210.993 25.1798 211.305 25.4525C211.48 25.6088 211.634 25.7872 211.763 25.9831C211.907 26.1739 212.019 26.3862 212.096 26.6121C212.178 26.8576 212.235 27.1106 212.267 27.3675C212.303 27.644 212.327 27.9555 212.339 28.3034C212.351 28.6512 212.363 29.0413 212.375 29.4735V34.2944H209.946Z" fill="#0066B3"/>
<path d="M51.9977 1.00232H1.00061V35.0004H51.9977V1.00232Z" fill="white"/>
<path d="M1 29.0496V34.9997H21.5297L20.1888 29.0496H1Z" fill="#FF6600"/>
<path d="M51.9978 34.9995V29.0498H32.4578C31.9366 31.7952 31.4952 34.094 31.3243 34.9995H51.9978Z" fill="#FF6600"/>
<path d="M11.304 14.9275L9.84075 8.7411H22.3257L26.3688 26.5009H26.5403L29.0877 15.1236C30.3723 9.95967 30.8562 8.7411 38.0897 8.7411H43.2919C43.2919 8.7411 42.2413 13.502 40.9346 18.6695C40.435 20.6401 36.0921 20.4068 36.3086 18.5664C36.3314 18.3751 36.5377 16.9892 36.7002 16.0033C36.9365 14.5845 35.2891 14.4082 34.9929 15.8114C34.7818 16.8165 33.8277 21.8077 32.9353 26.5009H51.9977V1.00153H1.00061V26.5009H19.624L17.0316 14.9365L11.304 14.9275Z" fill="#0066B3"/>
</svg>
