<svg xmlns="http://www.w3.org/2000/svg" version="1.2" viewBox="0.37 0.66 1536 262.18">
 <path fill="#EB1F48" d="m109.6 197.9c12.3 0 17.7-16.2 7.7-23.9q-1.6-1.6-3.9-3.9c-48.6-39.3-63.3-30.1-111.9-13.1-1.5 0.8-1.5 3.1 0 3.9 14.7 3 28.6 12.3 47.1 31.6l55.6 5.4q2.3 0 5.4 0zm228.3-196.7l-186.7 186.7c-13.1 13.8-32.4 20.8-51.7 19.2l-44.7-3.8 46.3 44.7c24.7 23.2 64 18.5 82.5-9.2l157.4-235.3c0.8-1.6-1.5-3.9-3.1-2.3z"/>
 <path fill="#002EDA" d="m405.8 68.3l36.3 71.7c0.7 0.8 2.3 0.8 3.1 0l35.4-71.7c0-1.6 0.8-2.3 3.1-2.3h38.6c0.8 0 1.5 1.5 0.8 2.3l-59.4 113.4v57.1q0 2.3-2.3 2.3h-36.3q-2.3 0-2.3-2.3v-57.9l-59.4-112.6c-0.8-1.6 0-2.3 1.5-2.3h37.8c1.6 0 2.3 0.7 3.1 2.3zm253.1 138.8v31.7q0 2.3-2.4 2.3h-118.8q-2.3 0-2.3-2.3v-170.5q0-2.3 2.3-2.3h125c1.6 0 2.3 1.5 1.6 3.1-1.6 3.8-10.1 27-10.8 29.3-0.8 1.5-1.6 2.3-3.1 2.3h-73.3q-1.6 0-1.6 2.3v30.9q0 2.3 1.6 2.3h64.8q2.3 0 2.3 2.3v28.5q0 1.6-2.3 1.6h-64.8q-1.6 0-1.6 2.3v31.6q0 2.3 1.6 2.3h79.4q2.4 0 2.4 2.3zm131.1-104.9h-60.2c-10 0-14.6 4.7-14.6 12.4 0 7.7 6.2 11.5 20 16.9l24 8.5c29.3 10.1 43.2 21.6 43.2 50.2 0 30.1-20.1 50.9-64.1 50.9h-59.4q-1.5 0-1.5-2.3v-31.7q0-2.3 1.5-2.3h64.1c12.3 0 17.7-5.4 17.7-13.9 0-9.2-6.2-13.8-23.1-20l-22.4-7.7c-22.4-7.7-41.7-20.1-41.7-47.1 0-33.2 24.7-50.1 61-50.1h55.5q2.3 0 2.3 2.3v31.6q0 2.3-2.3 2.3zm91.8 136.6v-170.5q0-2.3 2.3-2.3h87.2c33.2 0 47.1 23.9 47.1 45.5 0 17-8.5 32.4-23.9 39.3 21.6 7 31.6 21.6 31.6 42.5 0 30-21.6 47.8-57.1 47.8h-84.9q-2.3 0-2.3-2.3zm40.1-136.6v32.4q0 2.3 2.4 2.3h34.7c12.3 0 20-6.1 20-18.5 0-11.5-6.9-18.5-20-18.5h-34.7q-2.4 0-2.4 2.3zm0 68.7v33.9q0 2.3 2.4 2.3h40.1c13.9 0 20.8-7.7 20.8-18.5 0-11.5-6.2-20-20.8-20h-40.1q-2.4 0-2.4 2.3zm169-104.9h40.9c2.3 0 2.3 0.7 3.1 2.3l58.6 170.5c0 1.5 0 2.3-1.5 2.3h-37.1c-1.5 0-1.5-0.8-2.3-2.3l-11.6-34.7q0-2.4-2.3-2.4h-53.2c-1.5 0-2.3 0.8-3.1 2.4l-10.8 34.7c-0.8 1.5-0.8 2.3-3.1 2.3h-36.2c-1.6 0-2.3-0.8-1.6-3.1l57.9-169.7q0-2.3 2.3-2.3zm40.9 106.4l-19.3-63.2c0-1.6-1.5-1.6-1.5 0l-19.3 63.2q-0.8 2.3 1.5 2.3h37q1.6 0 1.6-2.3zm111.9 68.7h-35.5q-1.6 0-1.6-2.3v-170.5q0-2.3 1.6-2.3h28.5l1.6 0.7 78.7 102.6v-101q0-2.3 1.5-2.3h35.5q2.3 0 2.3 2.3v171.2c0 0.8-0.8 1.6-1.5 1.6h-27.8l-1.6-0.8-79.4-101.8v100.3q0 2.3-2.3 2.3zm141.1-2.3v-170.5q0-2.3 2.4-2.3h34.7q2.3 0 2.3 2.3v70.2c0 0.8 1.5 1.5 2.3 0l61-70.2c1.5-1.6 2.3-2.3 4.6-2.3h37.8c1.5 0 2.3 2.3 0.8 3.1l-61 74q-0.8 0.8 0 2.3l66.4 92.6c0.7 1.5 0 3.1-1.6 3.1h-40.1c-1.5 0-2.3-0.8-2.3-1.6l-47.9-67.1q-1.5-1.5-2.3 0l-16.9 17.8q-0.8 0.7-0.8 1.5v47.1q0 2.3-2.3 2.3h-34.7q-2.4 0-2.4-2.3z"/>
</svg>